<svg xmlns="http://www.w3.org/2000/svg" width="18.25" height="20.857" viewBox="0 0 18.25 20.857">
  <path id="Icon_awesome-calendar-alt" data-name="Icon awesome-calendar-alt" d="M0,18.9a1.956,1.956,0,0,0,1.955,1.955H16.295A1.956,1.956,0,0,0,18.25,18.9V7.821H0Zm13.036-7.984a.49.49,0,0,1,.489-.489h1.629a.49.49,0,0,1,.489.489v1.629a.49.49,0,0,1-.489.489H13.525a.49.49,0,0,1-.489-.489Zm0,5.214a.49.49,0,0,1,.489-.489h1.629a.49.49,0,0,1,.489.489v1.629a.49.49,0,0,1-.489.489H13.525a.49.49,0,0,1-.489-.489ZM7.821,10.917a.49.49,0,0,1,.489-.489H9.94a.49.49,0,0,1,.489.489v1.629a.49.49,0,0,1-.489.489H8.31a.49.49,0,0,1-.489-.489Zm0,5.214a.49.49,0,0,1,.489-.489H9.94a.49.49,0,0,1,.489.489v1.629a.49.49,0,0,1-.489.489H8.31a.49.49,0,0,1-.489-.489ZM2.607,10.917a.49.49,0,0,1,.489-.489H4.725a.49.49,0,0,1,.489.489v1.629a.49.49,0,0,1-.489.489H3.1a.49.49,0,0,1-.489-.489Zm0,5.214a.49.49,0,0,1,.489-.489H4.725a.49.49,0,0,1,.489.489v1.629a.49.49,0,0,1-.489.489H3.1a.49.49,0,0,1-.489-.489ZM16.295,2.607H14.339V.652A.654.654,0,0,0,13.688,0h-1.3a.654.654,0,0,0-.652.652V2.607H6.518V.652A.654.654,0,0,0,5.866,0h-1.3a.654.654,0,0,0-.652.652V2.607H1.955A1.956,1.956,0,0,0,0,4.563V6.518H18.25V4.563A1.956,1.956,0,0,0,16.295,2.607Z" fill="#fff"/>
</svg>
