<svg xmlns="http://www.w3.org/2000/svg" width="1622.12" height="458.013" viewBox="0 0 1622.12 458.013">
  <g id="Group_2702" data-name="Group 2702" transform="translate(-148.94 -3825)">
    <g id="Group_2618" data-name="Group 2618" transform="translate(-166.06 -755)">
      <text id="goal_planning" data-name="goal planning" transform="translate(315 4580)" fill="#0055a5" font-size="28" font-family="SackersGothicStd-Light, Sackers Gothic Std" font-weight="300"><tspan x="0" y="29">goal planning</tspan></text>
      <text id="Pick_a_goal_or_investment_objective." data-name="Pick a goal or 
investment objective." transform="translate(315 4618)" fill="#a5d3ff" font-size="18" font-family="Poppins-Regular, Poppins" letter-spacing="0.03em"><tspan x="0" y="19">Pick a goal or </tspan><tspan x="0" y="49">investment objective.</tspan></text>
    </g>
    <g id="Group_2607" data-name="Group 2607" transform="translate(173.94 -409.987)">
      <text id="What_suits_you_" data-name="What suits you?     " transform="translate(315 4580)" fill="#0055a5" font-size="28" font-family="SackersGothicStd-Light, Sackers Gothic Std" font-weight="300"><tspan x="0" y="29" xml:space="preserve">what suits you?     </tspan></text>
      <text id="Answer_few_questions_to_get_the_best_suited_investment_recommendation." data-name="Answer few questions to get the best suited investment recommendation." transform="translate(315 4618)" fill="#a5d3ff" font-size="18" font-family="Poppins-Regular, Poppins" letter-spacing="0.03em"><tspan x="0" y="19">Answer few questions to get </tspan><tspan x="0" y="44">the best suited investment </tspan><tspan x="0" y="69">recommendation.</tspan></text>
    </g>
    <g id="Group_2609" data-name="Group 2609" transform="translate(605.939 -724)">
      <text id="e-KYC_aproved" data-name="e-KYC aproved" transform="translate(315 4580)" fill="#0055a5" font-size="28" font-family="SackersGothicStd-Light, Sackers Gothic Std" font-weight="300"><tspan x="0" y="29">e-kyc aproved</tspan></text>
      <text id="Complete_e-KYC." data-name="Complete e-KYC." transform="translate(315 4618)" fill="#a5d3ff" font-size="18" font-family="Poppins-Regular, Poppins" letter-spacing="0.03em"><tspan x="0" y="19">Complete e-KYC.</tspan></text>
    </g>
    <g id="Group_2611" data-name="Group 2611" transform="translate(966.284 -409.487)">
      <text id="track_your_goal" data-name="track your goal" transform="translate(315 4580)" fill="#0055a5" font-size="28" font-family="SackersGothicStd-Light, Sackers Gothic Std" font-weight="300"><tspan x="0" y="29">track your goal</tspan></text>
      <text id="You_are_ready_to_invest._Track_your_investment_grow." data-name="You are ready to invest. Track your investment grow." transform="translate(315 4618)" fill="#a5d3ff" font-size="18" font-family="Poppins-Regular, Poppins" letter-spacing="0.03em"><tspan x="0" y="19">You are ready to invest. Track </tspan><tspan x="0" y="49">your investment grow.</tspan></text>
    </g>
    <g id="Group_2696" data-name="Group 2696">
      <path id="Path_2374" data-name="Path 2374" d="M0,0H1339.935" transform="translate(431.006 4044.013)" fill="none" stroke="#0a0b0b" stroke-width="5"/>
      <g id="Group_2614" data-name="Group 2614" transform="translate(211.26 -983.46)">
        <g id="Group_2613" data-name="Group 2613" transform="translate(990.681 323.473)">
          <circle id="Ellipse_260" data-name="Ellipse 260" cx="65.06" cy="65.06" r="65.06" transform="translate(439 4639)" fill="#0055a5"/>
        </g>
        <g id="Group_2612" data-name="Group 2612" transform="translate(1350.025 4953.931)">
          <path id="Path_2369" data-name="Path 2369" d="M311.836,79.784a2.1,2.1,0,0,0,2.981,0l21.309-21.253,4.591-.184L358.07,45.218l-10.995-.681-.681-10.995L333.266,50.9l-.184,4.591L311.838,76.8a2.116,2.116,0,0,0,0,2.981Z" transform="translate(-173.467)" fill="#fafcff"/>
          <path id="Path_2370" data-name="Path 2370" d="M169.659,105.7l-1.205.911a1.989,1.989,0,0,1-1.122.4l-3.818.157-1.2,1.2a28.365,28.365,0,1,1-5.852-5.852l1.2-1.2.157-3.818a1.989,1.989,0,0,1,.4-1.122l.911-1.205a35.836,35.836,0,1,0,10.525,10.525Z" transform="translate(0 -46.658)" fill="#fafcff"/>
          <path id="Path_2371" data-name="Path 2371" d="M227.875,184.785a20.656,20.656,0,0,0-11.492-3.459,20.783,20.783,0,1,0,19.266,12.963,20,20,0,0,0-1.941-3.671l-5.511,5.493a13.246,13.246,0,1,1-5.815-5.815Z" transform="translate(-76.839 -123.503)" fill="#fafcff"/>
          <path id="Path_2372" data-name="Path 2372" d="M291.527,270.934a6.057,6.057,0,1,0,5.8,5.8l-2.843,2.833a4.1,4.1,0,0,1-5.759.028l-.028-.028a.392.392,0,0,0-.028-.037,4.1,4.1,0,0,1,.028-5.759l2.833-2.843Z" transform="translate(-151.733 -198.382)" fill="#fafcff"/>
        </g>
      </g>
      <g id="Group_2655" data-name="Group 2655" transform="translate(7.256 -699.487)">
        <line id="Line_297" data-name="Line 297" x2="95.718" transform="translate(282.283 4854.247)" fill="none" stroke="#0055a5" stroke-width="15"/>
        <line id="Line_298" data-name="Line 298" x1="59.64" y2="117.07" transform="translate(372.11 4739.386)" fill="none" stroke="#0055a5" stroke-width="18"/>
        <line id="Line_301" data-name="Line 301" x2="59.64" y2="117.07" transform="matrix(0.985, -0.174, 0.174, 0.985, 352.688, 4640.9)" fill="none" stroke="#0055a5" stroke-width="18"/>
        <line id="Line_302" data-name="Line 302" y1="0.368" x2="95.718" transform="translate(262.403 4642.563)" fill="none" stroke="#0055a5" stroke-width="15"/>
      </g>
      <g id="Group_2604" data-name="Group 2604" transform="translate(-237.06 -532.444)">
        <circle id="Ellipse_260-2" data-name="Ellipse 260" cx="50.5" cy="50.5" r="50.5" transform="translate(439 4639)" fill="#0055a5"/>
        <text id="_01" data-name="01" transform="translate(490 4709)" fill="#fff" font-size="48" font-family="SackersGothicStd-Light, Sackers Gothic Std" font-weight="300" letter-spacing="0.025em"><tspan x="-36" y="0">01</tspan></text>
      </g>
      <g id="Group_2606" data-name="Group 2606" transform="translate(160.44 -729.5)">
        <circle id="Ellipse_260-3" data-name="Ellipse 260" cx="32.5" cy="32.5" r="32.5" transform="translate(439 4639)" fill="#0055a5"/>
        <text id="_02" data-name="02" transform="translate(472 4683)" fill="#fff" font-size="28" font-family="SackersGothicStd-Light, Sackers Gothic Std" font-weight="300" letter-spacing="0.025em"><tspan x="-25" y="0">02</tspan></text>
      </g>
      <g id="Group_2656" data-name="Group 2656" transform="translate(396.811 -699.487)">
        <line id="Line_297-2" data-name="Line 297" x2="95.718" transform="translate(282.283 4854.247)" fill="none" stroke="#0055a5" stroke-width="15"/>
        <line id="Line_298-2" data-name="Line 298" x1="59.64" y2="117.07" transform="translate(372.11 4739.386)" fill="none" stroke="#0055a5" stroke-width="18"/>
        <line id="Line_301-2" data-name="Line 301" x2="59.64" y2="117.07" transform="matrix(0.985, -0.174, 0.174, 0.985, 352.688, 4640.9)" fill="none" stroke="#0055a5" stroke-width="18"/>
        <line id="Line_302-2" data-name="Line 302" y1="0.368" x2="95.718" transform="translate(262.403 4642.563)" fill="none" stroke="#0055a5" stroke-width="15"/>
      </g>
      <g id="Group_2608" data-name="Group 2608" transform="translate(573.939 -513.544)">
        <circle id="Ellipse_260-4" data-name="Ellipse 260" cx="32.5" cy="32.5" r="32.5" transform="translate(439 4639)" fill="#0055a5"/>
        <text id="_03" data-name="03" transform="translate(472 4683)" fill="#fff" font-size="28" font-family="SackersGothicStd-Light, Sackers Gothic Std" font-weight="300" letter-spacing="0.025em"><tspan x="-25" y="0">03</tspan></text>
      </g>
      <g id="Group_2657" data-name="Group 2657" transform="translate(787.189 -698.5)">
        <line id="Line_297-3" data-name="Line 297" x2="95.718" transform="translate(282.283 4854.247)" fill="none" stroke="#0055a5" stroke-width="15"/>
        <line id="Line_298-3" data-name="Line 298" x1="59.64" y2="117.07" transform="translate(372.11 4739.386)" fill="none" stroke="#0055a5" stroke-width="18"/>
        <line id="Line_301-3" data-name="Line 301" x2="59.64" y2="117.07" transform="matrix(0.985, -0.174, 0.174, 0.985, 352.688, 4640.9)" fill="none" stroke="#0055a5" stroke-width="18"/>
        <line id="Line_302-3" data-name="Line 302" y1="0.368" x2="95.718" transform="translate(262.403 4642.563)" fill="none" stroke="#0055a5" stroke-width="15"/>
      </g>
      <g id="Group_2610" data-name="Group 2610" transform="translate(940.719 -729.5)">
        <circle id="Ellipse_260-5" data-name="Ellipse 260" cx="32.5" cy="32.5" r="32.5" transform="translate(439 4639)" fill="#0055a5"/>
        <text id="_04" data-name="04" transform="translate(472 4683)" fill="#fff" font-size="28" font-family="SackersGothicStd-Light, Sackers Gothic Std" font-weight="300" letter-spacing="0.025em"><tspan x="-25" y="0">04</tspan></text>
      </g>
      <g id="Group_2658" data-name="Group 2658" transform="translate(1178.19 -699.4)">
        <line id="Line_297-4" data-name="Line 297" x2="95.718" transform="translate(282.283 4854.247)" fill="none" stroke="#0055a5" stroke-width="15"/>
        <line id="Line_298-4" data-name="Line 298" x1="59.64" y2="117.07" transform="translate(372.11 4739.386)" fill="none" stroke="#0055a5" stroke-width="18"/>
        <line id="Line_301-4" data-name="Line 301" x2="59.64" y2="117.07" transform="matrix(0.985, -0.174, 0.174, 0.985, 352.688, 4640.9)" fill="none" stroke="#0055a5" stroke-width="18"/>
        <line id="Line_302-4" data-name="Line 302" y1="0.368" x2="95.718" transform="translate(262.403 4642.563)" fill="none" stroke="#0055a5" stroke-width="15"/>
      </g>
    </g>
  </g>
</svg>
