<svg xmlns="http://www.w3.org/2000/svg" xmlns:xlink="http://www.w3.org/1999/xlink" width="52.517" height="52.598" viewBox="0 0 52.517 52.598">
  <defs>
    <clipPath id="clip-path">
      <rect id="Rectangle_2829" data-name="Rectangle 2829" width="52.517" height="52.598" fill="none"/>
    </clipPath>
  </defs>
  <g id="Group_3100" data-name="Group 3100" transform="translate(-0.1 -0.103)">
    <g id="Group_3099" data-name="Group 3099" transform="translate(0.1 0.103)" clip-path="url(#clip-path)">
      <path id="Path_2681" data-name="Path 2681" d="M41.621,25.026h0a12.513,12.513,0,0,1-8.845-21.36,12.513,12.513,0,1,1,17.7,17.694A12.432,12.432,0,0,1,41.621,25.026ZM41.621,2a10.513,10.513,0,0,0,0,21.026l0,1v-1A10.513,10.513,0,0,0,41.621,2Z" transform="translate(-1.473 -0.144)" fill="#004695"/>
      <path id="Path_2682" data-name="Path 2682" d="M3.442,30.279H47.965a3.452,3.452,0,0,1,3.446,3.442v10.19a3.458,3.458,0,0,1-3.448,3.45H44.6l-.023-.976a5.739,5.739,0,0,0-11.474,0l-.023.976H20.1l-.023-.976a5.739,5.739,0,0,0-11.474,0l-.023.976H3.45A3.458,3.458,0,0,1,0,43.912V33.729a3.447,3.447,0,0,1,3.442-3.45ZM47.962,45.362a1.455,1.455,0,0,0,1.45-1.451V33.723a1.448,1.448,0,0,0-1.446-1.444v-1l0,1H3.444A1.447,1.447,0,0,0,2,33.727V43.911a1.455,1.455,0,0,0,1.451,1.45h3.24a7.73,7.73,0,0,1,7.468-6.576l.188,0A7.741,7.741,0,0,1,22,45.362h9.192a7.73,7.73,0,0,1,7.468-6.576l.188,0a7.741,7.741,0,0,1,7.649,6.579Z" transform="translate(-0.141 -1.53)" fill="#004695"/>
      <path id="Path_2683" data-name="Path 2683" d="M49.486,31.754h-32.8l-.042-.956a3.327,3.327,0,0,1,.255-1.439l3.364-8.3a3.448,3.448,0,0,1,3.191-2.151h8.119v2H23.457a1.452,1.452,0,0,0-1.342.906L18.9,29.754h28.81V22.366a1.657,1.657,0,0,0-.016-.23l-.01-.069v-.079h1.061l.929-.131a3.665,3.665,0,0,1,.036.509v8.291a1.319,1.319,0,0,1-.037.332Z" transform="translate(-0.903 -1.009)" fill="#004695"/>
      <path id="Path_2684" data-name="Path 2684" d="M14.656,39.19l.188,0A7.73,7.73,0,0,1,22.4,46.745v.2a7.741,7.741,0,0,1-15.481.007,2.317,2.317,0,0,1,.009-.243,7.739,7.739,0,0,1,7.732-7.515Zm5.74,7.591a5.733,5.733,0,0,0-5.6-5.589l-.14,0a5.772,5.772,0,0,0-5.734,5.6v.046l-.005.046a.323.323,0,0,0,0,.039v.017a5.741,5.741,0,0,0,11.481,0Z" transform="translate(-0.458 -1.938)" fill="#004695"/>
      <path id="Path_2685" data-name="Path 2685" d="M40.328,39.19l.188,0a7.73,7.73,0,0,1,7.552,7.552v.2a7.741,7.741,0,0,1-15.481.008A2.317,2.317,0,0,1,32.6,46.7a7.739,7.739,0,0,1,7.732-7.515Zm5.74,7.591a5.739,5.739,0,0,0-11.474.012v.046l-.005.046a.324.324,0,0,0,0,.039v.016a5.741,5.741,0,0,0,11.481,0Z" transform="translate(-1.633 -1.938)" fill="#004695"/>
      <path id="Path_2686" data-name="Path 2686" d="M36.815,4.609h10.88V6.853H44.528a4.074,4.074,0,0,1,.54,1.3h2.627v2.243H45.107a4.493,4.493,0,0,1-1.651,2.73,6,6,0,0,1-2.765,1.142c1.637,1.772,3.371,3.862,5.02,5.885l.718.88H42.8l-.162-.2c-1.82-2.194-3.5-4.2-5.681-6.516l-.146-.156v-2.2h1.82c1.08,0,2.829-.22,3.352-1.574H36.815V8.148h4.944A3.29,3.29,0,0,0,39.007,7.2H36.815Zm9.8,1.079H37.894v.433h1.113c2.911,0,3.841,1.326,4.11,2.439l.16.666H37.894v.085h5.365l-.06.594a3.112,3.112,0,0,1-1.362,2.319,5.585,5.585,0,0,1-3.2.819h-.741v.691c2.063,2.2,3.687,4.131,5.417,6.215h.843c-1.674-2.04-3.405-4.088-5-5.744l-.844-.875,1.215-.038C42.186,13.209,43.9,11.9,44.1,9.8l.048-.487h2.464V9.227H44.144l-.061-.469a2.975,2.975,0,0,0-1.1-2.022l-1.213-.962h4.849Z" transform="translate(-1.805 -0.334)" fill="#004695"/>
    </g>
  </g>
</svg>
