<svg xmlns="http://www.w3.org/2000/svg" width="1407" height="499" viewBox="0 0 1407 499">
  <g id="Group_2812" data-name="Group 2812" transform="translate(0 0.128)">
    <g id="Group_2811" data-name="Group 2811" transform="translate(0 406)">
      <g id="Group_2767" data-name="Group 2767" transform="translate(0 0)">
        <text id="goal_planning" data-name="goal planning" transform="translate(0 -0.128)" fill="#0055a5" font-size="28" font-family="SackersGothicStd-Light, Sackers Gothic Std" font-weight="300"><tspan x="-120" y="29">goal planning</tspan></text>
        <text id="Pick_a_goal_or_investment_objective." data-name="Pick a goal or 
investment objective." transform="translate(0 37.872)" fill="#707070" font-size="18" font-family="Poppins-Regular, Poppins" letter-spacing="0.03em"><tspan x="-63" y="19">Pick a goal or </tspan><tspan x="-101" y="49">investment objective.</tspan></text>
      </g>
      <g id="Group_2771" data-name="Group 2771" transform="translate(411 0)">
        <text id="e-KYC_aproved" data-name="e-KYC aproved" transform="translate(18 -0.128)" fill="#0055a5" font-size="28" font-family="SackersGothicStd-Light, Sackers Gothic Std" font-weight="300"><tspan x="-121" y="29">e-kyc aproved</tspan></text>
        <text id="Complete_e-KYC." data-name="Complete e-KYC." transform="translate(0 37.872)" fill="#707070" font-size="18" font-family="Poppins-Regular, Poppins" letter-spacing="0.03em"><tspan x="-80" y="19">Complete e-KYC.</tspan></text>
      </g>
      <g id="Group_2775" data-name="Group 2775" transform="translate(858 0)">
        <text id="TRACK_YOUR_GOAL" data-name="TRACK YOUR GOAL" transform="translate(0 -0.128)" fill="#0055a5" font-size="28" font-family="SackersGothicStd-Light, Sackers Gothic Std" font-weight="300"><tspan x="-138" y="29">track your goal</tspan></text>
        <text id="Track_your_investments_grow." data-name="Track your investments 
&amp; grow." transform="translate(8 37.872)" fill="#707070" font-size="18" font-family="Poppins-Regular, Poppins" letter-spacing="0.03em"><tspan x="-109" y="19">Track your investments </tspan><tspan x="-35" y="49">&amp; grow.</tspan></text>
      </g>
    </g>
    <g id="Group_2810" data-name="Group 2810" transform="translate(201)">
      <g id="Group_2769" data-name="Group 2769" transform="translate(0 0)">
        <text id="What_suits_you_" data-name="What suits you?     " transform="translate(5 -0.128)" fill="#0055a5" font-size="28" font-family="SackersGothicStd-Light, Sackers Gothic Std" font-weight="300"><tspan x="0" y="29" xml:space="preserve">what suits you?     </tspan></text>
        <text id="Answer_few_questions_to_get_the_best_suited_investment_recommendation." data-name="Answer few questions to get the best suited investment recommendation." transform="translate(0 37.872)" fill="#707070" font-size="18" font-family="Poppins-Regular, Poppins" letter-spacing="0.03em"><tspan x="-133" y="19">Answer few questions to get </tspan><tspan x="-126" y="49">the best suited investment </tspan><tspan x="-84" y="79">recommendation.</tspan></text>
      </g>
      <g id="Group_2773" data-name="Group 2773" transform="translate(411 0)">
        <text id="_READY_TO_INVEST" data-name=" READY TO INVEST" transform="translate(0 -0.128)" fill="#0055a5" font-size="28" font-family="SackersGothicStd-Light, Sackers Gothic Std" font-weight="300"><tspan x="-136" y="29" xml:space="preserve"> ready to invest</tspan></text>
        <text id="You_are_ready_to_invest." data-name="You are ready 
to invest." transform="translate(20 37.872)" fill="#707070" font-size="18" font-family="Poppins-Regular, Poppins" letter-spacing="0.03em"><tspan x="-66" y="19">You are ready </tspan><tspan x="-42" y="49">to invest.</tspan></text>
      </g>
      <g id="Group_2780" data-name="Group 2780" transform="translate(841 0)">
        <text id="ACHIEVE_YOUR_GOALS" data-name="ACHIEVE YOUR GOALS" transform="translate(0 -0.128)" fill="#0055a5" font-size="28" font-family="SackersGothicStd-Light, Sackers Gothic Std" font-weight="300"><tspan x="-164" y="29">achieve your goals</tspan></text>
        <text id="Secure_your_goals_with_consistent_efforts." data-name="Secure your goals with consistent efforts." transform="translate(42 37.872)" fill="#707070" font-size="18" font-family="Poppins-Regular, Poppins" letter-spacing="0.03em"><tspan x="-107" y="19">Secure your goals with </tspan><tspan x="-84" y="49">consistent efforts.</tspan></text>
      </g>
    </g>
    <g id="Group_2766" data-name="Group 2766" transform="translate(11 148)">
      <g id="Group_2762" data-name="Group 2762" transform="translate(0 0)">
        <g id="Group_2763" data-name="Group 2763" transform="translate(0 0)">
          <path id="Path_2472" data-name="Path 2472" d="M117,.5A116.5,116.5,0,0,0,.5,117H18.423A98.577,98.577,0,0,1,186.7,47.3,97.932,97.932,0,0,1,215.577,117H233.5A116.5,116.5,0,0,0,117,.5" transform="translate(-0.5 -0.5)" fill="#0055a5"/>
          <path id="Path_2474" data-name="Path 2474" d="M186.7,239.2A98.577,98.577,0,0,1,18.423,169.5H.5a116.5,116.5,0,0,0,233,0H215.577A97.931,97.931,0,0,1,186.7,239.2" transform="translate(-0.5 -52.999)" fill="#e4e4e4"/>
        </g>
      </g>
      <text id="_01" data-name="01" transform="translate(85 140.872)" fill="#0055a5" font-size="70" font-family="Poppins-Light, Poppins" font-weight="300"><tspan x="0" y="0">01</tspan></text>
    </g>
    <g id="Group_2805" data-name="Group 2805" transform="translate(664 151)">
      <g id="Group_2762-2" data-name="Group 2762" transform="translate(0 -0.128)">
        <g id="Group_2763-2" data-name="Group 2763" transform="translate(0 0)">
          <path id="Path_2472-2" data-name="Path 2472" d="M117,.5C52.659.5.5,51.539.5,114.5H18.423A94.8,94.8,0,0,1,47.3,46.291a100.111,100.111,0,0,1,139.408,0A94.8,94.8,0,0,1,215.577,114.5H233.5C233.5,51.539,181.341.5,117,.5" transform="translate(-0.5 -0.5)" fill="#e4e4e4"/>
          <path id="Path_2474-2" data-name="Path 2474" d="M186.7,237.707a100.112,100.112,0,0,1-139.408,0A94.8,94.8,0,0,1,18.423,169.5H.5c0,62.96,52.159,114,116.5,114s116.5-51.039,116.5-114H215.577A94.8,94.8,0,0,1,186.7,237.707" transform="translate(-0.5 -55.499)" fill="#0081fa"/>
        </g>
      </g>
      <text id="_04" data-name="04" transform="translate(74 138.872)" fill="#0081fa" font-size="70" font-family="Poppins-Light, Poppins" font-weight="300"><tspan x="0" y="0">04</tspan></text>
    </g>
    <g id="Group_2806" data-name="Group 2806" transform="translate(890 149)">
      <g id="Group_2762-3" data-name="Group 2762" transform="translate(0 -0.128)">
        <g id="Group_2763-3" data-name="Group 2763" transform="translate(0 0)">
          <path id="Path_2472-3" data-name="Path 2472" d="M117,.5C52.659.5.5,52.222.5,116.026H18.423A96.7,96.7,0,0,1,47.3,46.9a99.165,99.165,0,0,1,139.408,0,96.7,96.7,0,0,1,28.873,69.122H233.5C233.5,52.222,181.341.5,117,.5" transform="translate(-0.5 -0.5)" fill="#0c89ff"/>
          <path id="Path_2474-3" data-name="Path 2474" d="M186.7,238.62a99.166,99.166,0,0,1-139.408,0A96.7,96.7,0,0,1,18.423,169.5H.5C.5,233.3,52.659,285.024,117,285.024S233.5,233.3,233.5,169.5H215.577A96.7,96.7,0,0,1,186.7,238.62" transform="translate(-0.5 -54.024)" fill="#e4e4e4"/>
        </g>
      </g>
      <text id="_05" data-name="05" transform="translate(74 139.872)" fill="#0c89ff" font-size="70" font-family="Poppins-Light, Poppins" font-weight="300"><tspan x="0" y="0">05</tspan></text>
    </g>
    <g id="Group_2803" data-name="Group 2803" transform="translate(225 148)">
      <g id="Group_2762-4" data-name="Group 2762" transform="translate(0 -0.128)">
        <g id="Group_2763-4" data-name="Group 2763" transform="translate(0 0)">
          <path id="Path_2472-4" data-name="Path 2472" d="M117,.5C52.659.5.5,53.554.5,119H18.423A100.486,100.486,0,0,1,47.3,48.1a97.4,97.4,0,0,1,139.408,0A100.486,100.486,0,0,1,215.577,119H233.5C233.5,53.554,181.341.5,117,.5" transform="translate(-0.5 -0.5)" fill="#e4e4e4"/>
          <path id="Path_2474-4" data-name="Path 2474" d="M186.7,240.4a97.4,97.4,0,0,1-139.408,0,100.486,100.486,0,0,1-28.873-70.9H.5C.5,234.945,52.659,288,117,288s116.5-53.054,116.5-118.5H215.577A100.485,100.485,0,0,1,186.7,240.4" transform="translate(-0.5 -54.999)" fill="#0066c7"/>
        </g>
      </g>
      <text id="_02" data-name="02" transform="translate(75 140.872)" fill="#0066c7" font-size="70" font-family="Poppins-Light, Poppins" font-weight="300"><tspan x="0" y="0">02</tspan></text>
    </g>
    <g id="Group_2777" data-name="Group 2777" transform="translate(250 284.896) rotate(171)">
      <ellipse id="Ellipse_271" data-name="Ellipse 271" cx="13.502" cy="14.177" rx="13.502" ry="14.177" transform="translate(6.695 6.019)" fill="#fff"/>
      <g id="Group_2764" data-name="Group 2764">
        <path id="Path_2472-5" data-name="Path 2472" d="M20.2,0A20.2,20.2,0,0,0,0,20.2H3.107A17.089,17.089,0,0,1,32.28,8.113,16.978,16.978,0,0,1,37.286,20.2h3.107A20.2,20.2,0,0,0,20.2,0" fill="#0066c7" stroke="#0055a5" stroke-width="5"/>
        <path id="Path_2474-5" data-name="Path 2474" d="M32.281,12.084a17.089,17.089,0,0,1-24.168,0A16.978,16.978,0,0,1,3.107,0H0A20.2,20.2,0,0,0,20.2,20.2,20.2,20.2,0,0,0,40.393,0H37.286a16.977,16.977,0,0,1-5.005,12.084" transform="translate(0 20.197)" fill="#e4e4e4" stroke="#0055a5" stroke-width="5"/>
      </g>
    </g>
    <g id="Group_2804" data-name="Group 2804" transform="translate(436 148)">
      <g id="Group_2762-5" data-name="Group 2762" transform="translate(0 -0.128)">
        <g id="Group_2763-5" data-name="Group 2763" transform="translate(0 0)">
          <path id="Path_2472-6" data-name="Path 2472" d="M117,.5A116.584,116.584,0,0,0,.5,117.167H18.423a98.577,98.577,0,1,1,197.154,0H233.5A116.584,116.584,0,0,0,117,.5" transform="translate(-0.5 -0.5)" fill="#0078e9"/>
          <path id="Path_2474-6" data-name="Path 2474" d="M186.7,239.3A98.577,98.577,0,0,1,18.423,169.5H.5a116.5,116.5,0,1,0,233,0H215.577A98.142,98.142,0,0,1,186.7,239.3" transform="translate(-0.5 -53.165)" fill="#e4e4e4"/>
        </g>
      </g>
      <text id="_03" data-name="03" transform="translate(75 140.872)" fill="#0078e9" font-size="70" font-family="Poppins-Light, Poppins" font-weight="300"><tspan x="0" y="0">03</tspan></text>
    </g>
    <g id="Group_2765" data-name="Group 2765" transform="translate(464.211 284.893) rotate(171)">
      <ellipse id="Ellipse_271-2" data-name="Ellipse 271" cx="13.246" cy="13.947" rx="13.246" ry="13.947" transform="translate(6.949 6.248)" fill="#fff"/>
      <g id="Group_2764-2" data-name="Group 2764">
        <path id="Path_2472-7" data-name="Path 2472" d="M20.2,0C9.042,0,0,9.386,0,20.963H3.107A17.967,17.967,0,0,1,8.112,8.42a16.649,16.649,0,0,1,24.166,0,17.967,17.967,0,0,1,5.005,12.543H40.39C40.39,9.386,31.348,0,20.2,0" fill="#0078e9" stroke="#0066c7" stroke-width="5"/>
        <path id="Path_2474-7" data-name="Path 2474" d="M32.278,12.543a16.649,16.649,0,0,1-24.166,0A17.967,17.967,0,0,1,3.107,0H0C0,11.578,9.042,20.963,20.2,20.963S40.39,11.578,40.39,0H37.283a17.967,17.967,0,0,1-5,12.543" transform="translate(0 19.427)" fill="#0078e9" stroke="#0066c7" stroke-width="5"/>
      </g>
    </g>
    <g id="Group_2778" data-name="Group 2778" transform="translate(694 284.893) rotate(171)">
      <ellipse id="Ellipse_271-3" data-name="Ellipse 271" cx="13.67" cy="14.328" rx="13.67" ry="14.328" transform="translate(6.525 5.867)" fill="#fff"/>
      <g id="Group_2764-3" data-name="Group 2764">
        <path id="Path_2472-8" data-name="Path 2472" d="M20.2,0A19.945,19.945,0,0,0,0,19.686H3.107A16.339,16.339,0,0,1,8.112,7.907a17.4,17.4,0,0,1,24.166,0,16.339,16.339,0,0,1,5.005,11.778H40.39A19.945,19.945,0,0,0,20.2,0" fill="#0066c7" stroke="#0078e9" stroke-width="5"/>
        <path id="Path_2474-8" data-name="Path 2474" d="M32.278,11.778A17.2,17.2,0,0,1,20.2,16.657,17.2,17.2,0,0,1,8.112,11.778,16.339,16.339,0,0,1,3.107,0H0A19.945,19.945,0,0,0,20.2,19.686,19.945,19.945,0,0,0,40.39,0H37.283a16.339,16.339,0,0,1-5,11.778" transform="translate(0 20.705)" fill="#e4e4e4" stroke="#0078e9" stroke-width="5"/>
      </g>
    </g>
    <g id="Group_2807" data-name="Group 2807" transform="translate(913.106 284.893) rotate(171)">
      <ellipse id="Ellipse_271-4" data-name="Ellipse 271" cx="13.67" cy="14.328" rx="13.67" ry="14.328" transform="translate(6.525 5.867)" fill="#fff"/>
      <g id="Group_2764-4" data-name="Group 2764">
        <path id="Path_2472-9" data-name="Path 2472" d="M20.2,0A19.945,19.945,0,0,0,0,19.686H3.107A16.339,16.339,0,0,1,8.112,7.907a17.4,17.4,0,0,1,24.166,0,16.339,16.339,0,0,1,5.005,11.778H40.39A19.945,19.945,0,0,0,20.2,0" fill="#077cee" stroke="#0078e9" stroke-width="5"/>
        <path id="Path_2474-9" data-name="Path 2474" d="M32.278,11.778A17.2,17.2,0,0,1,20.2,16.657,17.2,17.2,0,0,1,8.112,11.778,16.339,16.339,0,0,1,3.107,0H0A19.945,19.945,0,0,0,20.2,19.686,19.945,19.945,0,0,0,40.39,0H37.283a16.339,16.339,0,0,1-5,11.778" transform="translate(0 20.705)" fill="#077cee" stroke="#0078e9" stroke-width="5"/>
      </g>
    </g>
    <g id="Group_2808" data-name="Group 2808" transform="translate(1108 148)">
      <g id="Group_2763-6" data-name="Group 2763" transform="translate(0 -0.128)">
        <path id="Path_2472-10" data-name="Path 2472" d="M117,.5C52.659.5.5,52.211.5,116H18.423A96.671,96.671,0,0,1,47.3,46.894a99.181,99.181,0,0,1,139.408,0A96.671,96.671,0,0,1,215.577,116H233.5C233.5,52.211,181.341.5,117,.5" transform="translate(-0.5 -0.5)" fill="#e4e4e4"/>
        <path id="Path_2474-10" data-name="Path 2474" d="M186.7,238.6a99.181,99.181,0,0,1-139.408,0A96.671,96.671,0,0,1,18.423,169.5H.5C.5,233.288,52.659,285,117,285s116.5-51.711,116.5-115.5H215.577A96.671,96.671,0,0,1,186.7,238.6" transform="translate(-0.5 -51.999)" fill="#2e99ff"/>
      </g>
      <text id="_06" data-name="06" transform="translate(73 140.872)" fill="#2e99ff" font-size="70" font-family="Poppins-Light, Poppins" font-weight="300"><tspan x="0" y="0">06</tspan></text>
    </g>
    <g id="Group_2809" data-name="Group 2809" transform="translate(1140.106 284.893) rotate(171)">
      <ellipse id="Ellipse_271-5" data-name="Ellipse 271" cx="13.67" cy="14.328" rx="13.67" ry="14.328" transform="translate(6.525 5.867)" fill="#fff"/>
      <g id="Group_2764-5" data-name="Group 2764">
        <path id="Path_2472-11" data-name="Path 2472" d="M20.2,0A19.945,19.945,0,0,0,0,19.686H3.107A16.339,16.339,0,0,1,8.112,7.907a17.4,17.4,0,0,1,24.166,0,16.339,16.339,0,0,1,5.005,11.778H40.39A19.945,19.945,0,0,0,20.2,0" fill="#1481ed" stroke="#0078e9" stroke-width="5"/>
        <path id="Path_2474-11" data-name="Path 2474" d="M32.278,11.778A17.2,17.2,0,0,1,20.2,16.657,17.2,17.2,0,0,1,8.112,11.778,16.339,16.339,0,0,1,3.107,0H0A19.945,19.945,0,0,0,20.2,19.686,19.945,19.945,0,0,0,40.39,0H37.283a16.339,16.339,0,0,1-5,11.778" transform="translate(0 20.705)" fill="#1481ed" stroke="#0078e9" stroke-width="5"/>
      </g>
    </g>
  </g>
</svg>
