<svg xmlns="http://www.w3.org/2000/svg" xmlns:xlink="http://www.w3.org/1999/xlink" width="53.456" height="57.328" viewBox="0 0 53.456 57.328">
  <defs>
    <clipPath id="clip-path">
      <rect id="Rectangle_2699" data-name="Rectangle 2699" width="53.456" height="57.328" fill="none"/>
    </clipPath>
  </defs>
  <g id="Group_2523" data-name="Group 2523" transform="translate(0 0)">
    <line id="Line_264" data-name="Line 264" y1="6.253" transform="translate(18.506 31.671)" fill="none" stroke="#004695" stroke-linecap="round" stroke-width="2"/>
    <g id="Group_2522" data-name="Group 2522" transform="translate(0 0)">
      <g id="Group_2521" data-name="Group 2521" clip-path="url(#clip-path)">
        <path id="Path_2288" data-name="Path 2288" d="M14.062,40.392V28.084c0-1.646,1.5-3.028,3.483-3.278" transform="translate(-1.399 -2.467)" fill="none" stroke="#004695" stroke-linecap="round" stroke-width="2"/>
        <line id="Line_265" data-name="Line 265" y1="6.293" transform="translate(18.523 31.632)" fill="none" stroke="#004695" stroke-linecap="round" stroke-width="2"/>
        <path id="Path_2289" data-name="Path 2289" d="M17.655,24.846l.248-.04H38.436l.874.053c1.981.263,3.483,1.632,3.483,3.29V40.393" transform="translate(-1.756 -2.467)" fill="none" stroke="#004695" stroke-linecap="round" stroke-width="2"/>
        <line id="Line_266" data-name="Line 266" y1="6.24" transform="translate(35.177 31.685)" fill="none" stroke="#004695" stroke-linecap="round" stroke-width="2"/>
        <circle id="Ellipse_251" data-name="Ellipse 251" cx="9.323" cy="9.323" r="9.323" transform="translate(17.462 0.901)" fill="none" stroke="#004795" stroke-width="2"/>
        <path id="Path_2290" data-name="Path 2290" d="M1,48.2,26.9,61.115,52.655,48.2" transform="translate(-0.099 -4.795)" fill="none" stroke="#004695" stroke-linecap="round" stroke-width="2"/>
        <path id="Path_2291" data-name="Path 2291" d="M6.165,46.336V43.765s16.68,4.664,21.1,13.213" transform="translate(-0.613 -4.354)" fill="none" stroke="#004695" stroke-linecap="round" stroke-width="2"/>
        <path id="Path_2292" data-name="Path 2292" d="M50.735,46.328V43.757s-16.682,4.656-21.111,13.2" transform="translate(-2.947 -4.353)" fill="none" stroke="#004695" stroke-linecap="round" stroke-width="2"/>
      </g>
    </g>
  </g>
</svg>
