<svg xmlns="http://www.w3.org/2000/svg" xmlns:xlink="http://www.w3.org/1999/xlink" width="53.456" height="58.052" viewBox="0 0 53.456 58.052">
  <defs>
    <clipPath id="clip-path">
      <rect id="Rectangle_2702" data-name="Rectangle 2702" width="53.456" height="58.052" fill="none"/>
    </clipPath>
  </defs>
  <g id="Group_2527" data-name="Group 2527" transform="translate(0 0)">
    <g id="Group_2526" data-name="Group 2526" transform="translate(0 0)" clip-path="url(#clip-path)">
      <path id="Path_2302" data-name="Path 2302" d="M34.98,47.962l15.565-4.1a2.55,2.55,0,0,1,3.091,1.553l.244.764A2.1,2.1,0,0,1,52.6,48.9L23.729,61.4a2.7,2.7,0,0,1-1.742.037L14.313,59" transform="translate(-1.443 -4.412)" fill="none" stroke="#004795" stroke-width="2"/>
      <path id="Path_2303" data-name="Path 2303" d="M46,17.164l-.665.571a1.767,1.767,0,0,1-2.226,0L41.6,16.445V32.268H14.968V17.142l-1.137.976a1.767,1.767,0,0,1-2.226,0l-.665-.571a1.214,1.214,0,0,1,0-1.906L27.576,1.395a1.773,1.773,0,0,1,2.23,0L46,15.258A1.214,1.214,0,0,1,46,17.164Z" transform="translate(-1.056 -0.101)" fill="none" stroke="#004695" stroke-linecap="round" stroke-width="2"/>
      <path id="Path_2304" data-name="Path 2304" d="M33.619,24.683V34.5H26.577V24.683a1.433,1.433,0,0,1,1.349-1.508H32.27A1.436,1.436,0,0,1,33.619,24.683Z" transform="translate(-2.679 -2.336)" fill="none" stroke="#004695" stroke-linecap="round" stroke-width="2"/>
      <path id="Path_2305" data-name="Path 2305" d="M43.145,10.449V2.283a.9.9,0,0,0-.9-.9H39.223a.9.9,0,0,0-.9.9V6.321" transform="translate(-3.863 -0.139)" fill="none" stroke="#004695" stroke-linecap="round" stroke-width="2"/>
      <path id="Path_2306" data-name="Path 2306" d="M14.312,42.846h5.617l13.48,3.719a2.4,2.4,0,0,1,1.57,1.3,2.023,2.023,0,0,1,.092,1.53l-.781,2.348a2.535,2.535,0,0,1-3.108,1.515L19.273,49.973" transform="translate(-1.443 -4.318)" fill="none" stroke="#004695" stroke-linecap="round" stroke-width="2"/>
      <rect id="Rectangle_2701" data-name="Rectangle 2701" width="11.97" height="21.208" rx="3" transform="translate(0.899 35.809)" fill="none" stroke="#004795" stroke-width="2"/>
    </g>
  </g>
</svg>
