<svg xmlns="http://www.w3.org/2000/svg" xmlns:xlink="http://www.w3.org/1999/xlink" width="55.036" height="55.121" viewBox="0 0 55.036 55.121">
  <defs>
    <clipPath id="clip-path">
      <rect id="Rectangle_2712" data-name="Rectangle 2712" width="55.036" height="55.121" fill="none"/>
    </clipPath>
  </defs>
  <g id="Group_2535" data-name="Group 2535" transform="translate(0 0)">
    <g id="Group_2534" data-name="Group 2534" transform="translate(0 0)" clip-path="url(#clip-path)">
      <path id="Path_2328" data-name="Path 2328" d="M33.339,13.064A12.065,12.065,0,1,1,45.4,25.128,12.064,12.064,0,0,1,33.339,13.064Z" transform="translate(-3.332 -0.1)" fill="none" stroke="#004695" stroke-linecap="round" stroke-width="2"/>
      <path id="Path_2329" data-name="Path 2329" d="M47.48,21.579h-2.8V19.9A4.2,4.2,0,0,1,41.2,15.511v-.787h3.149l-.244-.119a5.572,5.572,0,0,1-1.281-.854,3.669,3.669,0,0,1-.9-1.224,4.007,4.007,0,0,1-.316-1.649,3.621,3.621,0,0,1,1.121-2.715,4.316,4.316,0,0,1,2.1-1.088V5.335h2.8V7.144a4.051,4.051,0,0,1,2.03,1.287,4.392,4.392,0,0,1,.993,2.925v.787H47.623c.156.076.309.151.458.229a5.954,5.954,0,0,1,1.265.859,3.836,3.836,0,0,1,.909,1.22,3.893,3.893,0,0,1,.338,1.67,3.678,3.678,0,0,1-1.067,2.709,4.128,4.128,0,0,1-2.047,1.084ZM42.85,16.3a2.533,2.533,0,0,0,.617,1.25,3.146,3.146,0,0,0,2.083.9l.545.058.524-.05a2.824,2.824,0,0,0,1.8-.746,2.129,2.129,0,0,0,.6-1.592,2.352,2.352,0,0,0-.187-1,2.249,2.249,0,0,0-.539-.722,4.441,4.441,0,0,0-.932-.63q-.61-.313-1.3-.607a3.9,3.9,0,0,1-1.3-.817,2.03,2.03,0,0,1-.545-1.453,2.055,2.055,0,0,1,.477-1.4A1.766,1.766,0,0,1,46.076,8.9a1.792,1.792,0,0,1,1.52.762,2.362,2.362,0,0,1,.378.9H49a2.541,2.541,0,0,0-.541-1.121,2.663,2.663,0,0,0-1.731-.889l-.513-.076-.523.05a3,3,0,0,0-1.874.767,2.075,2.075,0,0,0-.636,1.58,2.451,2.451,0,0,0,.177,1,2.059,2.059,0,0,0,.518.7,4.07,4.07,0,0,0,.925.613q.616.3,1.344.6a3.5,3.5,0,0,1,1.354.869A2.173,2.173,0,0,1,48,16.136a1.95,1.95,0,0,1-.522,1.407,1.866,1.866,0,0,1-1.391.552,2.143,2.143,0,0,1-1.706-.736,2.379,2.379,0,0,1-.5-1.059Zm2.525-1.12v.332a1.32,1.32,0,0,0,.2.829.586.586,0,0,0,.5.18c.19,0,.241-.052.257-.07a.455.455,0,0,0,.082-.314.719.719,0,0,0-.109-.439,2.016,2.016,0,0,0-.758-.444l-.181-.074m.7-4.7c-.153,0-.186.038-.2.052a.591.591,0,0,0-.086.364.464.464,0,0,0,.1.359,2.015,2.015,0,0,0,.581.372v-.268a1.35,1.35,0,0,0-.161-.775c-.044-.061-.086-.1-.239-.1" transform="translate(-4.118 -0.533)" fill="#004695"/>
      <path id="Path_2330" data-name="Path 2330" d="M52.781,37.206V47.877a2.57,2.57,0,0,1-2.567,2.568h-2.5a7.062,7.062,0,0,0-14.12,0H22.043a7.062,7.062,0,0,0-14.12,0H3.567A2.57,2.57,0,0,1,1,47.877V37.206a2.564,2.564,0,0,1,2.567-2.567H50.214A2.564,2.564,0,0,1,52.781,37.206Z" transform="translate(-0.1 -3.462)" fill="none" stroke="#004695" stroke-linecap="round" stroke-width="2"/>
      <path id="Path_2331" data-name="Path 2331" d="M52.018,24.185v.009a2.7,2.7,0,0,1,.027.387v8.7a.338.338,0,0,1-.009.09H19.491a2.461,2.461,0,0,1,.189-1.062l3.528-8.7a2.576,2.576,0,0,1,2.376-1.6h8.505" transform="translate(-1.948 -2.199)" fill="none" stroke="#004695" stroke-width="2"/>
      <path id="Path_2332" data-name="Path 2332" d="M22.811,51.434v.18a7.064,7.064,0,0,1-14.128,0,1.339,1.339,0,0,1,.008-.18,7.062,7.062,0,0,1,14.12,0Z" transform="translate(-0.868 -4.452)" fill="none" stroke="#004695" stroke-linecap="round" stroke-width="2"/>
      <path id="Path_2333" data-name="Path 2333" d="M51.334,51.434v.18a7.064,7.064,0,0,1-14.128,0,1.339,1.339,0,0,1,.008-.18,7.062,7.062,0,0,1,14.12,0Z" transform="translate(-3.719 -4.452)" fill="none" stroke="#004695" stroke-linecap="round" stroke-width="2"/>
    </g>
  </g>
</svg>
