<svg xmlns="http://www.w3.org/2000/svg" xmlns:xlink="http://www.w3.org/1999/xlink" width="61.498" height="62" viewBox="0 0 61.498 62">
  <defs>
    <clipPath id="clip-path">
      <rect id="Rectangle_2718" data-name="Rectangle 2718" width="61.498" height="62" fill="none"/>
    </clipPath>
  </defs>
  <g id="Group_2540" data-name="Group 2540" transform="translate(0 0)">
    <g id="Group_2539" data-name="Group 2539" transform="translate(0 0)" clip-path="url(#clip-path)">
      <path id="Path_2343" data-name="Path 2343" d="M41.828,54.328v2.761a2.19,2.19,0,0,1-2.19,2.19H16.382a2.19,2.19,0,0,1-2.19-2.19V54.328" transform="translate(0.442 1.69)" fill="none" stroke="#004695" stroke-linecap="round" stroke-width="2"/>
      <line id="Line_284" data-name="Line 284" y1="3.38" transform="translate(23.279 44.9)" fill="none" stroke="#004695" stroke-linecap="round" stroke-width="2"/>
      <path id="Path_2344" data-name="Path 2344" d="M19.514,47.078V40.425A1.969,1.969,0,0,1,21.4,38.653" transform="translate(0.607 1.202)" fill="none" stroke="#004695" stroke-linecap="round" stroke-width="2"/>
      <line id="Line_285" data-name="Line 285" y1="3.402" transform="translate(23.288 44.879)" fill="none" stroke="#004695" stroke-linecap="round" stroke-width="2"/>
      <path id="Path_2345" data-name="Path 2345" d="M21.21,38.675l.134-.022h11.1l.472.029A1.975,1.975,0,0,1,34.8,40.461v6.618" transform="translate(0.66 1.202)" fill="none" stroke="#004695" stroke-linecap="round" stroke-width="2"/>
      <line id="Line_286" data-name="Line 286" y1="3.373" transform="translate(32.29 44.908)" fill="none" stroke="#004695" stroke-linecap="round" stroke-width="2"/>
      <path id="Path_2346" data-name="Path 2346" d="M32.108,31.562a5.04,5.04,0,1,1-5.039-5.039A5.039,5.039,0,0,1,32.108,31.562Z" transform="translate(0.685 0.825)" fill="none" stroke="#004795" stroke-width="2"/>
      <path id="Path_2347" data-name="Path 2347" d="M55.835,21.494V53.438a2.2,2.2,0,0,1-2.2,2.186H3.186A2.2,2.2,0,0,1,1,53.438V14.895a2.187,2.187,0,0,1,2.186-2.186H31.562" transform="translate(0.031 0.395)" fill="none" stroke="#004695" stroke-linecap="round" stroke-width="2"/>
      <path id="Path_2348" data-name="Path 2348" d="M50.885,21.381v28.18a2.2,2.2,0,0,1-2.2,2.2H7.856a2.2,2.2,0,0,1-2.2-2.2V18.535a2.189,2.189,0,0,1,2.2-2.186H31.417" transform="translate(0.176 0.508)" fill="none" stroke="#004695" stroke-linecap="round" stroke-width="2"/>
      <path id="Path_2349" data-name="Path 2349" d="M41.434,21.855H57.846a1.667,1.667,0,0,0,1.667-1.667V2.666A1.666,1.666,0,0,0,57.846,1H32.309a1.666,1.666,0,0,0-1.667,1.666V20c0,2.244,1.715,1.635,3.9,1.838a.457.457,0,0,1,.4.46v4.211a.46.46,0,0,0,.752.355l5.01-4.748A1.138,1.138,0,0,1,41.434,21.855Z" transform="translate(0.953 0.031)" fill="none" stroke="#004695" stroke-linecap="round" stroke-width="2"/>
      <circle id="Ellipse_253" data-name="Ellipse 253" cx="1.149" cy="1.149" r="1.149" transform="translate(44.882 10.299)" fill="none" stroke="#004896" stroke-width="1.5"/>
      <circle id="Ellipse_254" data-name="Ellipse 254" cx="1.149" cy="1.149" r="1.149" transform="translate(49.115 10.299)" fill="none" stroke="#004896" stroke-width="1.5"/>
      <circle id="Ellipse_255" data-name="Ellipse 255" cx="1.149" cy="1.149" r="1.149" transform="translate(40.754 10.299)" fill="none" stroke="#004896" stroke-width="1.5"/>
    </g>
  </g>
</svg>
