<svg xmlns="http://www.w3.org/2000/svg" xmlns:xlink="http://www.w3.org/1999/xlink" width="61.059" height="59.908" viewBox="0 0 61.059 59.908">
  <defs>
    <clipPath id="clip-path">
      <rect id="Rectangle_2722" data-name="Rectangle 2722" width="61.059" height="59.908" transform="translate(0 0)" fill="none"/>
    </clipPath>
  </defs>
  <g id="Group_2542" data-name="Group 2542" transform="translate(0 0)">
    <g id="Group_2541" data-name="Group 2541" clip-path="url(#clip-path)">
      <path id="Path_2350" data-name="Path 2350" d="M33.251,45.5a13.4,13.4,0,1,1,13.4,13.4A13.4,13.4,0,0,1,33.251,45.5Z" fill="none" stroke="#004695" stroke-linecap="round" stroke-width="2"/>
      <path id="Path_2351" data-name="Path 2351" d="M41.5,45.126a4.88,4.88,0,1,1,4.88,4.88A4.88,4.88,0,0,1,41.5,45.126Z" fill="none" stroke="#004695" stroke-linecap="round" stroke-width="2"/>
      <line id="Line_287" data-name="Line 287" x2="2.456" y2="2.456" transform="translate(49.758 48.752)" fill="none" stroke="#004695" stroke-linecap="round" stroke-width="2"/>
      <path id="Path_2352" data-name="Path 2352" d="M14.34,43.26v2.55a2.153,2.153,0,0,0,2.15,2.15H33.47" fill="none" stroke="#004695" stroke-linecap="round" stroke-width="2"/>
      <path id="Path_2353" data-name="Path 2353" d="M34.73,39.38H7.65a2,2,0,0,1-2-2V6.62a2,2,0,0,1,2-2h40.6a1.993,1.993,0,0,1,2,2V32.59" fill="none" stroke="#004695" stroke-linecap="round" stroke-width="2"/>
      <path id="Path_2354" data-name="Path 2354" d="M55,35.02V3a2,2,0,0,0-2-2H3A1.993,1.993,0,0,0,1,3V41.26a1.993,1.993,0,0,0,2,2H33.44" fill="none" stroke="#004695" stroke-linecap="round" stroke-width="2"/>
      <rect id="Rectangle_2719" data-name="Rectangle 2719" width="4.34" height="22.213" rx="1" transform="translate(15.805 10.612)" fill="none" stroke="#004695" stroke-linecap="round" stroke-width="2"/>
      <rect id="Rectangle_2720" data-name="Rectangle 2720" width="4.34" height="15.915" rx="1" transform="translate(24.805 16.91)" fill="none" stroke="#004695" stroke-linecap="round" stroke-width="2"/>
      <rect id="Rectangle_2721" data-name="Rectangle 2721" width="4.34" height="11.043" rx="1" transform="translate(34.018 21.782)" fill="none" stroke="#004695" stroke-linecap="round" stroke-width="2"/>
    </g>
  </g>
</svg>
