<svg id="Group_2547" data-name="Group 2547" xmlns="http://www.w3.org/2000/svg" xmlns:xlink="http://www.w3.org/1999/xlink" width="75" height="76" viewBox="0 0 75 76">
  <defs>
    <clipPath id="clip-path">
      <rect id="Rectangle_2726" data-name="Rectangle 2726" width="75" height="76" fill="none"/>
    </clipPath>
  </defs>
  <line id="Line_291" data-name="Line 291" y1="9.641" transform="translate(10.262 48.697)" fill="none" stroke="#004695" stroke-linecap="round" stroke-width="2"/>
  <g id="Group_2546" data-name="Group 2546" transform="translate(0 0)">
    <g id="Group_2545" data-name="Group 2545" clip-path="url(#clip-path)">
      <path id="Path_2357" data-name="Path 2357" d="M1,51.409V32.432c0-2.537,2.316-4.669,5.369-5.054" transform="translate(0.253 6.929)" fill="none" stroke="#004695" stroke-linecap="round" stroke-width="2"/>
      <line id="Line_292" data-name="Line 292" y1="9.703" transform="translate(10.288 48.636)" fill="none" stroke="#004695" stroke-linecap="round" stroke-width="2"/>
      <path id="Path_2358" data-name="Path 2358" d="M32.044,49.639a16.8,16.8,0,1,1,16.8,16.8A16.8,16.8,0,0,1,32.044,49.639Z" transform="translate(8.109 8.312)" fill="none" stroke="#004695" stroke-linecap="round" stroke-width="2"/>
      <path id="Path_2359" data-name="Path 2359" d="M42.679,39.845A3.565,3.565,0,1,0,46.238,43.4a3.559,3.559,0,0,0-3.559-3.559m-.025,4.636h-.025a1.065,1.065,0,1,1,1.078-1.19.426.426,0,0,1,.013.125,1.064,1.064,0,0,1-1.065,1.065" transform="translate(9.897 10.084)" fill="#004695"/>
      <path id="Path_2360" data-name="Path 2360" d="M50.625,47.728a3.565,3.565,0,1,0,3.559,3.559,3.559,3.559,0,0,0-3.559-3.559M50.6,52.364h-.025a1.065,1.065,0,1,1,1.078-1.19.426.426,0,0,1,.013.125A1.064,1.064,0,0,1,50.6,52.364" transform="translate(11.908 12.079)" fill="#004695"/>
      <path id="Path_2361" data-name="Path 2361" d="M53.734,43.531,42.929,54.337a1.257,1.257,0,0,1-1.777-1.778l10.8-10.805a1.257,1.257,0,1,1,1.778,1.778Z" transform="translate(10.321 10.474)" fill="none" stroke="#004695" stroke-linecap="round" stroke-width="1.5"/>
      <path id="Path_2362" data-name="Path 2362" d="M4.983,27.441l.376-.063H37.024l1.341.075c3.057.414,5.376,2.519,5.376,5.075V39.22" transform="translate(1.261 6.929)" fill="none" stroke="#004695" stroke-linecap="round" stroke-width="2"/>
      <line id="Line_293" data-name="Line 293" y1="9.621" transform="translate(35.966 48.717)" fill="none" stroke="#004695" stroke-linecap="round" stroke-width="2"/>
      <path id="Path_2363" data-name="Path 2363" d="M35.653,15.375A14.375,14.375,0,1,1,21.278,1,14.375,14.375,0,0,1,35.653,15.375Z" transform="translate(1.747 0.253)" fill="none" stroke="#004795" stroke-width="2"/>
    </g>
  </g>
</svg>
