<svg xmlns="http://www.w3.org/2000/svg" width="655.578" height="335.139" viewBox="0 0 655.578 335.139 >
  <path id="Path_57" style="stroke:#ac0d0d; stroke-width:3;"  data-name="Path 57" d="M-2059.372-7741.067a196.3,196.3,0,0,1-22.253-1.254,191.932,191.932,0,0,1-29.751-5.819,199.9,199.9,0,0,1-29.821-11,223.87,223.87,0,0,1-29.74-16.653,935.907,935.907,0,0,0-107.141-61.106,903.742,903.742,0,0,0-120.876-48.509.55.55,0,0,1-.357-.69.549.549,0,0,1,.691-.357,904.821,904.821,0,0,1,121.023,48.568,936.964,936.964,0,0,1,107.267,61.178,222.769,222.769,0,0,0,29.593,16.572,198.8,198.8,0,0,0,29.656,10.937,190.808,190.808,0,0,0,29.58,5.786,196.952,196.952,0,0,0,29.364,1.116,215.28,215.28,0,0,0,29.008-3.075,245.881,245.881,0,0,0,28.508-6.788,287.647,287.647,0,0,0,27.863-10.022c8.915-3.723,18.023-8.023,27.071-12.779,70.933-37.29,131.829-98.774,170.424-143.787a.55.55,0,0,1,.776-.06.55.55,0,0,1,.059.775c-38.658,45.086-99.661,106.674-170.747,144.045-9.076,4.771-18.214,9.085-27.159,12.82a288.812,288.812,0,0,1-27.97,10.062,246.924,246.924,0,0,1-28.636,6.818,216.369,216.369,0,0,1-29.157,3.09Q-2055.735-7741.067-2059.372-7741.067Z" transform="matrix(0.966, -0.259, 0.259, 0.966, 4367.155, 7191.441)" fill="#0057a6"  opacity="0.27"/>
</svg>
