<svg xmlns="http://www.w3.org/2000/svg" xmlns:xlink="http://www.w3.org/1999/xlink" width="180" height="184" viewBox="0 0 180 184">
  <defs>
    <filter id="Rectangle_213" x="0" y="0" width="180" height="184" filterUnits="userSpaceOnUse">
      <feOffset dy="20" input="SourceAlpha"/>
      <feGaussianBlur stdDeviation="20" result="blur"/>
      <feFlood flood-color="#6584e9" flood-opacity="0.431"/>
      <feComposite operator="in" in2="blur"/>
      <feComposite in="SourceGraphic"/>
    </filter>
  </defs>
  <g id="Group_1256" data-name="Group 1256" transform="translate(-534 -624)">
    <g transform="matrix(1, 0, 0, 1, 534, 624)" filter="url(#Rectangle_213)">
      <rect id="Rectangle_213-2" data-name="Rectangle 213" width="60" height="64" rx="30" transform="translate(60 40)" fill="#0057a6"/>
    </g>
    <g id="Group_761" data-name="Group 761" transform="translate(607.937 679.794)">
      <path id="Path_64" data-name="Path 64" d="M-2927.483-110.782h-.125c.012-.084.02-.168.038-.251q.9-4.167,1.794-8.335a.781.781,0,0,0-.064-.474,16.611,16.611,0,0,1-1.594-4.774c-.091-.553-.158-1.111-.236-1.666v-1.977c.067-.525.12-1.052.2-1.575a16.163,16.163,0,0,1,15.183-13.593,15.3,15.3,0,0,1,11.3,4.077,15.649,15.649,0,0,1,5.137,15.206,16,16,0,0,1-22.651,11.488.927.927,0,0,0-.654-.089c-2.006.471-4.016.928-6.023,1.4C-2925.946-111.169-2926.713-110.972-2927.483-110.782Zm3.164-3.387c.095-.017.135-.023.175-.032,1.8-.415,3.608-.834,5.416-1.236a.821.821,0,0,1,.522.08,13.26,13.26,0,0,0,12.382.425,13.636,13.636,0,0,0,7.544-14.883,13.614,13.614,0,0,0-16.056-10.793,13.306,13.306,0,0,0-9.114,6.757,13.132,13.132,0,0,0-1.595,8.26,14.214,14.214,0,0,0,1.836,5.312.8.8,0,0,1,.1.5c-.177.895-.382,1.783-.575,2.675C-2923.9-116.142-2924.1-115.179-2924.319-114.169Z" transform="translate(2927.671 143.439)" fill="#fff"/>
      <path id="Path_65" data-name="Path 65" d="M-2786.382-2.11c.684-.172,1.022.228,1.255.828.336.869.693,1.73,1.049,2.591a.687.687,0,0,1-.026.7,12.876,12.876,0,0,1-.82,1.075c-.391.443-.414.527-.118,1.024a10.1,10.1,0,0,0,4.937,4.3c.4.165.551.141.823-.192.375-.457.748-.917,1.1-1.389a.559.559,0,0,1,.737-.226c.3.128.6.254.889.4.706.346,1.406.706,2.112,1.052a.547.547,0,0,1,.367.535,2.95,2.95,0,0,1-1.127,2.5,4.192,4.192,0,0,1-3.7.611,13.691,13.691,0,0,1-8.106-5.685,10.953,10.953,0,0,1-1.774-3.169,4.3,4.3,0,0,1,.824-4.263A1.6,1.6,0,0,1-2786.382-2.11Z" transform="translate(2797.743 11.179)" fill="#fff"/>
    </g>
  </g>
</svg>
