<svg xmlns="http://www.w3.org/2000/svg" width="199.914" height="59.307" viewBox="0 0 199.914 59.307">
  <g id="Group_2298" data-name="Group 2298" transform="translate(0 0)">
    <g id="Group_2294" data-name="Group 2294" transform="translate(0 7.194)">
      <path id="Path_2121" data-name="Path 2121" d="M574.439,673.247H561.758v8.745h12.234v5.162H561.758v17.326h-5.493v-36.4h18.174Z" transform="translate(-556.265 -665.61)" fill="#0055a5"/>
      <path id="Path_2122" data-name="Path 2122" d="M641,668.085v36.4H635.51v-36.4Z" transform="translate(-610.006 -665.61)" fill="#0055a5"/>
      <path id="Path_2123" data-name="Path 2123" d="M676.749,699.266V660.4l26.542,27.768V662.87h5.492v38.612l-26.543-27.7v25.481Z" transform="translate(-637.972 -660.395)" fill="#0055a5"/>
      <path id="Path_2124" data-name="Path 2124" d="M826.456,668.54v6.495a15.233,15.233,0,0,0-9.853-3.984,12.546,12.546,0,0,0-9.453,4.031,13.59,13.59,0,0,0-3.866,9.806,13.263,13.263,0,0,0,3.866,9.665,12.767,12.767,0,0,0,9.476,3.937,12.239,12.239,0,0,0,4.926-.943,14.184,14.184,0,0,0,2.346-1.273,27.761,27.761,0,0,0,2.558-1.933v6.635a19.767,19.767,0,0,1-9.9,2.676,18.266,18.266,0,0,1-13.318-5.445,18.051,18.051,0,0,1-5.492-13.248,18.688,18.688,0,0,1,4.6-12.4,18.3,18.3,0,0,1,14.638-6.671A18.65,18.65,0,0,1,826.456,668.54Z" transform="translate(-720.027 -664.12)" fill="#0055a5"/>
      <path id="Path_2125" data-name="Path 2125" d="M926.785,690.824H911.2l-4.054,8.839h-5.917l18.009-38.682,17.373,38.682H930.6Zm-2.239-5.162-5.4-12.376-5.657,12.376Z" transform="translate(-790.208 -660.792)" fill="#0055a5"/>
      <path id="Path_2127" data-name="Path 2127" d="M1122.29,673.247v31.233H1116.8V673.247h-8.368v-5.162h22.2v5.162Z" transform="translate(-930.72 -665.61)" fill="#0055a5"/>
    </g>
    <g id="Group_2295" data-name="Group 2295" transform="translate(86.895 50.494)">
      <path id="Path_2128" data-name="Path 2128" d="M827.02,799.763v2.974h-.761v-6.794h1.232a3.768,3.768,0,0,1,1.118.141,1.685,1.685,0,0,1,.731.462,1.853,1.853,0,0,1,.493,1.307,1.781,1.781,0,0,1-.576,1.4,2.291,2.291,0,0,1-1.575.51Zm0-.7h.616a1.626,1.626,0,0,0,1.074-.314,1.118,1.118,0,0,0,.374-.907q0-1.195-1.5-1.195h-.559Z" transform="translate(-826.259 -795.618)" fill="#1a1a1a"/>
      <path id="Path_2129" data-name="Path 2129" d="M840.379,795.944v6.085h1.87v.708h-2.631v-6.794Z" transform="translate(-835.318 -795.618)" fill="#1a1a1a"/>
      <path id="Path_2130" data-name="Path 2130" d="M853.1,800.129h-2.9l-.823,1.923h-.823l3.128-7.119,3.054,7.119H853.9Zm-.3-.709-1.135-2.723L850.5,799.42Z" transform="translate(-841.374 -794.932)" fill="#1a1a1a"/>
      <path id="Path_2131" data-name="Path 2131" d="M869.6,802.135v-7.08L874.9,800.6v-5.262h.761v7.1l-5.293-5.54v5.236Z" transform="translate(-855.652 -795.015)" fill="#1a1a1a"/>
      <path id="Path_2132" data-name="Path 2132" d="M904.276,795.944h.761v8.488h-.761Z" transform="translate(-879.167 -795.618)" fill="#1a1a1a"/>
      <path id="Path_2133" data-name="Path 2133" d="M923.292,795.944v6.794h-.761v-6.794Z" transform="translate(-891.547 -795.618)" fill="#1a1a1a"/>
      <path id="Path_2134" data-name="Path 2134" d="M929.818,802.135v-7.08l5.294,5.549v-5.262h.761v7.1l-5.293-5.54v5.236Z" transform="translate(-896.488 -795.015)" fill="#1a1a1a"/>
      <path id="Path_2135" data-name="Path 2135" d="M950.722,795.944l1.927,5.179,1.932-5.179h.823l-2.763,7.194-2.75-7.194Z" transform="translate(-910.1 -795.618)" fill="#1a1a1a"/>
      <path id="Path_2136" data-name="Path 2136" d="M972.374,796.652h-2.759v2.015H972.3v.708h-2.684v2.653h2.759v.708h-3.52v-6.794h3.52Z" transform="translate(-922.961 -795.618)" fill="#1a1a1a"/>
      <path id="Path_2137" data-name="Path 2137" d="M984.71,796.64l-.6.392a1.691,1.691,0,0,0-.515-.576,1.183,1.183,0,0,0-.647-.163,1.146,1.146,0,0,0-.805.3.972.972,0,0,0-.321.748q0,.6.961,1.021l.648.286a3.138,3.138,0,0,1,1.176.8,1.606,1.606,0,0,1,.361,1.074A1.975,1.975,0,0,1,984.34,802a2.136,2.136,0,0,1-1.535.6,2.046,2.046,0,0,1-1.355-.458,2.251,2.251,0,0,1-.739-1.293l.735-.207a1.393,1.393,0,0,0,2.354.858,1.272,1.272,0,0,0,.4-.946,1.014,1.014,0,0,0-.255-.708,2.678,2.678,0,0,0-.893-.568l-.616-.282a3.721,3.721,0,0,1-.631-.341,2.055,2.055,0,0,1-.42-.376,1.446,1.446,0,0,1-.321-.955,1.643,1.643,0,0,1,.538-1.254,2.022,2.022,0,0,1,3.114.563Z" transform="translate(-931.001 -795.368)" fill="#1a1a1a"/>
      <path id="Path_2138" data-name="Path 2138" d="M996.654,796.652v6.085h-.761v-6.085h-1.646v-.708H998.3v.708Z" transform="translate(-940.182 -795.618)" fill="#1a1a1a"/>
      <path id="Path_2139" data-name="Path 2139" d="M1020.4,795.944h.761v8.488h-.761Z" transform="translate(-957.919 -795.618)" fill="#1a1a1a"/>
      <path id="Path_2140" data-name="Path 2140" d="M1039.418,799.763v2.974h-.761v-6.794h1.232a3.77,3.77,0,0,1,1.118.141,1.686,1.686,0,0,1,.73.462,1.853,1.853,0,0,1,.493,1.307,1.782,1.782,0,0,1-.576,1.4,2.291,2.291,0,0,1-1.575.51Zm0-.7h.616a1.624,1.624,0,0,0,1.073-.314,1.117,1.117,0,0,0,.375-.907q0-1.195-1.505-1.195h-.559Z" transform="translate(-970.299 -795.618)" fill="#1a1a1a"/>
      <path id="Path_2141" data-name="Path 2141" d="M1055.469,799.7l2.156,3.04h-.924l-2.051-2.979h-.194v2.979h-.761v-6.794h1.1a2.723,2.723,0,0,1,1.773.475,1.776,1.776,0,0,1,.611,1.43,1.781,1.781,0,0,1-1.707,1.848Zm-1.012-.607h.475a1.71,1.71,0,0,0,1.113-.316,1.128,1.128,0,0,0,.383-.922q0-1.2-1.518-1.2h-.453Z" transform="translate(-980.497 -795.618)" fill="#1a1a1a"/>
      <path id="Path_2142" data-name="Path 2142" d="M1069.554,799.06a3.3,3.3,0,0,1,1.051-2.442,3.512,3.512,0,0,1,4.978.009,3.476,3.476,0,0,1-.009,4.963,3.53,3.53,0,0,1-4.863.106A3.362,3.362,0,0,1,1069.554,799.06Zm.761,0a2.725,2.725,0,0,0,.868,2.07,2.738,2.738,0,0,0,3.862-.044,2.732,2.732,0,0,0,.815-1.986,2.7,2.7,0,0,0-.81-1.986,2.641,2.641,0,0,0-1.955-.819,2.7,2.7,0,0,0-1.96.815A2.654,2.654,0,0,0,1070.315,799.062Z" transform="translate(-991.252 -795.377)" fill="#1a1a1a"/>
      <path id="Path_2143" data-name="Path 2143" d="M1097.577,796.64l-.6.392a1.688,1.688,0,0,0-.515-.576,1.183,1.183,0,0,0-.647-.163,1.145,1.145,0,0,0-.805.3.97.97,0,0,0-.321.748q0,.6.961,1.021l.647.286a3.14,3.14,0,0,1,1.177.8,1.606,1.606,0,0,1,.361,1.074,1.975,1.975,0,0,1-.625,1.487,2.136,2.136,0,0,1-1.536.6,2.045,2.045,0,0,1-1.355-.458,2.252,2.252,0,0,1-.74-1.293l.735-.207a1.355,1.355,0,0,0,1.386,1.25,1.341,1.341,0,0,0,.968-.392,1.27,1.27,0,0,0,.4-.946,1.016,1.016,0,0,0-.255-.708,2.68,2.68,0,0,0-.893-.568L1095.3,799a3.741,3.741,0,0,1-.631-.341,2.057,2.057,0,0,1-.42-.376,1.444,1.444,0,0,1-.321-.955,1.643,1.643,0,0,1,.538-1.254,2.022,2.022,0,0,1,3.114.563Z" transform="translate(-1007.543 -795.368)" fill="#1a1a1a"/>
      <path id="Path_2144" data-name="Path 2144" d="M1112.439,799.763v2.974h-.761v-6.794h1.232a3.77,3.77,0,0,1,1.118.141,1.687,1.687,0,0,1,.73.462,1.852,1.852,0,0,1,.493,1.307,1.781,1.781,0,0,1-.576,1.4,2.29,2.29,0,0,1-1.575.51Zm0-.7h.616a1.626,1.626,0,0,0,1.074-.314,1.118,1.118,0,0,0,.374-.907q0-1.195-1.5-1.195h-.559Z" transform="translate(-1019.818 -795.618)" fill="#1a1a1a"/>
      <path id="Path_2145" data-name="Path 2145" d="M1130.236,796.652h-2.759v2.015h2.684v.708h-2.684v2.653h2.759v.708h-3.52v-6.794h3.52Z" transform="translate(-1030.016 -795.618)" fill="#1a1a1a"/>
      <path id="Path_2146" data-name="Path 2146" d="M1144.307,799.7l2.156,3.04h-.924l-2.051-2.979h-.193v2.979h-.761v-6.794h1.1a2.722,2.722,0,0,1,1.773.475,1.776,1.776,0,0,1,.612,1.43,1.781,1.781,0,0,1-1.707,1.848Zm-1.012-.607h.475a1.708,1.708,0,0,0,1.113-.316,1.128,1.128,0,0,0,.383-.922q0-1.2-1.518-1.2h-.453Z" transform="translate(-1040.744 -795.618)" fill="#1a1a1a"/>
    </g>
    <g id="Group_2296" data-name="Group 2296" transform="translate(189.851 0)">
      <path id="Path_2147" data-name="Path 2147" d="M1147.9,644.493V638.8h-1.742v-.761h4.193v.761H1148.6v5.69Z" transform="translate(-1146.154 -638.042)" fill="#1a1a1a"/>
      <path id="Path_2148" data-name="Path 2148" d="M1160.2,644.493v-6.451h1.052l1.256,4.567.251.955q.092-.356.282-1.034l1.269-4.488h.942v6.451h-.673v-5.4l-1.543,5.4h-.629L1160.869,639v5.488Z" transform="translate(-1155.677 -638.042)" fill="#1a1a1a"/>
    </g>
    <path id="Path_2149" data-name="Path 2149" d="M1024.05,688.97a9.874,9.874,0,0,0,5.846-3.56,10.34,10.34,0,0,0,2.216-6.647,9.959,9.959,0,0,0-3.536-7.968q-3.206-2.71-10.419-2.711h-6.435v5.162h7.449q7.59,0,7.591,5.587a5.252,5.252,0,0,1-1.98,4.455,9.5,9.5,0,0,1-5.822,1.508h-7.237v4.772h5.967v.014h.516l10.4,14.9h6.718Z" transform="translate(-865.137 -658.416)" fill="#fabe3c"/>
    <rect id="Rectangle_2653" data-name="Rectangle 2653" width="25.731" height="4.618" transform="translate(147.824 18.72)" fill="#fabe3c"/>
    <rect id="Rectangle_2654" data-name="Rectangle 2654" width="26.97" height="4.618" transform="translate(146.585 9.669)" fill="#fabe3c"/>
  </g>
</svg>
