<svg xmlns="http://www.w3.org/2000/svg" width="28.759" height="28.752" viewBox="0 0 28.759 28.752">
  <path id="Icon_awesome-instagram" data-name="Icon awesome-instagram" d="M14.378,9.242a7.372,7.372,0,1,0,7.372,7.372A7.36,7.36,0,0,0,14.378,9.242Zm0,12.165a4.793,4.793,0,1,1,4.793-4.793,4.8,4.8,0,0,1-4.793,4.793ZM23.77,8.941a1.719,1.719,0,1,1-1.719-1.719A1.715,1.715,0,0,1,23.77,8.941Zm4.882,1.745A8.509,8.509,0,0,0,26.33,4.661a8.565,8.565,0,0,0-6.025-2.323c-2.374-.135-9.489-.135-11.863,0A8.553,8.553,0,0,0,2.418,4.655,8.537,8.537,0,0,0,.1,10.679c-.135,2.374-.135,9.489,0,11.863a8.509,8.509,0,0,0,2.323,6.025,8.576,8.576,0,0,0,6.025,2.323c2.374.135,9.489.135,11.863,0a8.509,8.509,0,0,0,6.025-2.323,8.565,8.565,0,0,0,2.323-6.025c.135-2.374.135-9.483,0-11.857Zm-3.067,14.4a4.852,4.852,0,0,1-2.733,2.733c-1.893.751-6.384.577-8.475.577s-6.589.167-8.475-.577a4.852,4.852,0,0,1-2.733-2.733c-.751-1.893-.577-6.384-.577-8.475s-.167-6.589.577-8.475A4.852,4.852,0,0,1,5.9,5.406c1.893-.751,6.384-.577,8.475-.577s6.589-.167,8.475.577a4.852,4.852,0,0,1,2.733,2.733c.751,1.893.577,6.384.577,8.475S26.337,23.2,25.586,25.089Z" transform="translate(0.005 -2.238)" fill="#0055a5"/>
</svg>
