<svg xmlns="http://www.w3.org/2000/svg" width="28.76" height="28.76" viewBox="0 0 28.76 28.76">
  <path id="Icon_ionic-logo-linkedin" data-name="Icon ionic-logo-linkedin" d="M30.96,4.5h-24A2.346,2.346,0,0,0,4.5,6.74V30.8A2.531,2.531,0,0,0,6.957,33.26h24A2.4,2.4,0,0,0,33.26,30.8V6.74A2.205,2.205,0,0,0,30.96,4.5ZM13.415,28.473H9.295V15.662h4.12ZM11.5,13.715h-.03A2.115,2.115,0,0,1,9.295,11.5a2.128,2.128,0,0,1,2.225-2.21,2.122,2.122,0,0,1,2.2,2.21A2.128,2.128,0,0,1,11.5,13.715ZM28.473,28.473h-4.12v-7c0-1.678-.6-2.824-2.09-2.824a2.254,2.254,0,0,0-2.113,1.521,2.774,2.774,0,0,0-.142,1.011v7.3h-4.12V15.662h4.12v1.783a4.171,4.171,0,0,1,3.716-2.083c2.7,0,4.75,1.783,4.75,5.626v7.484Z" transform="translate(-4.5 -4.5)" fill="#0055a5"/>
</svg>
