<svg height='100px' width='100px'  fill="#ffffff" xmlns="http://www.w3.org/2000/svg" xmlns:xlink="http://www.w3.org/1999/xlink" version="1.1" x="0px" y="0px" viewBox="0 0 73 73" style="enable-background:new 0 0 73 73;" xml:space="preserve"><g><path d="M51.458313,28.0460644c2.5118942,0.2149715,5.0196533-1.8336868,4.8626099-4.5878906   c0.0007935-0.0076904,0.0030518-0.0151367,0.0038452-0.0229492c0.3826942-3.8808956-3.9210777-6.6264954-7.3769531-4.5683594   C44.7345505,21.3694801,46.3597603,28.1672535,51.458313,28.0460644z M49.7134399,20.1559277c0.0009766,0,0.0009766,0,0.0009766,0   c2.4109955-1.4351177,5.3771172,0.4894161,5.1181641,3.1328125c-0.125,1.2666016-0.9658203,2.4619141-2.0927734,2.9736328   c-1.1416016,0.5185547-2.5898438,0.3330078-3.5214844-0.453125C47.689209,24.5205135,47.4467583,21.5037575,49.7134399,20.1559277z   "></path><path d="M40.7240601,37.2961884c0.181015,0.4135857,0.4224548,0.7083969,0.8803101,0.7188721   c3.9178467,0.0892334,14.1775513,0.3057861,18.6921387,0.284668c0.3747101-0.0017815,0.6720238-0.192318,0.8780518-0.6171875   c0.2982788-0.105957,0.5117188-0.3837891,0.5037231-0.7160645c-0.0859375-3.3427734-2.1660156-6.4990253-5.4306641-8.2382832   c-0.9755859-0.515625-2.1738281-0.5673828-3.2832031-0.1464844c-1.0814934,0.4097843-2.5663719,0.315897-3.5263672-0.0800781   c-1.0410156-0.4414063-2.2529297-0.375-3.3251953,0.1826172c-3.0283203,1.5810547-5.1650391,4.5283222-5.7167969,7.883791   c-0.0351563,0.2158203,0.0253906,0.4365234,0.1660156,0.6035156   C40.6071167,37.2250214,40.6675415,37.2577362,40.7240601,37.2961884z M46.8052368,30.0143261   c0.6640625-0.34375,1.4296875-0.3935547,2.053688-0.1289063c1.4544907,0.6001568,3.333725,0.5925159,4.6377182,0.0996094   c0.7070313-0.2724609,1.4560547-0.2460938,2.046875,0.0683594c2.5410156,1.3525391,4.2421875,3.6865253,4.5771484,6.2128925   c-1.6061897,0.0308876-4.6943665-0.2109375-6.5957031-0.2109375c-2.2489929,0.0076599-2.7434235-0.0183907-11.4638672-0.1074219   C42.7310181,33.4186249,44.4575806,31.2408886,46.8052368,30.0143261z"></path><path d="M25.2437115,35.9615936c-0.5,0.1894531-1.1376953,0.2832031-1.8066406,0.2607422   c-0.6210938-0.0195313-1.234375-0.1416016-1.7197266-0.3417969c-1.0410156-0.4423828-2.2539063-0.3730469-3.3251953,0.1835938   c-3.0283203,1.5810547-5.1650391,4.5283203-5.7167969,7.8837891c-0.0351563,0.2158203,0.0253906,0.4365234,0.1660156,0.6035156   c0.0452271,0.0537109,0.105896,0.0866699,0.1627197,0.1252441c0.1812449,0.4133835,0.4219074,0.7075424,0.8797607,0.7180176   c3.9178467,0.0891113,14.1775513,0.3056641,18.6921406,0.284668c0.3785286-0.0018005,0.6740265-0.19627,0.8779907-0.6169434   c0.2982788-0.1060791,0.5115967-0.3835449,0.5036011-0.7150879c-0.0839844-3.34375-2.1640644-6.5-5.4296894-8.2382813   C27.5532818,35.5914764,26.3550396,35.5406952,25.2437115,35.9615936z M32.3999634,43.6461639   c-2.5105171,0.0482788-0.0111961-0.1520195-14.3105488-0.2832031l-3.7490234-0.0351563   c0.6699219-2.5292969,2.3964844-4.7070313,4.7441406-5.9335938c0.6630859-0.3447266,1.4277344-0.3964844,2.0537109-0.1298828   c1.4444447,0.5968933,3.3214035,0.5981407,4.6376953,0.1005859c0.7197266-0.2753906,1.4501953-0.25,2.0478516,0.0683594   C30.3657818,38.7867889,32.065979,41.1197968,32.3999634,43.6461639z"></path><path d="M65.965271,16.5150585c-0.3582916-0.5523586,0.8391647-0.29813-17.149292-0.0856934   c-6.9872437,0.0828857-14.2120361,0.1689453-21.4594135,0.4052734c0.0781078-2.8494234-0.8934593-5.2874537-2.7122803-7.251708   c-1.5427151-1.9807281-3.5725422-3.2616286-5.7804565-3.8420415c-9.86724-2.6400764-17.7238617,9.0235519-11.2675781,17.206543   c0.4827876,0.7232666,1.0369258,1.3811035,1.6534419,1.949707c-0.1428127,8.4306087-0.3842106,17.9616833,0.1922607,26.5878925   c0.0244141,0.3662109,0.3095703,0.6601563,0.6738281,0.6962891c8.4005737,0.8308105,17.09375,1.4575195,26.015749,1.8823242   c-0.0029945,0.0785179,0.0060501-0.6903-0.0215454,4.5266113c-3.5568924-0.1629791-2.6643257-0.694767-9.1641254,2.1672363   c-1.5517578,0.6845703-3.15625,1.390625-4.7373047,1.96875c-0.4194469,0.1524124-0.6388206,0.657032-0.3845215,1.0847168   c0.0115967,0.6051025,0.0559082,1.1010742,0.0313721,1.7702637c7.4528809,0.6445313,21.1036396,2.4619141,22.1031513,1.9776611   c2.8505249-1.3809814,5.963562-2.9953613,8.5479126-4.8267822c0.0014648-0.4572754-0.0582275-1.0072021-0.0714111-1.4865723   c0.0813637-0.4418678-0.2225342-0.8136215-0.6171265-0.8757324c-3.477932-0.54245-6.3293343-0.7927322-10.1384888-1.4191895   c-0.0815773-2.6698494,0.0292625-3.8080139,0.1008911-4.6516113c7.4175415,0.2789307,14.975769,0.4262695,22.6577148,0.4262695   c0.4365234,0,0.9423828,0.0878906,1.2480469-0.2255859c0.0280151-0.0285645,0.0411377-0.0664063,0.0639038-0.0985107   c0.6333008-0.2049561,1.1628418-0.7584229,1.4326782-1.3862305c0.3512573-0.8171387,0.3583374-1.7349854,0.3598633-2.6245117   c0.0169678-10.2196045,0.1841431-20.668581,0.2122803-30.9053974c0.0020752-0.7587891-0.2996826-1.4836426-0.8369141-2.0196533   L65.965271,16.5150585z M48.8345337,17.9293652c5.1347656-0.0605469,10.4365234-0.1230469,15.7705078-0.2460938   c0.0595322,3.0362492-0.5844421,12.5570965-0.2944336,31.4560566c-3.201683-0.1192894,15.1613541,0.5650711-53.5855103-1.9968262   c-0.2404175-6.3873291-0.1464844-13.4057617,0.0053101-21.0913105c2.8566971,1.8187904,6.4894028,2.0358257,9.5786743,0.9057617   c-3.0100708,2.8671532-1.2517738,8.568037,3.4260864,8.4685078c2.5138702,0.2160721,5.022871-1.832695,4.8651123-4.5888691   c0.0007935-0.0075684,0.0030518-0.0148926,0.0037842-0.0224609c0.3085995-3.1294823-2.5490665-5.7955456-5.7809448-5.1716309   c2.4614086-1.7436676,3.9528637-4.4590855,4.3945923-7.3041992C31.5354786,18.3012924,26.9195518,18.1895294,48.8345337,17.9293652   z M25.0200787,33.6422577c-1.1386719,0.5195313-2.5878906,0.3320313-3.5224609-0.4541016   c-0.9628906-0.8115234-1.3681641-2.2001972-1.0585938-3.6250019c0.2655182-1.2142239,1.4397163-2.2468624,2.7304688-2.4677734   c1.0442009-0.179306,2.1090279,0.1351109,2.9072266,0.8779297C26.8335552,28.6783886,27.1124954,32.6895065,25.0200787,33.6422577z    M11.510313,8.0778036c6.1664734-3.5071635,14.3784924,0.9568357,13.8847656,9.0107412   c-0.8776302,5.0841312-5.3203354,8.8587341-10.7011719,8.3720703c-0.0273438-0.0068359-0.0546875-0.0126953-0.0830078-0.0175781   c-4.2511444-0.6361294-7.8710933-4.3911304-7.8710933-9.2177734C6.7398057,13.0748739,8.7456646,9.6490927,11.510313,8.0778036z    M40.2798462,60.9303436c0.0322266,0.3916016,0.3603516,0.6875,0.7460938,0.6875c0.4415131,0,0.785183-0.3761139,0.7480469-0.8125   c-0.0079956-0.095459-0.0147705-0.2160645-0.0222168-0.3239746c2.8034325,0.4523048,5.333519,0.7401123,7.5397949,1.0388184   c-1.7907486,0.8894234-3.7225609,1.7648811-5.5585938,2.7744141c-5.8646545-0.302063-11.9584484-0.9939919-17.9033222-1.4111328   c8.1341152-3.5115242,6.2078342-2.9675331,10.2797871-2.8054199c0.0007935,0.123291,0.0010376,0.253418,0.0024414,0.3679199   c0.0048828,0.4111328,0.3398438,0.7412109,0.75,0.7412109c0.0029297,0,0.0058594,0,0.0087891,0   c0.4150391-0.0048828,0.7460938-0.3447266,0.7412109-0.7587891c-0.0214386-1.7287483,0.0350838-4.5232735,0.0130615-6.298584   c0.8831787,0.0395508,1.7735596,0.0727539,2.6611328,0.1083984C40.0797729,55.9077606,40.1418457,59.2819061,40.2798462,60.9303436   z M10.8980083,50.7506561c-0.0428467-0.6916504-0.0759277-1.3996582-0.1091919-2.1072998l53.517395,1.9959717   c0.0097656,0.0009766,0.0195313,0.0009766,0.0292969,0.0009766c0.0006104,0,0.0012207-0.0003662,0.0018311-0.0003662   c0.0149536,0.8590088,0.027771,1.7054443,0.0460205,2.5853271C45.7105103,53.2242889,27.7222271,52.3922577,10.8980083,50.7506561z   "></path><path d="M13.5191021,23.505537h4.9306641c1.5878906,0,2.8798828-1.2871094,2.8798828-2.8701172v-2.7998047   c-0.0214157-0.1012325,0.159708-1.4260769-1.0241699-2.4337149c0.0170288-0.0626221,0.0396118-0.1239014,0.0397949-0.1903076   c0.0029297-1.2822266,0.0068359-2.8789063-0.7998047-4.2089844c-1.7660789-2.909584-6.1404886-2.7211018-7.65625,0.4892578   c-0.6113281,1.2978516-0.5546875,2.7724609-0.5087891,3.9570313c0.0023804,0.0654297,0.0252686,0.1235352,0.0432739,0.1835938   c-0.4760742,0.5141592-0.7737427,1.1975088-0.7737427,1.953124c0,0.3794231,0,3.2118187,0,3.0498047   C10.6499615,22.2184277,11.9370708,23.505537,13.5191021,23.505537z M19.829649,20.6354198   c0,0.7558594-0.6191406,1.3701172-1.3798828,1.3701172h-4.9306641c-0.7548828,0-1.3691406-0.6142578-1.3691406-1.3701172   c0-0.8062725,0-3.1524906,0-3.0498047c0-0.7607422,0.6142578-1.3798828,1.3691406-1.3798828h4.9306641   c0.7607422,0,1.3798828,0.6191406,1.3798828,1.3798828v0.25V20.6354198z M13.2466412,12.1315145   c0.4433594-0.9394531,1.4179688-1.6191406,2.4267578-1.6914063c1.0058594-0.0595703,2.0585938,0.4648438,2.5888672,1.3398438   c0.5119629,0.8438721,0.5731201,1.9366455,0.5793457,2.965332c-0.5727596-0.078927,0.142868-0.0166836-5.3225098-0.0395508   c-0.227356,0-0.4458618,0.0333252-0.6580811,0.0837402C12.8395367,13.8780966,12.8736553,12.922164,13.2466412,12.1315145z"></path><path d="M16.284483,17.7758007c-0.6017456-0.2984619-1.3027954,0.1782227-1.0852051,0.864624   c0.0755615,0.2384033,0.2770386,0.4285889,0.5137329,0.5050049c-0.0083885,1.2862473-0.0698462,1.3046284,0.0966187,1.3914795   c0.104187,0.0541992,0.2549438,0.0457764,0.3237915-0.0401611c0.131958-0.1647224-0.0334015-0.7523632-0.0028076-1.3498535   C16.8324394,18.9457054,16.8554344,18.0588627,16.284483,17.7758007z"></path><path d="M37.8935547,50.7516327l-0.0511475,0.0424805c-0.3782349,0.3444824-0.2288208,1.0810547,0.2537231,1.2507324   c0.4825439,0.1699219,1.0603027-0.310791,0.9811401-0.8161621S38.3010254,50.4423065,37.8935547,50.7516327z"></path></g></svg>