<svg xmlns="http://www.w3.org/2000/svg" width="28.76" height="28.76" viewBox="0 0 28.76 28.76">
  <path id="Icon_awesome-twitter" data-name="Icon awesome-twitter" d="M25.8,10.548c.018.315.018.629.018.944,0,9.594-5.931,20.649-16.771,20.649A14.483,14.483,0,0,1,0,28.883a9.928,9.928,0,0,0,1.423.09,10.49,10.49,0,0,0,7.318-3.1C6.15,25.8,3.978,23.715,3.23,20.839a6.073,6.073,0,0,0,1.113.112A5.138,5.138,0,0,0,5.894,20.7c-2.7-.674-4.726-3.6-4.726-7.123v-.09a5.127,5.127,0,0,0,2.664.921A7.808,7.808,0,0,1,1.2,8.369a8.511,8.511,0,0,1,.8-3.662c2.9,4.4,7.263,7.28,12.154,7.594a10.019,10.019,0,0,1-.146-1.663c0-4,2.628-7.257,5.894-7.257a5.435,5.435,0,0,1,4.307,2.292A10.389,10.389,0,0,0,27.957,3.92a7.164,7.164,0,0,1-2.591,4A10.126,10.126,0,0,0,28.76,6.8,14.647,14.647,0,0,1,25.8,10.548Z" transform="translate(0 -3.381)" fill="#0055a5"/>
</svg>
