<svg xmlns="http://www.w3.org/2000/svg" xmlns:xlink="http://www.w3.org/1999/xlink" width="60.062" height="59.564" viewBox="0 0 60.062 59.564">
  <defs>
    <clipPath id="clip-path">
      <rect id="Rectangle_2803" data-name="Rectangle 2803" width="60.062" height="59.564" transform="translate(0 0)" fill="none"/>
    </clipPath>
  </defs>
  <g id="Group_2833" data-name="Group 2833" transform="translate(0 0)">
    <g id="Group_2832" data-name="Group 2832" clip-path="url(#clip-path)">
      <path id="Path_2521" data-name="Path 2521" d="M27.983,48.994,4.4,25.438A14.678,14.678,0,0,1,1.174,9.2,14.667,14.667,0,0,1,14.933,0,14.98,14.98,0,0,1,25.471,4.374l2.493,2.493,2.414-2.405A14.834,14.834,0,0,1,40.913.1,14.657,14.657,0,0,1,54.665,9.282,14.678,14.678,0,0,1,51.44,25.527l-7.54,7.54a1,1,0,0,1-1.414-1.414l7.54-7.54a12.709,12.709,0,0,0,2.791-14.065A12.685,12.685,0,0,0,40.913,2.1,12.848,12.848,0,0,0,31.79,5.878L27.962,9.693,24.056,5.787A12.965,12.965,0,0,0,14.933,2,12.7,12.7,0,0,0,3.022,9.962,12.706,12.706,0,0,0,5.81,24.023L27.983,46.166l7.2-7.208a1,1,0,0,1,1.424,1.4l-.74.75Z" fill="#004695"/>
      <path id="Path_2522" data-name="Path 2522" d="M27.337,32.529,25.45,21.162l-1.816,4.621H17.562a1,1,0,0,1,0-2h4.709l3.968-10.09,1.8,10.822,2.634-7.491,2.224,7.645.464-1.011h5.505a1,1,0,0,1,0,2H34.639l-2.167,4.724-1.984-6.817Z" fill="#004695"/>
      <path id="Path_2523" data-name="Path 2523" d="M47.4,59.564l-.364-.143c-2.365-.928-14.058-6.629-12.066-27.818l.121-1.279,1.211.43c.072.026,7.2,2.5,10.313-1.445l.785-1,.785,1C51.3,33.254,58.43,30.78,58.5,30.754l1.211-.43.121,1.279c1.993,21.189-9.7,26.89-12.064,27.818ZM36.867,33c-1.261,17.838,7.844,23.215,10.537,24.4C50.1,56.216,59.2,50.839,57.943,33c-2.311.583-7.318,1.373-10.539-1.6-3.217,2.977-8.227,2.187-10.537,1.6" fill="#004695"/>
      <path id="Path_2524" data-name="Path 2524" d="M47.4,54.522l-.365-.144c-1.57-.615-9.34-4.393-8.027-18.356l.12-1.275,1.211.427c.045.016,4.422,1.531,6.276-.822l.785-1,.785,1c1.853,2.35,6.231.838,6.276.822l1.209-.427.121,1.275c1.314,13.963-6.455,17.741-8.026,18.356ZM40.912,37.4c-.617,10.7,4.676,14.112,6.491,14.962,1.816-.85,7.109-4.265,6.49-14.962-1.619.35-4.475.634-6.49-1.008-2.014,1.642-4.871,1.358-6.491,1.008" fill="#004695"/>
      <path id="Path_2525" data-name="Path 2525" d="M46.823,47.569l-3.252-3.252A1,1,0,0,1,44.985,42.9l1.838,1.838,4.427-4.427a1,1,0,0,1,1.414,1.414Z" fill="#004695"/>
    </g>
  </g>
</svg>
