<svg xmlns="http://www.w3.org/2000/svg" xmlns:xlink="http://www.w3.org/1999/xlink" width="42.584" height="54.964" viewBox="0 0 42.584 54.964">
  <defs>
    <clipPath id="clip-path">
      <rect id="Rectangle_2809" data-name="Rectangle 2809" width="42.584" height="54.964" fill="none"/>
    </clipPath>
  </defs>
  <g id="Group_3033" data-name="Group 3033" transform="translate(0 0)">
    <g id="Group_2846" data-name="Group 2846" transform="translate(0 0)" clip-path="url(#clip-path)">
      <path id="Path_2577" data-name="Path 2577" d="M33.28,57.843l-.329-.129C30.816,56.876,20.26,51.729,22.058,32.6l.109-1.155,1.093.388c.065.023,6.5,2.255,9.311-1.3l.709-.9.709.9c2.81,3.561,9.245,1.328,9.311,1.3l1.093-.388L44.5,32.6c1.8,19.13-8.757,24.277-10.892,25.115ZM23.766,33.861c-1.138,16.1,7.083,20.959,9.514,22.033,2.432-1.074,10.652-5.93,9.515-22.033-2.086.526-6.608,1.239-9.515-1.448-2.906,2.688-7.427,1.974-9.514,1.448" transform="translate(-2.124 -2.879)" fill="#004695"/>
      <path id="Path_2578" data-name="Path 2578" d="M33.679,53.782l-.33-.13C31.932,53.1,24.917,49.686,26.1,37.08l.108-1.152,1.093.386c.041.014,3.992,1.382,5.666-.741l.709-.9.709.9c1.674,2.123,5.625.756,5.666.741l1.092-.386.109,1.152c1.186,12.606-5.828,16.017-7.246,16.572Zm-5.86-15.461c-.557,9.657,4.222,12.741,5.86,13.508,1.64-.767,6.418-3.851,5.859-13.508-1.462.317-4.04.571-5.859-.91-1.819,1.482-4.4,1.226-5.86.91" transform="translate(-2.524 -3.37)" fill="#004695"/>
      <path id="Path_2579" data-name="Path 2579" d="M33.584,48.152l-2.936-2.936a.9.9,0,1,1,1.277-1.277L33.584,45.6l4-4a.9.9,0,0,1,1.277,1.277Z" transform="translate(-2.953 -4.017)" fill="#004695"/>
      <path id="Path_2580" data-name="Path 2580" d="M22.416,45.321H3.293a3.244,3.244,0,0,1-2.836-1.63,2.992,2.992,0,0,1,.051-3.055l10.5-17.281a1.214,1.214,0,0,0,0-1.276L.446,4.684A2.99,2.99,0,0,1,.394,1.63,3.244,3.244,0,0,1,3.231,0H25.242a3.242,3.242,0,0,1,2.836,1.629,2.991,2.991,0,0,1-.051,3.056l-10.5,17.28a1.21,1.21,0,0,0,0,1.276l4.035,6.643a.9.9,0,1,1-1.543.938l-4.036-6.645a3.033,3.033,0,0,1,0-3.148l10.5-17.282A1.192,1.192,0,0,0,26.5,2.514a1.418,1.418,0,0,0-1.262-.709H3.231a1.418,1.418,0,0,0-1.263.71,1.188,1.188,0,0,0,.021,1.231l10.563,17.4a3.027,3.027,0,0,1,0,3.147L2.052,41.574a1.2,1.2,0,0,0-.021,1.233,1.419,1.419,0,0,0,1.262.709H22.416a.9.9,0,0,1,0,1.806" transform="translate(0 0)" fill="#004695"/>
      <path id="Path_2581" data-name="Path 2581" d="M15.359,21.931a1.549,1.549,0,0,1-1.329-.744l-2.563-4.182a1.559,1.559,0,0,1,1.33-2.374h5.124a1.559,1.559,0,0,1,1.33,2.374l-2.563,4.182a1.549,1.549,0,0,1-1.329.744m.209-1.689v0m-2.332-3.8L15.359,19.9l2.123-3.463Z" transform="translate(-1.092 -1.422)" fill="#004695"/>
      <path id="Path_2582" data-name="Path 2582" d="M21.971,45.123H7.156A2.256,2.256,0,0,1,5.23,41.691l7.692-12.56a2.253,2.253,0,0,1,1.928-1.074h.009a2.237,2.237,0,0,1,1.914,1.076l5.136,8.376a.9.9,0,1,1-1.539.943l-5.138-8.378a.412.412,0,0,0-.382-.212.452.452,0,0,0-.391.217L6.77,42.633a.45.45,0,0,0,.386.684H21.971a.9.9,0,1,1,0,1.806" transform="translate(-0.476 -2.727)" fill="#004695"/>
    </g>
  </g>
</svg>
