<svg xmlns="http://www.w3.org/2000/svg" xmlns:xlink="http://www.w3.org/1999/xlink" width="51.947" height="53" viewBox="0 0 51.947 53">
  <defs>
    <clipPath id="clip-path">
      <rect id="Rectangle_2827" data-name="Rectangle 2827" width="51.947" height="53" fill="none"/>
    </clipPath>
  </defs>
  <g id="Group_3034" data-name="Group 3034" clip-path="url(#clip-path)">
    <path id="Path_2670" data-name="Path 2670" d="M45.624,56.87l-.318-.125c-1.536-.6-6.742-3.162-9.281-10.743a.869.869,0,1,1,1.649-.552c2.145,6.4,6.3,8.814,7.95,9.544,2.343-1.036,10.262-5.714,9.17-21.23-2.009.509-6.364,1.195-9.17-1.4-2.149,1.985-5.214,2.052-7.518,1.714a.87.87,0,0,1,.252-1.721c2.111.308,4.962.244,6.583-1.81l.683-.864.683.864c2.711,3.433,8.912,1.282,8.974,1.259l1.053-.374.106,1.111c1.727,18.432-8.443,23.392-10.5,24.2Z" transform="translate(-4.69 -3.87)" fill="#004695"/>
    <path id="Path_2671" data-name="Path 2671" d="M45.958,53.139l-.317-.125c-1.365-.535-8.123-3.82-6.981-15.962l.1-1.11,1.053.371c.039.013,3.846,1.331,5.458-.714l.683-.866.683.866c1.612,2.045,5.419.727,5.458.714l1.051-.371.105,1.11c1.143,12.14-5.614,15.427-6.98,15.962ZM40.313,38.247c-.537,9.3,4.066,12.272,5.645,13.011,1.579-.74,6.181-3.71,5.644-13.011-1.407.3-3.892.55-5.644-.877-1.754,1.428-4.238,1.18-5.645.877" transform="translate(-5.022 -4.528)" fill="#004695"/>
    <path id="Path_2672" data-name="Path 2672" d="M46.027,47.961,43.2,45.134a.87.87,0,0,1,1.23-1.23l1.6,1.6,3.851-3.85a.87.87,0,0,1,1.23,1.23Z" transform="translate(-5.598 -5.396)" fill="#004695"/>
    <path id="Path_2673" data-name="Path 2673" d="M30.934,43.03H3.479A3.482,3.482,0,0,1,0,39.551V3.479A3.482,3.482,0,0,1,3.479,0H30.934a3.482,3.482,0,0,1,3.479,3.479V30.351l-.99-.139a15.938,15.938,0,0,1-1.649-.32,30.083,30.083,0,0,0,1.211,11.687l.237.7-.658.344a3.532,3.532,0,0,1-1.63.4M3.479,1.739A1.741,1.741,0,0,0,1.739,3.479V39.551A1.741,1.741,0,0,0,3.479,41.29H30.934c.044,0,.09,0,.135,0a33.541,33.541,0,0,1-.938-12.607l.1-1.115,1.055.377a11.851,11.851,0,0,0,1.384.373V3.479a1.741,1.741,0,0,0-1.739-1.739Z" transform="translate(0 0)" fill="#004695"/>
    <path id="Path_2674" data-name="Path 2674" d="M12.4,16.594a.869.869,0,0,1-.87-.87V7.586a.87.87,0,1,1,1.739,0v8.139a.869.869,0,0,1-.87.87" transform="translate(-1.503 -0.876)" fill="#004695"/>
    <path id="Path_2675" data-name="Path 2675" d="M15.857,13.135H7.719a.87.87,0,0,1,0-1.739h8.138a.87.87,0,1,1,0,1.739" transform="translate(-0.893 -1.486)" fill="#004695"/>
    <path id="Path_2676" data-name="Path 2676" d="M30.722,12.293H23.859a.87.87,0,0,1,0-1.739h6.863a.87.87,0,0,1,0,1.739" transform="translate(-2.997 -1.376)" fill="#004695"/>
    <path id="Path_2677" data-name="Path 2677" d="M30.722,17.923H23.859a.87.87,0,0,1,0-1.739h6.863a.87.87,0,0,1,0,1.739" transform="translate(-2.997 -2.11)" fill="#004695"/>
    <path id="Path_2678" data-name="Path 2678" d="M28.648,23.64H7.946a.87.87,0,1,1,0-1.739h20.7a.87.87,0,0,1,0,1.739" transform="translate(-0.922 -2.855)" fill="#004695"/>
    <path id="Path_2679" data-name="Path 2679" d="M28.648,29.27H7.946a.87.87,0,1,1,0-1.739h20.7a.87.87,0,0,1,0,1.739" transform="translate(-0.922 -3.589)" fill="#004695"/>
  </g>
</svg>
