<svg xmlns="http://www.w3.org/2000/svg" xmlns:xlink="http://www.w3.org/1999/xlink" width="59.892" height="57.807" viewBox="0 0 59.892 57.807">
  <defs>
    <clipPath id="clip-path">
      <rect id="Rectangle_2805" data-name="Rectangle 2805" width="59.892" height="57.807" transform="translate(0 0)" fill="none"/>
    </clipPath>
  </defs>
  <g id="Group_2837" data-name="Group 2837" transform="translate(0 0)">
    <g id="Group_2836" data-name="Group 2836" clip-path="url(#clip-path)">
      <path id="Path_2536" data-name="Path 2536" d="M45.739,20.976H27.349a1,1,0,0,1,0-2h18.39a2,2,0,0,0,2-2V8.415a2,2,0,0,0-2-2H4a2,2,0,0,0-2,2v8.561a2,2,0,0,0,2,2H22.88a1,1,0,0,1,0,2H4a4,4,0,0,1-4-4V8.415a4,4,0,0,1,4-4H45.739a4,4,0,0,1,4,4v8.561a4,4,0,0,1-4,4" fill="#004695"/>
      <path id="Path_2537" data-name="Path 2537" d="M30.13,6.415a1,1,0,0,1-1-1V3.068A1.069,1.069,0,0,0,28.062,2h-6.4a1.069,1.069,0,0,0-1.068,1.068V5.415a1,1,0,0,1-2,0V3.068A3.071,3.071,0,0,1,21.662,0h6.4A3.071,3.071,0,0,1,31.13,3.068V5.415a1,1,0,0,1-1,1" fill="#004695"/>
      <path id="Path_2538" data-name="Path 2538" d="M36.6,44.176H5.39a4.109,4.109,0,0,1-4.1-4.109V19.987a1,1,0,0,1,2,0v20.08a2.107,2.107,0,0,0,2.1,2.109H36.6a1,1,0,1,1,0,2" fill="#004695"/>
      <path id="Path_2539" data-name="Path 2539" d="M47.529,29.517a1,1,0,0,1-1-1v-8.53a1,1,0,0,1,2,0v8.53a1,1,0,0,1-1,1" fill="#004695"/>
      <path id="Path_2540" data-name="Path 2540" d="M47.236,57.806l-.365-.143c-2.364-.927-14.059-6.623-12.065-27.818l.121-1.279,1.211.43c.073.026,7.2,2.5,10.313-1.445l.785-1,.785,1C51.144,31.509,58.26,29.021,58.332,29l1.212-.434.12,1.282c1.994,21.193-9.7,26.891-12.063,27.818ZM36.7,31.243C35.437,49.087,44.543,54.46,47.236,55.649c2.693-1.189,11.8-6.564,10.537-24.406-2.31.583-7.318,1.371-10.537-1.6-3.222,2.978-8.228,2.187-10.538,1.6" fill="#004695"/>
      <path id="Path_2541" data-name="Path 2541" d="M47.234,52.765l-.365-.144c-1.57-.615-9.34-4.393-8.025-18.356l.12-1.276,1.21.427c.045.016,4.422,1.528,6.275-.82l.785-1,.785,1c1.857,2.351,6.233.836,6.277.82l1.209-.427.122,1.276C56.939,48.228,49.17,52.006,47.6,52.621Zm-6.49-17.124c-.618,10.7,4.675,14.111,6.49,14.961,1.816-.85,7.109-4.264,6.491-14.962-1.62.353-4.476.634-6.491-1.007-2.016,1.643-4.872,1.358-6.49,1.008" fill="#004695"/>
      <path id="Path_2542" data-name="Path 2542" d="M46.653,45.811,43.4,42.56a1,1,0,0,1,1.414-1.414l1.838,1.837,4.427-4.427a1,1,0,0,1,1.414,1.414Z" fill="#004695"/>
      <path id="Path_2543" data-name="Path 2543" d="M25.85,24.411H24.382a2.5,2.5,0,0,1-2.5-2.5V17.72a2.5,2.5,0,0,1,2.5-2.5H25.85a2.5,2.5,0,0,1,2.5,2.5v4.191a2.5,2.5,0,0,1-2.5,2.5M24.382,17.22a.5.5,0,0,0-.5.5v4.191a.5.5,0,0,0,.5.5H25.85a.5.5,0,0,0,.5-.5V17.72a.5.5,0,0,0-.5-.5Z" fill="#004695"/>
    </g>
  </g>
</svg>
