<svg xmlns="http://www.w3.org/2000/svg" xmlns:xlink="http://www.w3.org/1999/xlink" width="49" height="49" viewBox="0 0 49 49">
  <defs>
    <clipPath id="clip-path">
      <rect id="Rectangle_2836" data-name="Rectangle 2836" width="25.72" height="29.667" fill="none"/>
    </clipPath>
  </defs>
  <g id="Group_2826" data-name="Group 2826" transform="translate(-274 -5601)">
    <g id="Group_3124" data-name="Group 3124">
      <circle id="Ellipse_267" data-name="Ellipse 267" cx="24.5" cy="24.5" r="24.5" transform="translate(274 5601)" fill="#e9f4ff"/>
      <g id="Group_3123" data-name="Group 3123" transform="translate(286 5610.998)">
        <g id="Group_3122" data-name="Group 3122" transform="translate(0 0)" clip-path="url(#clip-path)">
          <path id="Path_2699" data-name="Path 2699" d="M11.638,35.446a.5.5,0,0,1-.5-.5v-7.78a.5.5,0,0,1,.992,0V34.95a.5.5,0,0,1-.5.5" transform="translate(-6.561 -15.706)" fill="#004695"/>
          <path id="Path_2700" data-name="Path 2700" d="M34.952,51.1a7.142,7.142,0,1,1,7.141-7.143h0A7.151,7.151,0,0,1,34.952,51.1m0-13.292a6.15,6.15,0,1,0,6.15,6.15,6.15,6.15,0,0,0-6.15-6.15" transform="translate(-16.374 -21.674)" fill="#004695"/>
          <text id="_" data-name="₹" transform="translate(15.479 25.601)" fill="#004695" font-size="10" font-family="MyriadPro-Regular, Myriad Pro"><tspan x="0" y="0">₹</tspan></text>
          <path id="Path_2701" data-name="Path 2701" d="M15.947,6.4a3.2,3.2,0,1,1,3.2-3.2,3.2,3.2,0,0,1-3.2,3.2m0-5.414A2.21,2.21,0,1,0,18.153,3.2,2.21,2.21,0,0,0,15.947.989" transform="translate(-7.505 0)" fill="#004695"/>
          <path id="Path_2702" data-name="Path 2702" d="M1.826,28.381a1.615,1.615,0,0,1-.465-.068l-.156-.047a1.5,1.5,0,0,1-.444-.2,1.429,1.429,0,0,1-.626-1.112v-.1L3.4,17.729a1.95,1.95,0,0,1,1.557-1.242.5.5,0,0,1,.154.98.973.973,0,0,0-.777.6l-3.2,8.918a.447.447,0,0,0,.189.259.514.514,0,0,0,.152.073l.168.05a.621.621,0,0,0,.476-.05v-.265h.151l2.286-6.4a.5.5,0,0,1,.934.333l-2.378,6.66v.094l-.056.062-.085.238H2.82a1.582,1.582,0,0,1-.993.346" transform="translate(-0.08 -9.704)" fill="#004695"/>
          <path id="Path_2703" data-name="Path 2703" d="M27.271,36.137H27.1a1.537,1.537,0,0,1-1.42-.966l-.038-.091v-7.9a.5.5,0,0,1,.992,0v7.686a.542.542,0,0,0,.466.277h.163a.844.844,0,0,0,.125-.014.5.5,0,0,1,.147.981,1.772,1.772,0,0,1-.272.025" transform="translate(-15.1 -15.713)" fill="#004695"/>
          <path id="Path_2704" data-name="Path 2704" d="M19.534,28.646a.5.5,0,0,1-.5-.5V18.467a1.012,1.012,0,0,0-.817-.985l-.289-.017h-6.6a.5.5,0,1,1,0-.992l7.028.027a1.987,1.987,0,0,1,1.663,1.966v9.683a.5.5,0,0,1-.5.5" transform="translate(-6.381 -9.699)" fill="#004695"/>
          <path id="Path_2705" data-name="Path 2705" d="M12.741,53.584H12.58a1.476,1.476,0,0,1-.414-.06h-.01l-.085-.03a1.523,1.523,0,0,1-.93-.931l-.028-.08V41.935a1.373,1.373,0,0,1,.021-.281.5.5,0,0,1,.488-.423.485.485,0,0,1,.5.473v.009l-.011.133a.64.64,0,0,0,0,.089V52.3a.537.537,0,0,0,.275.251l.025.008a.528.528,0,0,0,.176.033h.162a.549.549,0,0,0,.466-.267V44.142L16,44.107v8.2a.54.54,0,0,0,.468.268h.162a.655.655,0,0,0,.195-.034.547.547,0,0,0,.277-.255l-.012-2.65V41.19a.5.5,0,1,1,.992,0L18.1,52.457l-.029.082a1.533,1.533,0,0,1-.93.937l-.1.03a1.577,1.577,0,0,1-.409.055h-.16a1.532,1.532,0,0,1-1.385-.875l-.076-.079v-7.5l-.8.011V52.64l-.085.081a1.539,1.539,0,0,1-1.378.864" transform="translate(-6.543 -23.961)" fill="#004695"/>
          <path id="Path_2706" data-name="Path 2706" d="M.5,54.852a.5.5,0,0,1-.5-.5V44.988A1.855,1.855,0,0,1,1.81,43.094a1.855,1.855,0,0,1,1.81,1.894V45.8a.5.5,0,0,1-.992,0v-.811a.864.864,0,0,0-.817-.9.864.864,0,0,0-.817.9v9.369a.5.5,0,0,1-.5.5" transform="translate(0 -25.374)" fill="#004695"/>
        </g>
      </g>
    </g>
  </g>
</svg>
