<svg xmlns="http://www.w3.org/2000/svg" xmlns:xlink="http://www.w3.org/1999/xlink" width="64.195" height="69.373" viewBox="0 0 64.195 69.373">
  <defs>
    <clipPath id="clip-path">
      <rect id="Rectangle_2806" data-name="Rectangle 2806" width="64.195" height="69.373" transform="translate(0 0)" fill="none"/>
    </clipPath>
  </defs>
  <g id="Group_2842" data-name="Group 2842" transform="translate(0 0)">
    <g id="Group_2839" data-name="Group 2839">
      <g id="Group_2838" data-name="Group 2838" clip-path="url(#clip-path)">
        <path id="Path_2544" data-name="Path 2544" d="M19.261,40.058a8.117,8.117,0,1,1,8.117-8.117,8.127,8.127,0,0,1-8.117,8.117m0-14.734a6.617,6.617,0,1,0,6.617,6.617,6.626,6.626,0,0,0-6.617-6.617" fill="#004695"/>
        <path id="Path_2545" data-name="Path 2545" d="M25.62,69.373a4.177,4.177,0,0,1-1.272-.2l-9.239-2.938.606-1.906,9.239,2.937a2.247,2.247,0,0,0,1.451-.03l34.7-15.031A1.544,1.544,0,0,0,62.1,50.16l-.293-.922a2.094,2.094,0,0,0-2.519-1.2L40.55,52.967l-.51-1.934L58.78,46.1a4.082,4.082,0,0,1,4.93,2.533l.293.921a3.515,3.515,0,0,1-2.154,4.512L27.146,69.1a4.438,4.438,0,0,1-1.526.275" fill="#004795"/>
        <path id="Path_2546" data-name="Path 2546" d="M36.582,59.608a4.222,4.222,0,0,1-1.125-.152L21.118,55.5a1,1,0,0,1,.533-1.928l14.336,3.957a2.06,2.06,0,0,0,2.528-1.174l.94-2.828a1.433,1.433,0,0,0-.063-1.1,1.9,1.9,0,0,0-1.256-1.037l-16.1-4.441H15.412a1,1,0,1,1,0-2l7.029.036,16.228,4.477a3.892,3.892,0,0,1,2.536,2.121,3.431,3.431,0,0,1,.148,2.571l-.94,2.826a4,4,0,0,1-3.831,2.624" fill="#004695"/>
        <path id="Path_2547" data-name="Path 2547" d="M12.412,69.213H4a4,4,0,0,1-4-4V45.679a4,4,0,0,1,4-4h8.412a4,4,0,0,1,4,4V65.213a4,4,0,0,1-4,4M4,43.679a2,2,0,0,0-2,2V65.213a2,2,0,0,0,2,2h8.412a2,2,0,0,0,2-2V45.679a2,2,0,0,0-2-2Z" fill="#004795"/>
        <path id="Path_2548" data-name="Path 2548" d="M43.972,45.662l-.274-.107c-1.684-.661-10.009-4.722-8.593-19.8L35.2,24.8l.908.323c.051.018,5.088,1.765,7.279-1.014l.589-.746.589.746c2.192,2.78,7.228,1.032,7.278,1.014l.908-.322.091.958c1.418,15.074-6.908,19.135-8.591,19.8ZM36.525,26.806c-.871,12.568,5.523,16.382,7.447,17.237,1.924-.855,8.319-4.669,7.447-17.237-1.662.413-5.168.943-7.447-1.135-2.279,2.078-5.787,1.548-7.447,1.135" fill="#004695"/>
        <path id="Path_2549" data-name="Path 2549" d="M43.971,42.083l-.274-.107c-1.12-.441-6.659-3.14-5.725-13.077l.091-.957.907.32c.032.012,3.115,1.077,4.412-.569l.589-.747.589.747c1.3,1.646,4.381.581,4.412.569l.906-.32.092.957c.935,9.937-4.6,12.636-5.724,13.077ZM39.4,29.928c-.417,7.5,3.276,9.918,4.572,10.532,1.3-.614,4.99-3.035,4.573-10.532a5.617,5.617,0,0,1-4.573-.713,5.62,5.62,0,0,1-4.572.713" fill="#004695"/>
      </g>
    </g>
    <text id="_" data-name="$" transform="translate(16.575 35.401)" fill="#1a1818" font-size="9.344" font-family="Roboto-Thin, Roboto" font-weight="200"><tspan x="0" y="0">$</tspan></text>
    <g id="Group_2841" data-name="Group 2841">
      <g id="Group_2840" data-name="Group 2840" clip-path="url(#clip-path)">
        <path id="Path_2550" data-name="Path 2550" d="M20.431,34.841a1.727,1.727,0,0,1-1.182.41,1.967,1.967,0,0,1-1.371-.455,1.614,1.614,0,0,1-.5-1.261h-.246a1.872,1.872,0,0,0,.529,1.412,2.181,2.181,0,0,0,1.5.55v.854H19.4v-.859A1.931,1.931,0,0,0,20.67,35a1.547,1.547,0,0,0,.472-1.175,1.694,1.694,0,0,0-.107-.634,1.441,1.441,0,0,0-.326-.489,2.124,2.124,0,0,0-.552-.385,8.214,8.214,0,0,0-.958-.381,4.971,4.971,0,0,1-.97-.427,1.375,1.375,0,0,1-.492-.472,1.426,1.426,0,0,1-.149-.707,1.313,1.313,0,0,1,.445-1.026,1.711,1.711,0,0,1,1.184-.4,1.562,1.562,0,0,1,1.2.473,1.755,1.755,0,0,1,.441,1.247h.246a2.026,2.026,0,0,0-.456-1.4,1.776,1.776,0,0,0-1.3-.56v-.852H19.1v.852a1.917,1.917,0,0,0-1.273.477,1.547,1.547,0,0,0-.488,1.193,1.641,1.641,0,0,0,.167.775,1.559,1.559,0,0,0,.513.56,4.717,4.717,0,0,0,1.079.492,5.9,5.9,0,0,1,1.106.482,1.485,1.485,0,0,1,.532.5,1.346,1.346,0,0,1,.157.685A1.294,1.294,0,0,1,20.431,34.841Z" fill="none" stroke="#004695" stroke-width="1"/>
        <path id="Path_2551" data-name="Path 2551" d="M39.208,18.74H25.163V11.085a1.479,1.479,0,0,1-1.376-.384l-.319-.322a1.463,1.463,0,0,1,0-2.067L31.33.428a1.471,1.471,0,0,1,2.072,0L41.055,8.1a1.467,1.467,0,0,1,0,2.071l-.316.316a1.465,1.465,0,0,1-1.55.334ZM26.6,17.3H37.767L37.75,7.528l1.936,1.945.352-.317L32.385,1.443l-7.9,7.883.315.36L26.6,7.91Z" fill="#004695"/>
        <path id="Path_2552" data-name="Path 2552" d="M33.542,19.531a.75.75,0,0,1-.75-.75v-4.89A.189.189,0,0,0,32.6,13.7H31.051a.187.187,0,0,0-.189.188v4.89a.75.75,0,0,1-1.5,0v-4.89A1.691,1.691,0,0,1,31.051,12.2H32.6a1.691,1.691,0,0,1,1.689,1.688v4.89a.751.751,0,0,1-.75.75" fill="#004695"/>
        <path id="Path_2553" data-name="Path 2553" d="M25.882,10.37a.719.719,0,0,1-.508-1.227l6.187-6.187a1.16,1.16,0,0,1,.826-.343h0a1.159,1.159,0,0,1,.826.343l5.78,5.781a.718.718,0,1,1-1.015,1.016L32.387,4.162l-6,6a.713.713,0,0,1-.508.211" fill="#004695"/>
        <path id="Path_2554" data-name="Path 2554" d="M31.378,13.213,31.3,12.5l.014-.719c.261-.025.595-.044.927-.052a.7.7,0,0,1,.734.7.72.72,0,0,1-.7.734c-.3.006-.6.024-.895.05" fill="#004695"/>
        <path id="Path_2555" data-name="Path 2555" d="M33.335,13.195a6.723,6.723,0,0,0-.879-.034.753.753,0,0,1-.757-.7.686.686,0,0,1,.657-.739l.122,0c.309,0,.611.008.913.038a.725.725,0,0,1,.655.75.713.713,0,0,1-.711.684" fill="#004695"/>
        <path id="Path_2556" data-name="Path 2556" d="M20.552,24.061A.96.96,0,0,1,19.6,23a12.954,12.954,0,0,1,.263-1.531.958.958,0,1,1,1.865.438,11.188,11.188,0,0,0-.224,1.3.957.957,0,0,1-.951.853" fill="#004695"/>
        <path id="Path_2557" data-name="Path 2557" d="M21.81,19.89a.948.948,0,0,1-.439-.107.959.959,0,0,1-.411-1.291,13.113,13.113,0,0,1,1-1.623.959.959,0,0,1,1.555,1.122,11.066,11.066,0,0,0-.849,1.381.956.956,0,0,1-.852.518" fill="#004695"/>
        <path id="Path_2558" data-name="Path 2558" d="M24.728,16.234a.958.958,0,0,1-.62-1.689,12.9,12.9,0,0,1,1.244-.93.958.958,0,1,1,1.053,1.6,11.112,11.112,0,0,0-1.058.791.954.954,0,0,1-.619.227" fill="#004695"/>
        <path id="Path_2559" data-name="Path 2559" d="M39.67,15.8a.956.956,0,0,1-.574-.191,10.741,10.741,0,0,0-1.1-.729.959.959,0,0,1,.959-1.66,13.226,13.226,0,0,1,1.295.855A.958.958,0,0,1,39.67,15.8" fill="#004695"/>
        <path id="Path_2560" data-name="Path 2560" d="M43.292,20.188a.958.958,0,0,1-.864-.542,10.825,10.825,0,0,0-1.017-1.695.958.958,0,0,1,1.547-1.131,12.8,12.8,0,0,1,1.2,1.994.957.957,0,0,1-.447,1.279.946.946,0,0,1-.415.095" fill="#004695"/>
        <path id="Path_2561" data-name="Path 2561" d="M44.472,25.042a.958.958,0,0,1-.957-.931,11.126,11.126,0,0,0-.116-1.317.958.958,0,0,1,.8-1.09.944.944,0,0,1,1.09.805,13.128,13.128,0,0,1,.138,1.548.959.959,0,0,1-.931.985Z" fill="#004695"/>
        <path id="Path_2562" data-name="Path 2562" d="M27.165,38.061a.993.993,0,0,1-.382-.076,13.246,13.246,0,0,1-1.457-.711,1,1,0,1,1,.984-1.74,11.5,11.5,0,0,0,1.238.6,1,1,0,0,1-.383,1.924" fill="#004695"/>
        <path id="Path_2563" data-name="Path 2563" d="M31.953,39.01a13.79,13.79,0,0,1-1.937-.138,1,1,0,0,1,.284-1.98A12.357,12.357,0,0,0,32.447,37a.966.966,0,0,1,1.038.96A1,1,0,0,1,32.524,39c-.189.008-.379.012-.571.012" fill="#004695"/>
        <path id="Path_2564" data-name="Path 2564" d="M35.553,38.484a1,1,0,0,1-.287-1.958,11.168,11.168,0,0,0,1.291-.477,1,1,0,0,1,.805,1.832,13.148,13.148,0,0,1-1.522.561,1.023,1.023,0,0,1-.287.042" fill="#004695"/>
      </g>
    </g>
  </g>
</svg>
