<svg xmlns="http://www.w3.org/2000/svg" xmlns:xlink="http://www.w3.org/1999/xlink" width="57.25" height="59.799" viewBox="0 0 57.25 59.799">
  <defs>
    <clipPath id="clip-path">
      <rect id="Rectangle_2825" data-name="Rectangle 2825" width="57.25" height="59.799" transform="translate(0 0)" fill="none"/>
    </clipPath>
  </defs>
  <g id="Group_3012" data-name="Group 3012" transform="translate(0 0)">
    <g id="Group_3011" data-name="Group 3011" clip-path="url(#clip-path)">
      <path id="Path_2636" data-name="Path 2636" d="M53.73,29.327H3.519a3.512,3.512,0,0,1-2.625-1.18,3.552,3.552,0,0,1-.87-2.777,28.806,28.806,0,0,1,57.2,0,3.552,3.552,0,0,1-.871,2.777,3.512,3.512,0,0,1-2.624,1.18M28.624,2A26.8,26.8,0,0,0,2.011,25.606a1.548,1.548,0,0,0,.378,1.213,1.491,1.491,0,0,0,1.13.508H53.73a1.489,1.489,0,0,0,1.129-.508,1.55,1.55,0,0,0,.379-1.213A26.8,26.8,0,0,0,28.624,2" fill="#004695"/>
      <path id="Path_2637" data-name="Path 2637" d="M40.513,29.327h-37a1,1,0,1,1,0-2h37a1.361,1.361,0,0,0,1.008-.482,2.153,2.153,0,0,0,.5-1.643c-1.039-9.908-6.27-18.636-13.992-23.348A1,1,0,1,1,29.07.147C37.322,5.181,42.907,14.47,44.009,24.993a4.109,4.109,0,0,1-1,3.189,3.331,3.331,0,0,1-2.494,1.145" fill="#004695"/>
      <path id="Path_2638" data-name="Path 2638" d="M53.732,29.327H3.518a1,1,0,1,1,0-2H53.732a1,1,0,0,1,0,2" fill="#004695"/>
      <path id="Path_2639" data-name="Path 2639" d="M53.732,29.327H15.793A3.335,3.335,0,0,1,13.3,28.182a4.117,4.117,0,0,1-1-3.189C13.393,14.541,18.917,5.3,27.081.243L27.116.2l.141-.07a1,1,0,0,1,1.168,1.609.166.166,0,0,1-.019.018l-.155.11C20.544,6.59,15.323,15.31,14.285,25.2a2.149,2.149,0,0,0,.5,1.643,1.361,1.361,0,0,0,1.008.482H53.732a1,1,0,0,1,0,2" fill="#004695"/>
      <path id="Path_2640" data-name="Path 2640" d="M27.756,29.327a1,1,0,0,1-1-1V1.019a1.008,1.008,0,0,1,1-1.009.991.991,0,0,1,1,.991V28.327a1,1,0,0,1-1,1" fill="#004695"/>
      <path id="Path_2641" data-name="Path 2641" d="M27.7,40.375a3.11,3.11,0,0,1-3.106-3.1V28.327a1,1,0,0,1,2,0V37.27a1.106,1.106,0,0,0,2.211,0V28.327a1,1,0,0,1,2,0V37.27a3.109,3.109,0,0,1-3.1,3.1" fill="#004695"/>
      <path id="Path_2642" data-name="Path 2642" d="M43.719,47.506a4.921,4.921,0,1,1,4.921-4.921,4.926,4.926,0,0,1-4.921,4.921m0-7.842a2.921,2.921,0,1,0,2.921,2.921,2.925,2.925,0,0,0-2.921-2.921" fill="#004695"/>
      <path id="Path_2643" data-name="Path 2643" d="M36.17,59.629a1,1,0,0,1-1-1V50.615a3.138,3.138,0,0,1,2.652-3.121,1,1,0,1,1,.313,1.975,1.163,1.163,0,0,0-.965,1.146v8.014a1,1,0,0,1-1,1" fill="#004695"/>
      <path id="Path_2644" data-name="Path 2644" d="M39.213,59.629a1,1,0,0,1-1-1v-4.1a1,1,0,0,1,2,0v4.1a1,1,0,0,1-1,1" fill="#004695"/>
      <path id="Path_2645" data-name="Path 2645" d="M50.9,59.629a1,1,0,0,1-1-1V50.658A1.166,1.166,0,0,0,48.93,49.5l-.364-.023-10.522.009a1,1,0,1,1-.387-1.963l.322-.043,11.192.037A3.177,3.177,0,0,1,51.9,50.658v7.971a1,1,0,0,1-1,1" fill="#004695"/>
      <path id="Path_2646" data-name="Path 2646" d="M47.861,59.629a1,1,0,0,1-1-1V54.567a1,1,0,0,1,2,0v4.062a1,1,0,0,1-1,1" fill="#004695"/>
      <path id="Path_2647" data-name="Path 2647" d="M50.9,59.629H36.171a1,1,0,0,1,0-2H50.9a1,1,0,0,1,0,2" fill="#004695"/>
      <path id="Path_2648" data-name="Path 2648" d="M23.3,59.787a.75.75,0,0,1-.75-.75V53.976a2.1,2.1,0,0,1,1.774-2.088.75.75,0,0,1,.235,1.482.614.614,0,0,0-.509.606v5.061a.75.75,0,0,1-.75.75" fill="#004695"/>
      <path id="Path_2649" data-name="Path 2649" d="M25.223,59.787a.75.75,0,0,1-.75-.75V56.45a.75.75,0,0,1,1.5,0v2.587a.75.75,0,0,1-.75.75" fill="#004695"/>
      <path id="Path_2650" data-name="Path 2650" d="M32.6,59.787a.75.75,0,0,1-.75-.75V54a.617.617,0,0,0-.516-.613l-.219-.014-6.654,0a.778.778,0,0,1-.8-.591.716.716,0,0,1,.544-.877l.231-.032,7.076.023A2.129,2.129,0,0,1,33.355,54v5.033a.75.75,0,0,1-.75.75" fill="#004695"/>
      <path id="Path_2651" data-name="Path 2651" d="M30.683,59.787a.75.75,0,0,1-.75-.75V56.472a.75.75,0,0,1,1.5,0v2.565a.75.75,0,0,1-.75.75" fill="#004695"/>
      <path id="Path_2652" data-name="Path 2652" d="M8.963,42.762a1,1,0,0,1-.868-1.5l.557-.977a1.024,1.024,0,0,1,1.353-.408.98.98,0,0,1,.436,1.308,1.381,1.381,0,0,1-.072.124h0l-.535.943a1,1,0,0,1-.87.505" fill="#004695"/>
      <path id="Path_2653" data-name="Path 2653" d="M13.91,47.493H11.578a1,1,0,0,1,0-2H13.91a1,1,0,0,1,0,2" fill="#004695"/>
      <path id="Path_2654" data-name="Path 2654" d="M16.507,42.659a1,1,0,0,1-.87-.505l-.5-.875a1,1,0,0,1,1.519-1.295,1.54,1.54,0,0,1,.221.311l.5.869a1,1,0,0,1-.868,1.495" fill="#004695"/>
      <path id="Path_2655" data-name="Path 2655" d="M7.872,59.8a1,1,0,0,1-1-1V54.728a1,1,0,1,1,2,0V58.8a1,1,0,0,1-1,1" fill="#004695"/>
      <path id="Path_2656" data-name="Path 2656" d="M4.837,59.8a1,1,0,0,1-1-1V50.785a3.138,3.138,0,0,1,2.652-3.121A1,1,0,1,1,6.8,49.639a1.163,1.163,0,0,0-.965,1.146V58.8a1,1,0,0,1-1,1" fill="#004695"/>
      <path id="Path_2657" data-name="Path 2657" d="M7.88,59.8a1,1,0,0,1-1-1V54.7a1,1,0,0,1,2,0v4.1a1,1,0,0,1-1,1" fill="#004695"/>
      <path id="Path_2658" data-name="Path 2658" d="M19.571,59.8a1,1,0,0,1-1-1V50.828a1.165,1.165,0,0,0-.973-1.156l-.365-.023-10.521.009a1,1,0,0,1-.388-1.963l.322-.043,11.192.037a3.175,3.175,0,0,1,2.733,3.139V58.8a1,1,0,0,1-1,1" fill="#004695"/>
      <path id="Path_2659" data-name="Path 2659" d="M16.528,59.8a1,1,0,0,1-1-1V54.737a1,1,0,1,1,2,0V58.8a1,1,0,0,1-1,1" fill="#004695"/>
      <path id="Path_2660" data-name="Path 2660" d="M19.571,59.8H4.838a1,1,0,0,1,0-2H19.571a1,1,0,1,1,0,2" fill="#004695"/>
      <path id="Path_2661" data-name="Path 2661" d="M16,47.493H9.531a2.9,2.9,0,0,1-2.515-4.357l1.64-2.847a4.768,4.768,0,0,1,3.5-2.424,4.979,4.979,0,0,1,2.321.282,4.712,4.712,0,0,1,2.368,2.1l1.666,2.887A2.906,2.906,0,0,1,16,47.493m-3.255-7.662a2.646,2.646,0,0,0-.346.021,2.758,2.758,0,0,0-2.007,1.432L8.747,44.136a.9.9,0,0,0,.784,1.357H16a.905.905,0,0,0,.784-1.358l-1.669-2.893a2.712,2.712,0,0,0-1.341-1.224,2.9,2.9,0,0,0-1.029-.187" fill="#004695"/>
      <path id="Path_2662" data-name="Path 2662" d="M27.859,52.116A3.913,3.913,0,1,1,31.771,48.2a3.917,3.917,0,0,1-3.912,3.912m0-5.825A1.913,1.913,0,1,0,29.771,48.2a1.915,1.915,0,0,0-1.912-1.913" fill="#004695"/>
    </g>
  </g>
</svg>
