<svg xmlns="http://www.w3.org/2000/svg" xmlns:xlink="http://www.w3.org/1999/xlink" width="59.733" height="60.944" viewBox="0 0 59.733 60.944">
  <defs>
    <clipPath id="clip-path">
      <rect id="Rectangle_2804" data-name="Rectangle 2804" width="59.733" height="60.944" transform="translate(0 0)" fill="none"/>
    </clipPath>
  </defs>
  <g id="Group_2835" data-name="Group 2835" transform="translate(0 0)">
    <g id="Group_2834" data-name="Group 2834" clip-path="url(#clip-path)">
      <path id="Path_2526" data-name="Path 2526" d="M47.07,60.944,46.7,60.8c-1.766-.694-7.752-3.636-10.672-12.353a1,1,0,1,1,1.9-.635c2.466,7.361,7.242,10.135,9.142,10.974,2.694-1.191,11.8-6.571,10.544-24.412-2.31.585-7.318,1.374-10.544-1.606-2.471,2.283-6,2.36-8.645,1.971a1,1,0,0,1,.29-1.979c2.427.354,5.706.281,7.57-2.081l.785-.993.785.993c3.117,3.948,10.248,1.474,10.319,1.448l1.211-.43.122,1.278C61.493,54.17,49.8,59.873,47.435,60.8Z" fill="#004695"/>
      <path id="Path_2527" data-name="Path 2527" d="M47.071,55.9l-.365-.144c-1.57-.615-9.34-4.393-8.027-18.355l.12-1.276,1.211.427c.045.015,4.423,1.53,6.276-.821l.785-1,.785,1c1.854,2.351,6.231.836,6.276.821l1.209-.427.121,1.276c1.314,13.96-6.455,17.739-8.026,18.355ZM40.58,38.774c-.617,10.7,4.676,14.111,6.491,14.961,1.816-.851,7.108-4.266,6.49-14.961-1.618.35-4.475.633-6.49-1.008-2.017,1.642-4.873,1.357-6.491,1.008" fill="#004695"/>
      <path id="Path_2528" data-name="Path 2528" d="M46.489,48.945l-3.251-3.251a1,1,0,0,1,1.414-1.414l1.837,1.837,4.428-4.427A1,1,0,0,1,52.331,43.1Z" fill="#004695"/>
      <path id="Path_2529" data-name="Path 2529" d="M35.57,49.479H4a4,4,0,0,1-4-4V4A4,4,0,0,1,4,0H35.57a4,4,0,0,1,4,4V34.9l-1.138-.16a18.327,18.327,0,0,1-1.9-.368,34.592,34.592,0,0,0,1.392,13.439l.273.809-.757.4a4.062,4.062,0,0,1-1.874.463M4,2A2,2,0,0,0,2,4V45.479a2,2,0,0,0,2,2H35.57c.051,0,.1,0,.155-.005a38.569,38.569,0,0,1-1.079-14.5l.12-1.282,1.213.434a13.627,13.627,0,0,0,1.591.429V4a2,2,0,0,0-2-2Z" fill="#004695"/>
      <path id="Path_2530" data-name="Path 2530" d="M12.527,18.075a1,1,0,0,1-1-1V7.716a1,1,0,0,1,2,0v9.359a1,1,0,0,1-1,1" fill="#004695"/>
      <path id="Path_2531" data-name="Path 2531" d="M17.207,13.4H7.849a1,1,0,0,1,0-2h9.358a1,1,0,0,1,0,2" fill="#004695"/>
      <path id="Path_2532" data-name="Path 2532" d="M31.881,12.554H23.989a1,1,0,0,1,0-2h7.892a1,1,0,0,1,0,2" fill="#004695"/>
      <path id="Path_2533" data-name="Path 2533" d="M31.881,18.184H23.989a1,1,0,0,1,0-2h7.892a1,1,0,0,1,0,2" fill="#004695"/>
      <path id="Path_2534" data-name="Path 2534" d="M31.881,23.9H8.076a1,1,0,0,1,0-2H31.881a1,1,0,0,1,0,2" fill="#004695"/>
      <path id="Path_2535" data-name="Path 2535" d="M31.881,29.531H8.076a1,1,0,0,1,0-2H31.881a1,1,0,0,1,0,2" fill="#004695"/>
    </g>
  </g>
</svg>
