<svg id="Group_3010" data-name="Group 3010" xmlns="http://www.w3.org/2000/svg" xmlns:xlink="http://www.w3.org/1999/xlink" width="56.363" height="60.252" viewBox="0 0 56.363 60.252">
  <defs>
    <clipPath id="clip-path">
      <rect id="Rectangle_2823" data-name="Rectangle 2823" width="56.363" height="60.252" fill="none"/>
    </clipPath>
  </defs>
  <g id="Group_3007" data-name="Group 3007">
    <g id="Group_3006" data-name="Group 3006" clip-path="url(#clip-path)">
      <path id="Path_2632" data-name="Path 2632" d="M44.846,60.252a10.929,10.929,0,1,1,10.93-10.928,10.941,10.941,0,0,1-10.93,10.928m0-19.858a8.929,8.929,0,1,0,8.93,8.93,8.94,8.94,0,0,0-8.93-8.93" fill="#004695"/>
    </g>
  </g>
  <text id="_" data-name="$" transform="translate(41.226 53.985)" fill="#1a1818" font-size="12.593" font-family="Roboto-Thin, Roboto" font-weight="200"><tspan x="0" y="0">$</tspan></text>
  <g id="Group_3009" data-name="Group 3009">
    <g id="Group_3008" data-name="Group 3008" clip-path="url(#clip-path)">
      <path id="Path_2633" data-name="Path 2633" d="M46.422,53.23a2.324,2.324,0,0,1-1.593.552,2.646,2.646,0,0,1-1.847-.614,2.165,2.165,0,0,1-.68-1.7H41.97a2.525,2.525,0,0,0,.713,1.9,2.943,2.943,0,0,0,2.017.741v1.15h.338V54.108a2.6,2.6,0,0,0,1.706-.667,2.085,2.085,0,0,0,.637-1.584A2.319,2.319,0,0,0,47.236,51a1.968,1.968,0,0,0-.439-.658,2.866,2.866,0,0,0-.744-.519,11.01,11.01,0,0,0-1.291-.513,6.744,6.744,0,0,1-1.307-.575,1.876,1.876,0,0,1-.665-.637,1.928,1.928,0,0,1-.2-.953,1.769,1.769,0,0,1,.6-1.384,2.307,2.307,0,0,1,1.595-.534,2.106,2.106,0,0,1,1.62.636A2.366,2.366,0,0,1,47,47.546h.333a2.73,2.73,0,0,0-.615-1.883,2.4,2.4,0,0,0-1.746-.754V43.76h-.339v1.149a2.573,2.573,0,0,0-1.715.642,2.084,2.084,0,0,0-.658,1.609,2.22,2.22,0,0,0,.225,1.045,2.1,2.1,0,0,0,.691.754,6.359,6.359,0,0,0,1.454.664,8.082,8.082,0,0,1,1.491.647,2.015,2.015,0,0,1,.717.673,1.821,1.821,0,0,1,.212.924A1.747,1.747,0,0,1,46.422,53.23Z" fill="none" stroke="#004695" stroke-width="1.5"/>
      <path id="Path_2634" data-name="Path 2634" d="M28.649,20.581A10.29,10.29,0,1,1,38.94,10.29,10.3,10.3,0,0,1,28.649,20.581M28.649,2a8.29,8.29,0,1,0,8.291,8.29A8.3,8.3,0,0,0,28.649,2" fill="#004795"/>
      <path id="Path_2635" data-name="Path 2635" d="M17.992,52.7a1,1,0,0,1-1-1V33.113l-6.56-6.425L1.155,17.4a3.892,3.892,0,0,1,0-5.534L2.6,10.427a3.94,3.94,0,0,1,5.5-.013l12.27,12.269H36.008L48.265,10.427a3.967,3.967,0,0,1,5.519-.016l1.447,1.457a3.944,3.944,0,0,1,.007,5.523l-9.289,9.29-6.567,6.432v8.681a1,1,0,0,1-2,0V32.273l7.16-7.014,9.273-9.273a1.971,1.971,0,0,0-.013-2.719l-1.419-1.428a1.988,1.988,0,0,0-2.717.014l-12.83,12.83h-17.3L6.7,11.841a1.968,1.968,0,0,0-2.7.012L2.569,13.28A1.909,1.909,0,0,0,2,14.641a1.886,1.886,0,0,0,.566,1.342l9.274,9.283,7.152,7.007v14.7l.082,3.78h-.082V51.7a1,1,0,0,1-1,1" fill="#004695"/>
    </g>
  </g>
</svg>
