<svg xmlns="http://www.w3.org/2000/svg" xmlns:xlink="http://www.w3.org/1999/xlink" width="61.365" height="59.356" viewBox="0 0 61.365 59.356">
  <defs>
    <clipPath id="clip-path">
      <rect id="Rectangle_2821" data-name="Rectangle 2821" width="61.365" height="59.356" transform="translate(0 0)" fill="none"/>
    </clipPath>
  </defs>
  <g id="Group_3005" data-name="Group 3005" transform="translate(0 0)">
    <g id="Group_3002" data-name="Group 3002">
      <g id="Group_3001" data-name="Group 3001" clip-path="url(#clip-path)">
        <path id="Path_2626" data-name="Path 2626" d="M53.323,8.229H1.684a1,1,0,0,1,0-2H53.323a1,1,0,0,1,0,2" fill="#004695"/>
        <path id="Path_2627" data-name="Path 2627" d="M40.52,48.949H4a4,4,0,0,1-4-4V4A4,4,0,0,1,4,0H51.11a4,4,0,0,1,4,4V39.2a1,1,0,0,1-2,0V4a2,2,0,0,0-2-2H4A2,2,0,0,0,2,4V44.949a2,2,0,0,0,2,2H40.52a1,1,0,0,1,0,2" fill="#004695"/>
        <path id="Path_2628" data-name="Path 2628" d="M55.111,33.547H28.577a3,3,0,0,1-3-3V20.4a3,3,0,0,1,3-3H55.111ZM28.577,19.4a1,1,0,0,0-1,1V30.547a1,1,0,0,0,1,1H53.111V19.4Z" fill="#004695"/>
        <path id="Path_2629" data-name="Path 2629" d="M34.744,29.577a4.1,4.1,0,1,1,4.1-4.1,4.108,4.108,0,0,1-4.1,4.1m0-6.2a2.1,2.1,0,1,0,2.1,2.1,2.106,2.106,0,0,0-2.1-2.1" fill="#004695"/>
        <path id="Path_2630" data-name="Path 2630" d="M50.436,59.356a10.929,10.929,0,1,1,10.93-10.929,10.942,10.942,0,0,1-10.93,10.929m0-19.859a8.929,8.929,0,1,0,8.93,8.93,8.94,8.94,0,0,0-8.93-8.93" fill="#004695"/>
      </g>
    </g>
    <text id="_" data-name="$" transform="translate(46.815 53.09)" fill="#1a1818" font-size="12.593" font-family="Roboto-Thin, Roboto" font-weight="200"><tspan x="0" y="0">$</tspan></text>
    <g id="Group_3004" data-name="Group 3004">
      <g id="Group_3003" data-name="Group 3003" clip-path="url(#clip-path)">
        <path id="Path_2631" data-name="Path 2631" d="M52.012,52.335a2.324,2.324,0,0,1-1.593.552,2.646,2.646,0,0,1-1.847-.614,2.165,2.165,0,0,1-.68-1.7H47.56a2.525,2.525,0,0,0,.713,1.9,2.943,2.943,0,0,0,2.017.741v1.15h.338V53.213a2.6,2.6,0,0,0,1.706-.667,2.085,2.085,0,0,0,.637-1.584,2.319,2.319,0,0,0-.145-.855,1.968,1.968,0,0,0-.439-.658,2.866,2.866,0,0,0-.744-.519,11.011,11.011,0,0,0-1.291-.513,6.744,6.744,0,0,1-1.307-.575,1.876,1.876,0,0,1-.665-.637,1.928,1.928,0,0,1-.2-.953,1.769,1.769,0,0,1,.6-1.384,2.307,2.307,0,0,1,1.6-.534A2.106,2.106,0,0,1,52,44.97a2.366,2.366,0,0,1,.593,1.681h.333a2.73,2.73,0,0,0-.615-1.883,2.4,2.4,0,0,0-1.746-.754v-1.15h-.339v1.15a2.573,2.573,0,0,0-1.715.642,2.084,2.084,0,0,0-.658,1.609,2.22,2.22,0,0,0,.225,1.045,2.1,2.1,0,0,0,.691.754,6.359,6.359,0,0,0,1.454.664,8.082,8.082,0,0,1,1.491.647,2.015,2.015,0,0,1,.717.673,1.821,1.821,0,0,1,.212.924A1.747,1.747,0,0,1,52.012,52.335Z" fill="none" stroke="#004695" stroke-width="1.5"/>
      </g>
    </g>
  </g>
</svg>
