<svg xmlns="http://www.w3.org/2000/svg" xmlns:xlink="http://www.w3.org/1999/xlink" width="57.555" height="58.693" viewBox="0 0 57.555 58.693">
  <defs>
    <clipPath id="clip-path">
      <rect id="Rectangle_2808" data-name="Rectangle 2808" width="57.555" height="58.693" fill="none"/>
    </clipPath>
  </defs>
  <g id="Group_2845" data-name="Group 2845" transform="translate(0 0)">
    <g id="Group_2844" data-name="Group 2844" transform="translate(0 0)" clip-path="url(#clip-path)">
      <path id="Path_2565" data-name="Path 2565" d="M47.718,60.5l-.344-.135c-2.226-.873-13.241-6.238-11.363-26.2l.114-1.2,1.141.4c.069.024,6.782,2.353,9.713-1.362l.739-.938.739.938c2.93,3.715,9.643,1.386,9.712,1.362l1.14-.4.114,1.2c1.878,19.959-9.134,25.326-11.361,26.2ZM37.793,35.484c-1.188,16.8,7.389,21.865,9.925,22.985,2.536-1.12,11.112-6.182,9.924-22.985-2.176.55-6.892,1.291-9.924-1.511-3.032,2.8-7.749,2.061-9.925,1.511" transform="translate(-2.083 -1.808)" fill="#004695"/>
      <path id="Path_2566" data-name="Path 2566" d="M47.955,56.046l-.344-.136c-1.479-.579-8.8-4.137-7.558-17.288l.113-1.2,1.14.4c.043.015,4.165,1.44,5.91-.772l.739-.938.739.938c1.748,2.214,5.87.788,5.912.772l1.139-.4.115,1.2C57.1,51.773,49.779,55.331,48.3,55.91ZM41.843,39.918c-.582,10.075,4.4,13.29,6.112,14.091,1.71-.8,6.7-4.016,6.113-14.092-1.526.332-4.215.6-6.113-.948-1.9,1.547-4.589,1.279-6.112.949" transform="translate(-2.322 -2.101)" fill="#004695"/>
      <path id="Path_2567" data-name="Path 2567" d="M47.665,49.885,44.6,46.823a.942.942,0,0,1,1.332-1.332l1.731,1.73,4.169-4.169a.942.942,0,0,1,1.332,1.332Z" transform="translate(-2.579 -2.489)" fill="#004695"/>
      <path id="Path_2568" data-name="Path 2568" d="M34.81,42.78H3.767A3.771,3.771,0,0,1,0,39.013V33.126a3.771,3.771,0,0,1,3.767-3.767h34.79a3.77,3.77,0,0,1,3.767,3.767v1.7a.942.942,0,0,1-1.884,0v-1.7a1.886,1.886,0,0,0-1.884-1.884H3.767a1.886,1.886,0,0,0-1.884,1.884v5.886A1.886,1.886,0,0,0,3.767,40.9H34.81a.942.942,0,1,1,0,1.884" transform="translate(0 -1.708)" fill="#004695"/>
      <path id="Path_2569" data-name="Path 2569" d="M43.881,35.176a.941.941,0,0,1-.942-.942V20.2a.942.942,0,1,1,1.884,0V34.234a.941.941,0,0,1-.942.942" transform="translate(-2.498 -1.121)" fill="#004695"/>
      <path id="Path_2570" data-name="Path 2570" d="M.945,45.538A.941.941,0,0,1,0,44.6V23.814a.942.942,0,0,1,1.884,0V44.6a.941.941,0,0,1-.942.942" transform="translate(0 -1.331)" fill="#004695"/>
      <path id="Path_2571" data-name="Path 2571" d="M26.772,28.123H7.244a3.18,3.18,0,0,1-3.176-3.176v-.137a3.18,3.18,0,0,1,3.176-3.176H26.772a3.179,3.179,0,0,1,3.176,3.176v.137a3.179,3.179,0,0,1-3.176,3.176m-19.529-4.6a1.293,1.293,0,0,0-1.292,1.292v.137A1.294,1.294,0,0,0,7.244,26.24H26.772a1.294,1.294,0,0,0,1.292-1.292v-.137a1.293,1.293,0,0,0-1.292-1.292Z" transform="translate(-0.237 -1.259)" fill="#004695"/>
      <path id="Path_2572" data-name="Path 2572" d="M23.6,14.543h-.1a2.522,2.522,0,0,1-2.52-2.518v-4.4A2.522,2.522,0,0,1,23.5,5.105h.1a2.522,2.522,0,0,1,2.519,2.519v4.4A2.522,2.522,0,0,1,23.6,14.543m-.1-7.554a.637.637,0,0,0-.637.636v4.4a.636.636,0,0,0,.637.635h.1a.635.635,0,0,0,.636-.635v-4.4a.636.636,0,0,0-.636-.636Z" transform="translate(-1.221 -0.297)" fill="#004695"/>
      <path id="Path_2573" data-name="Path 2573" d="M36.552,28.088a3.6,3.6,0,1,1,3.6-3.6,3.6,3.6,0,0,1-3.6,3.6m0-5.314a1.715,1.715,0,1,0,1.715,1.714,1.716,1.716,0,0,0-1.715-1.714" transform="translate(-1.917 -1.216)" fill="#004695"/>
      <path id="Path_2574" data-name="Path 2574" d="M23.65,19.818a.941.941,0,0,1-.942-.942V14.07a.942.942,0,1,1,1.884,0v4.806a.941.941,0,0,1-.942.942" transform="translate(-1.321 -0.764)" fill="#004695"/>
      <path id="Path_2575" data-name="Path 2575" d="M10.662,19.054a.941.941,0,0,1-.942-.942V7.058A7.066,7.066,0,0,1,16.778,0a7.059,7.059,0,0,1,6.894,5.553.942.942,0,0,1-1.839.4,5.175,5.175,0,0,0-1.4-2.556,5.111,5.111,0,0,0-3.658-1.516A5.18,5.18,0,0,0,11.6,7.058V18.112a.941.941,0,0,1-.942.942" transform="translate(-0.565 0)" fill="#004695"/>
    </g>
  </g>
</svg>
