<svg xmlns="http://www.w3.org/2000/svg" width="62.664" height="59.891" viewBox="0 0 62.664 59.891">
  <g id="Group_2352" data-name="Group 2352" transform="translate(0.067)">
    <g id="Group_2355" data-name="Group 2355">
      <path id="Path_2214" data-name="Path 2214" d="M34.789,14.4a13.4,13.4,0,1,1,13.4,13.4A13.4,13.4,0,0,1,34.789,14.4Z" fill="none" stroke="#004695" stroke-linecap="round" stroke-width="2"/>
      <path id="Path_2215" data-name="Path 2215" d="M49.626,23.383H46.515v-1.86a4.664,4.664,0,0,1-3.863-4.882v-.874h3.5l-.271-.132a6.191,6.191,0,0,1-1.423-.949,4.076,4.076,0,0,1-1-1.36,4.451,4.451,0,0,1-.351-1.832,4.023,4.023,0,0,1,1.245-3.016,4.787,4.787,0,0,1,2.335-1.209V5.335H49.8v2.01a4.5,4.5,0,0,1,2.255,1.43,4.879,4.879,0,0,1,1.1,3.25V12.9H49.785c.173.084.343.168.509.254a6.615,6.615,0,0,1,1.406.954,4.251,4.251,0,0,1,1.01,1.355,4.325,4.325,0,0,1,.376,1.856,4.087,4.087,0,0,1-1.186,3.01,4.587,4.587,0,0,1-2.274,1.2Zm-5.144-5.867a2.814,2.814,0,0,0,.685,1.389,3.5,3.5,0,0,0,2.314,1l.6.064.582-.056a3.137,3.137,0,0,0,2-.829,2.369,2.369,0,0,0,.67-1.769,2.613,2.613,0,0,0-.208-1.109,2.5,2.5,0,0,0-.6-.8,4.935,4.935,0,0,0-1.036-.7q-.678-.348-1.444-.674a4.332,4.332,0,0,1-1.444-.908,2.255,2.255,0,0,1-.6-1.614,2.283,2.283,0,0,1,.53-1.558A1.962,1.962,0,0,1,48.066,9.3a1.991,1.991,0,0,1,1.689.847,2.625,2.625,0,0,1,.42,1h1.144a2.823,2.823,0,0,0-.6-1.246,2.959,2.959,0,0,0-1.923-.988l-.57-.084-.581.055a3.334,3.334,0,0,0-2.082.852,2.306,2.306,0,0,0-.707,1.755,2.723,2.723,0,0,0,.2,1.113,2.288,2.288,0,0,0,.575.78,4.522,4.522,0,0,0,1.028.681q.684.338,1.493.667a3.883,3.883,0,0,1,1.5.966,2.414,2.414,0,0,1,.548,1.634,2.166,2.166,0,0,1-.58,1.563,2.075,2.075,0,0,1-1.546.613,2.381,2.381,0,0,1-1.9-.818,2.643,2.643,0,0,1-.553-1.177Zm2.805-1.244v.369a1.467,1.467,0,0,0,.226.921.651.651,0,0,0,.561.2c.211,0,.268-.058.286-.078a.506.506,0,0,0,.091-.349.8.8,0,0,0-.121-.488,2.24,2.24,0,0,0-.842-.493c-.068-.027-.135-.054-.2-.082m.779-5.223c-.17,0-.207.042-.221.058a.657.657,0,0,0-.1.4.516.516,0,0,0,.115.4,2.239,2.239,0,0,0,.646.413v-.3a1.5,1.5,0,0,0-.179-.861c-.049-.068-.1-.115-.265-.115" fill="#004695"/>
      <circle id="Ellipse_235" data-name="Ellipse 235" cx="1.871" cy="1.871" r="1.871" transform="translate(12.109 29.881)" fill="none" stroke="#004695" stroke-width="2"/>
      <path id="Path_2216" data-name="Path 2216" d="M46.4,27.692a16.256,16.256,0,0,1,2.15,8.07c0,.31-.01.63-.03.93a1.732,1.732,0,0,1,.49.34L51.985,40a1.752,1.752,0,0,1,.25,2.23,1.687,1.687,0,0,1-2.56.21l-1.87-1.86a19,19,0,0,1-9.66,11.01,3.982,3.982,0,0,1,.67,2.22v.8a4.154,4.154,0,0,1-3.8,4.22,4.01,4.01,0,0,1-4.22-4.01v-.89a24.136,24.136,0,0,1-3.63.28,23.411,23.411,0,0,1-2.38-.12v.78a4.017,4.017,0,0,1-4.86,3.92,4.08,4.08,0,0,1-3.16-4.03v-.91a3.955,3.955,0,0,1,.42-1.78,20.6,20.6,0,0,1-7.45-5.64,3.936,3.936,0,0,1-2.11,1.06,4.207,4.207,0,0,1-4.63-3.21l-1.84-6.97a4.311,4.311,0,0,1,1.84-4.84,3.8,3.8,0,0,1,1.95-.53,4.1,4.1,0,0,1,1.26.2,17.279,17.279,0,0,1,4.38-8.02l-1.53-2.35a4.1,4.1,0,0,1,.91-5.52,4.027,4.027,0,0,1,5.75,1.04l1.42,2.18a23.946,23.946,0,0,1,10.03-2.16,24.294,24.294,0,0,1,8.35,1.46" fill="none" stroke="#004695" stroke-width="2"/>
      <path id="Path_2217" data-name="Path 2217" d="M36.166,36.38v1.482A1.772,1.772,0,0,1,34.4,39.633H30.421v3.655A1.769,1.769,0,0,1,28.65,45.06H27.168A1.773,1.773,0,0,1,25.4,43.288V39.633H21.653a1.772,1.772,0,0,1-1.771-1.771V36.38a1.772,1.772,0,0,1,1.771-1.771H25.4V30.552a1.773,1.773,0,0,1,1.772-1.771H28.65a1.769,1.769,0,0,1,1.771,1.771v4.057H34.4A1.772,1.772,0,0,1,36.166,36.38Z" fill="none" stroke="#004695" stroke-width="2"/>
      <path id="Path_2218" data-name="Path 2218" d="M23.135,21.195s5.527-1.118,10.3.8" fill="none" stroke="#004695" stroke-linecap="round" stroke-width="2"/>
    </g>
  </g>
</svg>
