<svg xmlns="http://www.w3.org/2000/svg" width="50.85" height="64.815" viewBox="0 0 50.85 64.815">
  <g id="Group_2363" data-name="Group 2363" transform="translate(0.189 0.133)">
    <g id="Group_2368" data-name="Group 2368">
      <path id="Path_2248" data-name="Path 2248" d="M30.485,12.618A11.619,11.619,0,1,1,42.1,24.236,11.618,11.618,0,0,1,30.485,12.618Z" transform="translate(-4.062 -0.133)" fill="none" stroke="#004695" stroke-linecap="round" stroke-width="2"/>
      <path id="Path_2249" data-name="Path 2249" d="M44.394,20.979H41.7V19.367a4.045,4.045,0,0,1-3.348-4.232v-.758h3.033l-.235-.114a5.366,5.366,0,0,1-1.233-.823,3.545,3.545,0,0,1-.867-1.18,3.854,3.854,0,0,1-.3-1.587A3.487,3.487,0,0,1,39.822,8.06a4.157,4.157,0,0,1,2.024-1.048V5.336h2.7V7.078A3.9,3.9,0,0,1,46.5,8.318a4.229,4.229,0,0,1,.955,2.817v.758h-2.92q.225.109.441.219a5.736,5.736,0,0,1,1.219.828,3.685,3.685,0,0,1,.875,1.174,3.749,3.749,0,0,1,.326,1.609,3.542,3.542,0,0,1-1.028,2.609,3.982,3.982,0,0,1-1.971,1.044Zm-4.459-5.084a2.447,2.447,0,0,0,.594,1.2,3.033,3.033,0,0,0,2.006.869l.524.055.5-.048a2.724,2.724,0,0,0,1.733-.719,2.054,2.054,0,0,0,.581-1.533,2.269,2.269,0,0,0-.18-.962,2.172,2.172,0,0,0-.519-.694,4.277,4.277,0,0,0-.9-.607c-.392-.2-.81-.4-1.252-.584a3.741,3.741,0,0,1-1.252-.788,1.95,1.95,0,0,1-.524-1.4,1.979,1.979,0,0,1,.459-1.35,1.7,1.7,0,0,1,1.33-.566,1.726,1.726,0,0,1,1.464.734,2.269,2.269,0,0,1,.364.869h.992A2.447,2.447,0,0,0,45.34,9.3a2.565,2.565,0,0,0-1.667-.856l-.494-.073-.5.048a2.89,2.89,0,0,0-1.8.738,2,2,0,0,0-.613,1.521,2.36,2.36,0,0,0,.171.965,1.983,1.983,0,0,0,.5.676,3.92,3.92,0,0,0,.891.59q.593.293,1.294.578a3.375,3.375,0,0,1,1.3.836,2.1,2.1,0,0,1,.475,1.417,1.879,1.879,0,0,1-.5,1.355,1.8,1.8,0,0,1-1.34.531,2.064,2.064,0,0,1-1.643-.709,2.3,2.3,0,0,1-.479-1.02Zm2.431-1.078v.32a1.273,1.273,0,0,0,.2.8.564.564,0,0,0,.486.173c.183,0,.232-.05.248-.068a.439.439,0,0,0,.079-.3.7.7,0,0,0-.1-.424,1.968,1.968,0,0,0-.73-.427c-.059-.023-.117-.046-.174-.07m.675-4.528c-.147,0-.179.037-.192.051a.569.569,0,0,0-.083.35c0,.243.075.321.1.345a1.916,1.916,0,0,0,.56.359v-.258a1.3,1.3,0,0,0-.155-.746c-.042-.059-.082-.1-.23-.1" transform="translate(-5.109 -0.711)" fill="#004695"/>
      <path id="Path_2250" data-name="Path 2250" d="M39.58,59.657l-.217-.225a2.567,2.567,0,0,0-3.1-.407L29.2,51.96H16.906l-7,7a2.575,2.575,0,0,0-3.034.451l-.407.407a2.576,2.576,0,0,0-.442,3.094c2.6,4.49,9.214,7.688,16.954,7.688,7.862,0,14.57-3.3,17.075-7.9A2.569,2.569,0,0,0,39.58,59.657ZM23.121,64.8a17.628,17.628,0,0,1-8.91-2.323l6.6-6.6h4.473l6.648,6.657A17.668,17.668,0,0,1,23.121,64.8Z" transform="translate(-0.758 -6.923)" fill="none" stroke="#004695" stroke-linecap="round" stroke-width="2"/>
      <path id="Path_2251" data-name="Path 2251" d="M41.705,44.139,40.968,45.4a2.587,2.587,0,0,1-3.545.953l-4.88-2.817H8.326a2.474,2.474,0,0,1-1.1-.251A2.641,2.641,0,0,1,6.7,42.206L5.89,38.583,1.062,16.853a2.6,2.6,0,0,1,1.968-3.1l1.43-.321a2.6,2.6,0,0,1,3.1,1.976l4.767,21.47H34.017a2.586,2.586,0,0,1,.841.3l1.682.971,4.212,2.436A2.6,2.6,0,0,1,41.705,44.139Z" transform="translate(-0.133 -1.781)" fill="none" stroke="#004695" stroke-linecap="round" stroke-width="2"/>
      <path id="Path_2252" data-name="Path 2252" d="M33.5,32.753l-.737,1.265a2.587,2.587,0,0,1-3.545.953L24.35,32.154H17.892a2.6,2.6,0,0,1-2.6-2.6V28.089a2.6,2.6,0,0,1,2.6-2.6h7.922a2.586,2.586,0,0,1,.841.3l1.291.745,4.6,2.661A2.6,2.6,0,0,1,33.5,32.753Z" transform="translate(-2.037 -3.396)" fill="none" stroke="#004695" stroke-linecap="round" stroke-width="2"/>
    </g>
  </g>
</svg>
