<svg xmlns="http://www.w3.org/2000/svg" width="66.321" height="58.075" viewBox="0 0 66.321 58.075">
  <g id="Group_2365" data-name="Group 2365" transform="translate(-4.804 -0.621)">
    <g id="Group_2366" data-name="Group 2366" transform="translate(5 1)">
      <path id="Path_2253" data-name="Path 2253" d="M64.5,29.894l-1.19,1.021a3.158,3.158,0,0,1-3.979,0l-2.693-2.307V56.893H9.027V29.854L6.994,31.6a3.158,3.158,0,0,1-3.979,0l-1.19-1.021a2.172,2.172,0,0,1,0-3.408L31.565,1.706a3.169,3.169,0,0,1,3.987,0L64.5,26.486A2.171,2.171,0,0,1,64.5,29.894Z" transform="translate(-0.196 -0.196)" fill="none" stroke="#004695" stroke-linecap="round" stroke-width="2"/>
      <circle id="Ellipse_239" data-name="Ellipse 239" cx="3.041" cy="3.041" r="3.041" transform="translate(43.162 28.995)" fill="none" stroke="#004695" stroke-linecap="round" stroke-width="2"/>
      <line id="Line_255" data-name="Line 255" y1="3.157" transform="translate(42.422 41.321)" fill="none" stroke="#004695" stroke-linecap="round" stroke-width="2"/>
      <path id="Path_2254" data-name="Path 2254" d="M49.851,53.417V47.2a1.674,1.674,0,0,1,1.4-1.655" transform="translate(-9.782 -8.938)" fill="none" stroke="#004695" stroke-linecap="round" stroke-width="2"/>
      <line id="Line_256" data-name="Line 256" y1="3.177" transform="translate(42.429 41.301)" fill="none" stroke="#004695" stroke-linecap="round" stroke-width="2"/>
      <path id="Path_2255" data-name="Path 2255" d="M51.472,45.566l.1-.02h8.269l.352.027a1.682,1.682,0,0,1,1.4,1.662v6.181" transform="translate(-10.1 -8.938)" fill="none" stroke="#004695" stroke-linecap="round" stroke-width="2"/>
      <line id="Line_257" data-name="Line 257" y1="3.151" transform="translate(49.135 41.328)" fill="none" stroke="#004695" stroke-linecap="round" stroke-width="2"/>
      <path id="Path_2256" data-name="Path 2256" d="M49.851,55.338H61.278" transform="translate(-9.782 -10.859)" fill="none" stroke="#004695" stroke-linecap="round" stroke-width="2"/>
      <path id="Path_2257" data-name="Path 2257" d="M21.094,38.126l.432-.758c.006-.013.013-.02.019-.033" transform="translate(-4.139 -7.326)" fill="none" stroke="#004695" stroke-linecap="round" stroke-width="2"/>
      <line id="Line_258" data-name="Line 258" x1="1.808" transform="translate(18.983 34.468)" fill="none" stroke="#004695" stroke-linecap="round" stroke-width="2"/>
      <path id="Path_2258" data-name="Path 2258" d="M27.826,37.277a.185.185,0,0,1,.033.047l.406.711" transform="translate(-5.46 -7.315)" fill="none" stroke="#004695" stroke-linecap="round" stroke-width="2"/>
      <line id="Line_259" data-name="Line 259" y1="3.157" transform="translate(16.108 40.855)" fill="none" stroke="#004695" stroke-linecap="round" stroke-width="2"/>
      <path id="Path_2259" data-name="Path 2259" d="M17.113,52.836V46.621a1.674,1.674,0,0,1,1.4-1.655" transform="translate(-3.358 -8.824)" fill="none" stroke="#004695" stroke-linecap="round" stroke-width="2"/>
      <line id="Line_260" data-name="Line 260" y1="3.177" transform="translate(16.114 40.834)" fill="none" stroke="#004695" stroke-linecap="round" stroke-width="2"/>
      <path id="Path_2260" data-name="Path 2260" d="M18.733,44.985l.1-.02H27.1l.352.027a1.682,1.682,0,0,1,1.4,1.662v6.181" transform="translate(-3.676 -8.824)" fill="none" stroke="#004695" stroke-linecap="round" stroke-width="2"/>
      <line id="Line_261" data-name="Line 261" y1="3.151" transform="translate(22.821 40.861)" fill="none" stroke="#004695" stroke-linecap="round" stroke-width="2"/>
      <path id="Path_2261" data-name="Path 2261" d="M17.113,54.757H28.539" transform="translate(-3.358 -10.745)" fill="none" stroke="#004695" stroke-linecap="round" stroke-width="2"/>
      <path id="Path_2262" data-name="Path 2262" d="M26.3,41.432H21.28A1.477,1.477,0,0,1,20,39.216l.84-1.453.433-.756a2.92,2.92,0,0,1,2.136-1.5,3.147,3.147,0,0,1,.362-.021,3.029,3.029,0,0,1,1.072.2,2.871,2.871,0,0,1,1.438,1.288l.408.71.886,1.532A1.477,1.477,0,0,1,26.3,41.432Z" transform="translate(-3.886 -6.964)" fill="none" stroke="#004695" stroke-linecap="round" stroke-width="2"/>
      <path id="Path_2263" data-name="Path 2263" d="M42.777,32.58a2.642,2.642,0,1,1-2.643-2.642A2.642,2.642,0,0,1,42.777,32.58Z" transform="translate(-7.357 -5.875)" fill="none" stroke="#004695" stroke-linecap="round" stroke-width="2"/>
      <line id="Line_262" data-name="Line 262" y1="0.01" transform="translate(29.841 33.318)" fill="none" stroke="#004695" stroke-linecap="round" stroke-width="2"/>
      <path id="Path_2264" data-name="Path 2264" d="M37.1,47.326v5.722l.084.113a.747.747,0,0,0,.084.075.68.68,0,0,0,.2.113,1.367,1.367,0,0,0,.235.075,1.875,1.875,0,0,0,.337.038h.15a1.077,1.077,0,0,0,.936-.412h.009v-4.86l.89.01.881-.01v4.86h.009a1.089,1.089,0,0,0,.936.412h.159a1.981,1.981,0,0,0,.338-.038,2.215,2.215,0,0,0,.3-.1.807.807,0,0,0,.2-.15c.019-.01.038-.038.056-.056a.4.4,0,0,1,.038-.066V47.326" transform="translate(-7.281 -9.129)" fill="none" stroke="#004695" stroke-linecap="round" stroke-width="2"/>
      <path id="Path_2265" data-name="Path 2265" d="M35.913,43.954V39.862l-1.967-1.929-2.66-2.66a.831.831,0,0,1,0-1.18l.412-.412a.848.848,0,0,1,1.18,0l3.6,3.6H41.2l3.6-3.6a.848.848,0,0,1,1.18,0l.412.412a.847.847,0,0,1,0,1.18l-2.66,2.66-1.966,1.929V44.77a.009.009,0,0,1-.01-.01v5.722a.4.4,0,0,0-.038.066c-.018.018-.037.047-.056.056a.807.807,0,0,1-.2.15,2.215,2.215,0,0,1-.3.1,1.981,1.981,0,0,1-.338.038h-.159a1.089,1.089,0,0,1-.936-.412h-.009v-4.86l-.881.01-.89-.01v4.86h-.009a1.077,1.077,0,0,1-.936.412h-.15a1.875,1.875,0,0,1-.337-.038,1.367,1.367,0,0,1-.235-.075.68.68,0,0,1-.2-.113A.747.747,0,0,1,36,50.594l-.084-.113V44.76c.01,0,.01-.01.018-.01" transform="translate(-6.091 -6.562)" fill="none" stroke="#004695" stroke-linecap="round" stroke-width="2"/>
    </g>
  </g>
</svg>
