<svg xmlns="http://www.w3.org/2000/svg" width="70.29" height="46.547" viewBox="0 0 70.29 46.547">
  <g id="Group_2361" data-name="Group 2361" transform="translate(0.096 0.137)">
    <g id="Group_2367" data-name="Group 2367" transform="translate(0 0)">
      <path id="Path_2235" data-name="Path 2235" d="M31.589,20.032a3.032,3.032,0,1,1-3.03-2.894A2.964,2.964,0,0,1,31.589,20.032Z" transform="translate(-2.47 -2.351)" fill="none" stroke="#004695" stroke-linecap="round" stroke-width="2"/>
      <ellipse id="Ellipse_236" data-name="Ellipse 236" cx="4.293" cy="4.101" rx="4.293" ry="4.101" transform="translate(57.429 0.863)" fill="none" stroke="#004695" stroke-linecap="round" stroke-width="2"/>
      <path id="Path_2236" data-name="Path 2236" d="M62.078,19.226V31.039c0,.006-.005.006-.005.011a1.641,1.641,0,0,1-1.526.991h-.255a1.694,1.694,0,0,1-.539-.089h-.006a1.62,1.62,0,0,1-1-.958V15.133A2.3,2.3,0,0,1,60.727,12.9" transform="translate(-5.683 -1.769)" fill="none" stroke="#004695" stroke-linecap="round" stroke-width="2"/>
      <path id="Path_2237" data-name="Path 2237" d="M71.74,19.268V31.081c0,.006.005.006.005.011a1.641,1.641,0,0,0,1.526.991h.255a1.694,1.694,0,0,0,.539-.089h.006a1.62,1.62,0,0,0,1-.958V15.175a2.3,2.3,0,0,0-1.983-2.237l-.5-.041H60.924l-.145.032" transform="translate(-5.88 -1.769)" fill="none" stroke="#004695" stroke-linecap="round" stroke-width="2"/>
      <path id="Path_2238" data-name="Path 2238" d="M62.429,31.192v.042a1.315,1.315,0,0,0-.022.294V47.39a1.6,1.6,0,0,0,1,.953h.007a1.681,1.681,0,0,0,.536.091h.257a1.647,1.647,0,0,0,1.527-.989c0-.007.007-.007.007-.015V35.616l2.849-.035V47.4c0,.007.007.007.007.014a1.635,1.635,0,0,0,1.526.989h.257a1.927,1.927,0,0,0,.536-.084h.007a1.615,1.615,0,0,0,1-.961l-.029-4.165V30.4" transform="translate(-6.037 -4.171)" fill="none" stroke="#004695" stroke-linecap="round" stroke-width="2"/>
      <ellipse id="Ellipse_237" data-name="Ellipse 237" cx="3.691" cy="3.525" rx="3.691" ry="3.525" transform="translate(39.159 7.142)" fill="none" stroke="#004695" stroke-linecap="round" stroke-width="2"/>
      <path id="Path_2239" data-name="Path 2239" d="M42.061,23.947V34.1c0,.005-.005.005-.005.01a1.408,1.408,0,0,1-1.311.852h-.219a1.477,1.477,0,0,1-.463-.076h-.005a1.388,1.388,0,0,1-.862-.824V20.429A1.979,1.979,0,0,1,40.9,18.5" transform="translate(-3.792 -2.539)" fill="none" stroke="#004695" stroke-linecap="round" stroke-width="2"/>
      <path id="Path_2240" data-name="Path 2240" d="M50.368,23.983V34.139c0,.005.005.005.005.01A1.408,1.408,0,0,0,51.684,35H51.9a1.477,1.477,0,0,0,.463-.076h.005a1.388,1.388,0,0,0,.862-.824V20.464a1.98,1.98,0,0,0-1.7-1.924L51.1,18.5H41.069l-.125.027" transform="translate(-3.961 -2.539)" fill="none" stroke="#004695" stroke-linecap="round" stroke-width="2"/>
      <path id="Path_2241" data-name="Path 2241" d="M42.362,34.235v.036a1.113,1.113,0,0,0-.019.253V48.16a1.38,1.38,0,0,0,.858.82h.006a1.446,1.446,0,0,0,.461.079h.221a1.414,1.414,0,0,0,1.312-.85c0-.006.006-.006.006-.012V38.039l2.449-.03V48.166c0,.006.006.006.006.012a1.407,1.407,0,0,0,1.312.85H49.2a1.66,1.66,0,0,0,.461-.072h.006a1.388,1.388,0,0,0,.858-.827L50.5,44.549v-11" transform="translate(-4.096 -4.604)" fill="none" stroke="#004695" stroke-linecap="round" stroke-width="2"/>
      <path id="Path_2242" data-name="Path 2242" d="M24.471,30v8.335s0,0,0,.008a1.155,1.155,0,0,1-1.076.7h-.18a1.188,1.188,0,0,1-.38-.063h0a1.138,1.138,0,0,1-.707-.676V27.111a1.624,1.624,0,0,1,1.4-1.579" transform="translate(-2.14 -3.503)" fill="none" stroke="#004695" stroke-linecap="round" stroke-width="2"/>
      <path id="Path_2243" data-name="Path 2243" d="M31.289,30.028v8.335s0,0,0,.008a1.155,1.155,0,0,0,1.076.7h.18a1.188,1.188,0,0,0,.38-.063h0a1.138,1.138,0,0,0,.707-.676V27.14a1.624,1.624,0,0,0-1.4-1.579l-.35-.029H23.656l-.1.022" transform="translate(-2.279 -3.503)" fill="none" stroke="#004695" stroke-linecap="round" stroke-width="2"/>
      <path id="Path_2244" data-name="Path 2244" d="M24.718,38.442v.029a.93.93,0,0,0-.015.208V49.871a1.13,1.13,0,0,0,.7.672h0a1.186,1.186,0,0,0,.378.065h.182a1.162,1.162,0,0,0,1.078-.7s0,0,0-.009V41.564l2.01-.024v8.336c0,.005.005.005.005.01a1.154,1.154,0,0,0,1.078.7h.181a1.342,1.342,0,0,0,.378-.059h.005a1.144,1.144,0,0,0,.7-.678L31.4,46.908V37.883" transform="translate(-2.39 -5.198)" fill="none" stroke="#004695" stroke-linecap="round" stroke-width="2"/>
      <ellipse id="Ellipse_238" data-name="Ellipse 238" cx="2.604" cy="2.487" rx="2.604" ry="2.487" transform="translate(6.624 22.567)" fill="none" stroke="#004695" stroke-linecap="round" stroke-width="2"/>
      <path id="Path_2245" data-name="Path 2245" d="M16.752,39.542a1.093,1.093,0,0,1-.759.306,1.108,1.108,0,0,1-.759-.306l-1.872-1.788v5.283H5.286V37.755L3.448,39.51a1.117,1.117,0,0,1-1.527,0,.991.991,0,0,1,0-1.458l3.516-3.358a1.125,1.125,0,0,1,.362-.225,1.206,1.206,0,0,1,.658-.193h5.725a1.162,1.162,0,0,1,.733.249.911.911,0,0,1,.321.21l3.515,3.358A.988.988,0,0,1,16.752,39.542Z" transform="translate(-0.155 -4.703)" fill="none" stroke="#004695" stroke-linecap="round" stroke-width="2"/>
      <path id="Path_2246" data-name="Path 2246" d="M7.463,46.7a.851.851,0,0,1-.135.161l-.548.523-3.666,3.5a1.1,1.1,0,0,1-1.517,0l-.278-.266a1,1,0,0,1,0-1.457l4.206-4.019c.009-.008.009-.008.017-.008l.624.507Z" transform="translate(-0.097 -6.193)" fill="none" stroke="#004695" stroke-linecap="round" stroke-width="2"/>
      <path id="Path_2247" data-name="Path 2247" d="M18.424,50.625l-.278.266a1.114,1.114,0,0,1-1.526,0l-3.659-3.5-.548-.524a.33.33,0,0,1-.068-.08l1.315-1.079.607-.507.135.129,4.021,3.833A1,1,0,0,1,18.424,50.625Z" transform="translate(-1.194 -6.203)" fill="none" stroke="#004695" stroke-linecap="round" stroke-width="2"/>
    </g>
  </g>
</svg>
