<svg xmlns="http://www.w3.org/2000/svg" width="55.421" height="63.985" viewBox="0 0 55.421 63.985">
  <g id="Group_2358" data-name="Group 2358" transform="translate(0.091 0.501)">
    <g id="Group_2359" data-name="Group 2359" transform="translate(0 0)">
      <path id="Path_2224" data-name="Path 2224" d="M51.979,27.419H3.436a2.445,2.445,0,0,1-2.418-2.745,26.882,26.882,0,0,1,53.38,0A2.445,2.445,0,0,1,51.979,27.419Z" transform="translate(-0.087 -0.087)" fill="none" stroke="#004695" stroke-linecap="round" stroke-width="2"/>
      <path id="Path_2225" data-name="Path 2225" d="M3.666,27.419H39.433A2.684,2.684,0,0,0,41.852,24.3C40.793,14.191,35.407,5.6,27.866,1" transform="translate(-0.319 -0.087)" fill="none" stroke="#004695" stroke-linecap="round" stroke-width="2"/>
      <path id="Path_2226" data-name="Path 2226" d="M52.213,29.94H3.666" transform="translate(-0.319 -2.608)" fill="none" stroke="#004695" stroke-linecap="round" stroke-width="2"/>
      <path id="Path_2227" data-name="Path 2227" d="M53.113,27.419H16.433A2.684,2.684,0,0,1,14.014,24.3C15.073,14.209,20.441,5.628,27.972,1.018c.009-.009.018-.009.027-.018" transform="translate(-1.219 -0.087)" fill="none" stroke="#004695" stroke-linecap="round" stroke-width="2"/>
      <path id="Path_2228" data-name="Path 2228" d="M52.836,29.94H10.816" transform="translate(-0.942 -2.608)" fill="none" stroke="#004695" stroke-linecap="round" stroke-width="2"/>
      <path id="Path_2229" data-name="Path 2229" d="M29.336,27.419V1" transform="translate(-2.556 -0.087)" fill="none" stroke="#004695" stroke-linecap="round" stroke-width="2"/>
      <path id="Path_2230" data-name="Path 2230" d="M31.117,29.94v8.645a2.036,2.036,0,1,1-4.071,0V29.94" transform="translate(-2.356 -2.608)" fill="none" stroke="#004695" stroke-linecap="round" stroke-width="2"/>
      <path id="Path_2231" data-name="Path 2231" d="M15.383,53.875A12.237,12.237,0,1,1,27.619,66.111,12.236,12.236,0,0,1,15.383,53.875Z" transform="translate(-1.34 -3.627)" fill="none" stroke="#004695" stroke-linecap="round" stroke-width="2"/>
      <path id="Path_2232" data-name="Path 2232" d="M25.048,48.642a2.6,2.6,0,1,0,2.593,2.593,2.593,2.593,0,0,0-2.593-2.593m-.018,3.378h-.018a.776.776,0,1,1,.785-.867.311.311,0,0,1,.009.091.775.775,0,0,1-.776.776" transform="translate(-1.956 -4.238)" fill="#004695"/>
      <path id="Path_2233" data-name="Path 2233" d="M32.995,56.525a2.6,2.6,0,1,0,2.593,2.593,2.593,2.593,0,0,0-2.593-2.593M32.976,59.9h-.018a.776.776,0,1,1,.785-.867.31.31,0,0,1,.009.091.775.775,0,0,1-.776.776" transform="translate(-2.648 -4.924)" fill="#004695"/>
      <path id="Path_2234" data-name="Path 2234" d="M33.557,51.746l-7.872,7.872a.916.916,0,1,1-1.294-1.3l7.871-7.872a.916.916,0,0,1,1.3,1.3Z" transform="translate(-2.102 -4.372)" fill="none" stroke="#004695" stroke-linecap="round" stroke-width="1.5"/>
    </g>
  </g>
</svg>
