<?xml version="1.0" encoding="UTF-8"?><svg id="Layer_2" xmlns="http://www.w3.org/2000/svg" xmlns:xlink="http://www.w3.org/1999/xlink" viewBox="0 0 1920 1080"><defs><style>.cls-1{clip-path:url(#clippath-1);}.cls-2,.cls-3{fill:#004695;}.cls-4{clip-path:url(#clippath);}.cls-5{fill:none;}.cls-3{font-family:MyriadPro-Regular, 'Myriad Pro';font-size:13.26px;}.cls-6{fill:#e9f4ff;}.cls-7{fill:#004795;}</style><clipPath id="clippath"><rect class="cls-5" x="944.96" y="526.65" width="30" height="27.62"/></clipPath><clipPath id="clippath-1"><rect class="cls-5" width="1920" height="1080"/></clipPath></defs><g id="Layer_1-2"><g><circle id="Ellipse_263" class="cls-6" cx="960" cy="540" r="24.5"/><g><g class="cls-4"><path class="cls-2" d="M960.36,541.19c-4.02,0-7.27-3.26-7.27-7.27s3.26-7.27,7.27-7.27,7.27,3.26,7.27,7.27c0,4.01-3.26,7.27-7.27,7.27m0-13.53c-3.46,0-6.26,2.8-6.26,6.26s2.8,6.26,6.26,6.26,6.26-2.8,6.26-6.26c0-3.46-2.8-6.26-6.26-6.26"/><text class="cls-3" transform="translate(956.96 538.81)"><tspan x="0" y="0">₹</tspan></text></g><g class="cls-1"><path class="cls-7" d="M956.94,554.27c-.2,0-.41-.03-.6-.09l-4.31-1.37,.31-.96,4.31,1.37c.21,.07,.44,.06,.65-.01l16.17-7.01c.36-.11,.57-.49,.46-.85,0-.02-.01-.04-.02-.05l-.14-.43c-.18-.44-.67-.67-1.13-.54l-8.73,2.3-.26-.98,8.74-2.3c.98-.27,2,.25,2.34,1.21l.14,.43c.31,.87-.14,1.83-1.01,2.15h-.01l-16.18,7.01c-.23,.09-.48,.13-.73,.13"/><path class="cls-2" d="M962.05,549.71c-.18,0-.36-.02-.53-.07l-6.68-1.84c-.27-.07-.43-.35-.35-.62,.08-.27,.35-.43,.62-.35l6.68,1.85c.46,.15,.95-.08,1.13-.52l.44-1.32c.05-.16,.04-.33-.03-.48-.11-.23-.31-.4-.56-.46l-7.5-2.07h-3.08c-.28,0-.5-.23-.5-.51s.22-.5,.5-.5l3.29,.02,7.57,2.09c.53,.14,.97,.51,1.21,1.01,.18,.38,.21,.82,.07,1.23l-.44,1.32c-.28,.76-1.01,1.27-1.82,1.25"/><path class="cls-7" d="M950.67,554.19h-3.69c-1.12,0-2.02-.9-2.02-2.02v-8.88c0-1.11,.9-2.02,2.02-2.02h3.69c1.12,0,2.02,.9,2.02,2.02v8.88c0,1.11-.9,2.02-2.02,2.02m-3.69-11.91c-.56,0-1.01,.45-1.01,1.01v8.88c0,.56,.45,1.01,1.01,1.02h3.69c.56,0,1.01-.45,1.01-1.01v-8.88c0-.56-.45-1.01-1.01-1.01h-3.69Z"/></g></g></g></g></svg>