<svg xmlns="http://www.w3.org/2000/svg" width="49" height="49" viewBox="0 0 49 49">
  <g id="Group_2826" data-name="Group 2826" transform="translate(-274 -5601)">
    <circle id="Ellipse_267" data-name="Ellipse 267" cx="24.5" cy="24.5" r="24.5" transform="translate(274 5601)" fill="#e9f4ff"/>
    <g id="Group_2753" data-name="Group 2753" transform="translate(286 5611)">
      <g id="Group_2750" data-name="Group 2750">
        <g id="Group_2755" data-name="Group 2755">
          <path id="Path_2460" data-name="Path 2460" d="M30.058,44.515a6.992,6.992,0,1,1,6.991-6.992,7,7,0,0,1-6.991,6.992m0-13.012a6.021,6.021,0,1,0,6.021,6.021A6.027,6.027,0,0,0,30.058,31.5" transform="translate(-11.871 -15.713)" fill="#004695"/>
        </g>
      </g>
      <g id="Group_2752" data-name="Group 2752">
        <g id="Group_2754" data-name="Group 2754">
          <path id="Path_2461" data-name="Path 2461" d="M36.826,43.95a1.521,1.521,0,0,1-1.044.362,1.739,1.739,0,0,1-1.211-.4,1.422,1.422,0,0,1-.446-1.113h-.217a1.655,1.655,0,0,0,.467,1.246,1.929,1.929,0,0,0,1.322.485v.754h.221v-.757a1.707,1.707,0,0,0,1.118-.437,1.368,1.368,0,0,0,.417-1.038,1.508,1.508,0,0,0-.095-.56,1.272,1.272,0,0,0-.288-.431,1.857,1.857,0,0,0-.487-.34,7.266,7.266,0,0,0-.846-.336,4.411,4.411,0,0,1-.856-.377,1.22,1.22,0,0,1-.435-.417,1.264,1.264,0,0,1-.131-.625,1.156,1.156,0,0,1,.393-.906,1.508,1.508,0,0,1,1.045-.351,1.379,1.379,0,0,1,1.062.417,1.549,1.549,0,0,1,.389,1.1h.218a1.791,1.791,0,0,0-.4-1.235,1.572,1.572,0,0,0-1.144-.493v-.754h-.222V38.5a1.685,1.685,0,0,0-1.124.421,1.362,1.362,0,0,0-.431,1.054,1.467,1.467,0,0,0,.147.685,1.381,1.381,0,0,0,.453.493,4.116,4.116,0,0,0,.953.435,5.325,5.325,0,0,1,.977.425,1.308,1.308,0,0,1,.469.441,1.19,1.19,0,0,1,.139.605A1.144,1.144,0,0,1,36.826,43.95Z" transform="translate(-17.451 -19.462)" fill="none" stroke="#004695" stroke-width="1"/>
          <path id="Path_2462" data-name="Path 2462" d="M13.7,6.268a3.134,3.134,0,1,1,3.134-3.134A3.137,3.137,0,0,1,13.7,6.268m0-5.3A2.163,2.163,0,1,0,15.86,3.134,2.165,2.165,0,0,0,13.7.971" transform="translate(-5.436 0)" fill="#004695"/>
          <path id="Path_2463" data-name="Path 2463" d="M9.725,30.71a.485.485,0,0,1-.485-.485V22.609a.485.485,0,1,1,.971,0v7.615a.485.485,0,0,1-.485.485" transform="translate(-4.755 -11.386)" fill="#004695"/>
          <path id="Path_2464" data-name="Path 2464" d="M1.763,25.313a1.579,1.579,0,0,1-.455-.067L1.155,25.2A1.475,1.475,0,0,1,.721,25a1.4,1.4,0,0,1-.613-1.089l0-.095,3.2-8.931a1.909,1.909,0,0,1,1.524-1.216.485.485,0,0,1,.151.959.953.953,0,0,0-.761.584L1.089,23.942a.439.439,0,0,0,.185.254.5.5,0,0,0,.149.071l.164.049a.608.608,0,0,0,.466-.049v-.259H2.2l2.238-6.264a.485.485,0,0,1,.914.326l-2.328,6.52v.092l-.055.06-.083.233H2.735a1.551,1.551,0,0,1-.972.339" transform="translate(-0.054 -7.029)" fill="#004695"/>
          <path id="Path_2465" data-name="Path 2465" d="M22.864,31.384H22.7a1.505,1.505,0,0,1-1.39-.946l-.037-.089V22.618a.485.485,0,1,1,.971,0v7.524a.531.531,0,0,0,.456.271h.16a.82.82,0,0,0,.122-.014.485.485,0,1,1,.144.96,1.748,1.748,0,0,1-.266.024" transform="translate(-10.95 -11.39)" fill="#004695"/>
          <path id="Path_2466" data-name="Path 2466" d="M17.5,25.58a.485.485,0,0,1-.485-.485V15.615a.991.991,0,0,0-.8-.964l-.283-.017H9.473a.485.485,0,1,1,0-.971l6.88.026a1.945,1.945,0,0,1,1.628,1.925v9.479a.485.485,0,0,1-.485.485" transform="translate(-4.625 -7.032)" fill="#004695"/>
          <path id="Path_2467" data-name="Path 2467" d="M10.81,46.37h-.158a1.455,1.455,0,0,1-.406-.059h-.01l-.083-.029a1.491,1.491,0,0,1-.91-.912l-.028-.078V34.966a1.338,1.338,0,0,1,.021-.275.494.494,0,0,1,.478-.414.474.474,0,0,1,.485.472l-.011.13a.676.676,0,0,0,0,.087V45.113a.526.526,0,0,0,.269.246l.024.008a.524.524,0,0,0,.173.032h.158a.537.537,0,0,0,.456-.261l0-8.011L14,37.092l0,8.023a.529.529,0,0,0,.458.262h.158a.655.655,0,0,0,.191-.033h0a.537.537,0,0,0,.271-.25L15.066,42.5V34.237a.485.485,0,0,1,.971,0l.018,11.03-.028.08a1.5,1.5,0,0,1-.91.917l-.1.029a1.535,1.535,0,0,1-.4.054H14.46a1.5,1.5,0,0,1-1.356-.856l-.074-.078,0-.2V38.075l-.786.011v7.36l-.083.08a1.506,1.506,0,0,1-1.349.845" transform="translate(-4.742 -17.37)" fill="#004695"/>
          <path id="Path_2469" data-name="Path 2469" d="M.485,47.251A.485.485,0,0,1,0,46.766V37.594A1.816,1.816,0,0,1,1.771,35.74a1.816,1.816,0,0,1,1.772,1.854v.794a.485.485,0,1,1-.971,0v-.794a.846.846,0,0,0-.8-.883.846.846,0,0,0-.8.883v9.172a.485.485,0,0,1-.485.485" transform="translate(0 -18.393)" fill="#004695"/>
        </g>
      </g>
    </g>
  </g>
</svg>
