<svg xmlns="http://www.w3.org/2000/svg" xmlns:xlink="http://www.w3.org/1999/xlink" width="62.11" height="71.151" viewBox="0 0 62.11 71.151">
  <defs>
    <clipPath id="clip-path">
      <rect id="Rectangle_2800" data-name="Rectangle 2800" width="62.11" height="71.151" transform="translate(0 0)" fill="none"/>
    </clipPath>
  </defs>
  <g id="Group_2814" data-name="Group 2814" transform="translate(-552 134)">
    <g id="Group_2815" data-name="Group 2815" transform="translate(552 -134)">
      <g id="Group_2792" data-name="Group 2792">
        <g id="Group_2791" data-name="Group 2791" clip-path="url(#clip-path)">
          <path id="Path_2490" data-name="Path 2490" d="M10.93,71.151A10.93,10.93,0,1,1,21.859,60.222,10.942,10.942,0,0,1,10.93,71.151m0-19.859a8.93,8.93,0,1,0,8.929,8.93,8.94,8.94,0,0,0-8.929-8.93" fill="#004695"/>
        </g>
      </g>
      <text id="_" data-name="$" transform="translate(7.31 64.886)" fill="#1a1818" font-size="12.593" font-family="Roboto-Thin, Roboto" font-weight="200"><tspan x="0" y="0">$</tspan></text>
      <g id="Group_2794" data-name="Group 2794">
        <g id="Group_2793" data-name="Group 2793" clip-path="url(#clip-path)">
          <path id="Path_2491" data-name="Path 2491" d="M12.506,64.131a2.324,2.324,0,0,1-1.593.552,2.646,2.646,0,0,1-1.847-.614,2.165,2.165,0,0,1-.68-1.7H8.054a2.525,2.525,0,0,0,.713,1.9,2.943,2.943,0,0,0,2.017.741v1.15h.338V65.009a2.6,2.6,0,0,0,1.706-.667,2.085,2.085,0,0,0,.637-1.584,2.319,2.319,0,0,0-.145-.855,1.968,1.968,0,0,0-.439-.658,2.866,2.866,0,0,0-.744-.519,11.009,11.009,0,0,0-1.291-.513,6.744,6.744,0,0,1-1.307-.575A1.876,1.876,0,0,1,8.874,59a1.928,1.928,0,0,1-.2-.953,1.769,1.769,0,0,1,.6-1.384,2.307,2.307,0,0,1,1.6-.534,2.106,2.106,0,0,1,1.62.636,2.366,2.366,0,0,1,.593,1.681h.333a2.73,2.73,0,0,0-.615-1.883,2.4,2.4,0,0,0-1.746-.754V54.66h-.339v1.15A2.573,2.573,0,0,0,9,56.452a2.084,2.084,0,0,0-.658,1.609,2.22,2.22,0,0,0,.225,1.045,2.1,2.1,0,0,0,.691.754,6.359,6.359,0,0,0,1.454.664,8.082,8.082,0,0,1,1.491.647,2.015,2.015,0,0,1,.717.673,1.821,1.821,0,0,1,.212.924A1.747,1.747,0,0,1,12.506,64.131Z" fill="none" stroke="#004695" stroke-width="1.5"/>
          <path id="Path_2492" data-name="Path 2492" d="M37.364,31.958,36.05,31.95c-1.479-.012-3.269-.02-4.574-.006a1.821,1.821,0,0,1-1.536-.9,2.667,2.667,0,0,1-.079-2.548l3.133-6a1.816,1.816,0,0,1,1.6-1.045h5.644a1.818,1.818,0,0,1,1.6,1.044l3.133,6a2.666,2.666,0,0,1-.079,2.549,1.784,1.784,0,0,1-1.536.9c-1.3-.015-3.1-.006-4.575,0Zm-4.257-2.021c.979,0,2.029.006,2.957.013l1.293.008,1.411-.011c1.427-.009,3.146-.015,4.444-.005a.678.678,0,0,0-.016-.525l-3.117-5.968H34.755l-3.121,5.969a.68.68,0,0,0-.017.524c.456,0,.963,0,1.49,0" fill="#004695"/>
          <path id="Path_2493" data-name="Path 2493" d="M54.219,31.778,52.9,31.77c-1.478-.011-3.268-.019-4.573-.006a1.7,1.7,0,0,1-1.536-.9,2.669,2.669,0,0,1-.079-2.549l3.133-6a1.819,1.819,0,0,1,1.6-1.045h5.644a1.818,1.818,0,0,1,1.6,1.044l3.133,6a2.666,2.666,0,0,1-.079,2.549,1.737,1.737,0,0,1-1.536.9c-1.306-.015-3.1-.007-4.575,0Zm-4.257-2.021c.978,0,2.028.006,2.957.013l1.293.008,1.41-.011c1.429-.01,3.147-.015,4.445-.005a.678.678,0,0,0-.016-.525l-3.117-5.968H51.61l-3.121,5.968a.683.683,0,0,0-.017.525c.455,0,.962,0,1.49,0" fill="#004695"/>
          <path id="Path_2494" data-name="Path 2494" d="M51.911,31.8V29.786l1.006-.016,1.3.009.01,2Z" fill="#004695"/>
          <path id="Path_2495" data-name="Path 2495" d="M45.632,20.213,44.319,20.2c-1.483-.011-3.272-.021-4.576-.006a1.844,1.844,0,0,1-1.536-.9,2.672,2.672,0,0,1-.079-2.549l3.133-6A1.819,1.819,0,0,1,42.86,9.7H48.5a1.821,1.821,0,0,1,1.6,1.044l3.132,6a2.664,2.664,0,0,1-.079,2.549,1.772,1.772,0,0,1-1.517.9h-.019c-1.307-.015-3.1-.007-4.575,0Zm-4.257-2.021c.978,0,2.028.006,2.956.013l1.294.008,1.41-.011c1.426-.009,3.146-.016,4.445,0a.683.683,0,0,0-.017-.525L48.347,11.7H43.022L39.9,17.672a.682.682,0,0,0-.016.525c.455,0,.962-.005,1.49-.005" fill="#004695"/>
          <path id="Path_2496" data-name="Path 2496" d="M48.041,20.241l-2.43-.028.007-2,2.423-.017Z" fill="#004695"/>
          <path id="Path_2497" data-name="Path 2497" d="M43.324,20.239V18.223l1-.018,1.3.008.011,2Z" fill="#004695"/>
          <path id="Path_2498" data-name="Path 2498" d="M47.77,61.222H28.588a1,1,0,0,1,0-2H47.77c3.015,0,5.469-3.3,5.469-7.357,0-4.147-2.454-7.448-5.469-7.448h-34.2c-4.119,0-7.471-4.2-7.471-9.356S9.449,25.7,13.568,25.7h8.563a1,1,0,0,1,0,2H13.568C10.552,27.7,8.1,31,8.1,35.061s2.455,7.356,5.471,7.356h34.2c4.119,0,7.469,4.2,7.469,9.358,0,5.25-3.35,9.447-7.469,9.447" fill="#004695"/>
          <path id="Path_2499" data-name="Path 2499" d="M45.724,6.394a1,1,0,0,1-1-1V1a1,1,0,0,1,2,0V5.394a1,1,0,0,1-1,1" fill="#004695"/>
          <path id="Path_2500" data-name="Path 2500" d="M55.724,10.938a1,1,0,0,1-.707-1.706l3.106-3.106A1,1,0,0,1,59.537,7.54l-3.106,3.106a1,1,0,0,1-.707.292" fill="#004695"/>
          <path id="Path_2501" data-name="Path 2501" d="M35.941,10.938a1,1,0,0,1-.707-.292L32.128,7.54a1,1,0,0,1,1.414-1.414l3.106,3.106a1,1,0,0,1-.707,1.706" fill="#004695"/>
        </g>
      </g>
    </g>
  </g>
</svg>
