<svg xmlns="http://www.w3.org/2000/svg" xmlns:xlink="http://www.w3.org/1999/xlink" width="58.463" height="62.537" viewBox="0 0 58.463 62.537">
  <defs>
    <clipPath id="clip-path">
      <rect id="Rectangle_2802" data-name="Rectangle 2802" width="58.463" height="62.537" transform="translate(0 0)" fill="none"/>
    </clipPath>
  </defs>
  <g id="Group_2798" data-name="Group 2798" transform="translate(0 0)">
    <g id="Group_2797" data-name="Group 2797" clip-path="url(#clip-path)">
      <path id="Path_2502" data-name="Path 2502" d="M7.94,15.457a4.308,4.308,0,1,1,4.309-4.307A4.313,4.313,0,0,1,7.94,15.457m0-6.616a2.308,2.308,0,1,0,2.309,2.309A2.311,2.311,0,0,0,7.94,8.841" fill="#004695"/>
      <path id="Path_2503" data-name="Path 2503" d="M36.985,10.813H15.26a1,1,0,0,1,0-2H36.985a1,1,0,0,1,0,2" fill="#004695"/>
      <path id="Path_2504" data-name="Path 2504" d="M28.315,14.533H15.261a1,1,0,0,1,0-2H28.315a1,1,0,0,1,0,2" fill="#004695"/>
      <path id="Path_2505" data-name="Path 2505" d="M7.94,29.127a4.308,4.308,0,1,1,4.309-4.308A4.313,4.313,0,0,1,7.94,29.127m0-6.616a2.308,2.308,0,1,0,2.309,2.308A2.311,2.311,0,0,0,7.94,22.511" fill="#004695"/>
      <path id="Path_2506" data-name="Path 2506" d="M36.985,24.482H15.26a1,1,0,1,1,0-2H36.985a1,1,0,0,1,0,2" fill="#004695"/>
      <path id="Path_2507" data-name="Path 2507" d="M30.315,28.2H17.26a1,1,0,1,1,0-2H30.315a1,1,0,0,1,0,2" fill="#004695"/>
      <path id="Path_2508" data-name="Path 2508" d="M7.94,42.694a4.308,4.308,0,1,1,4.309-4.308A4.313,4.313,0,0,1,7.94,42.694m0-6.616a2.308,2.308,0,1,0,2.309,2.308A2.311,2.311,0,0,0,7.94,36.078" fill="#004695"/>
      <path id="Path_2509" data-name="Path 2509" d="M38.985,38.05H17.26a1,1,0,1,1,0-2H38.985a1,1,0,0,1,0,2" fill="#004695"/>
      <path id="Path_2510" data-name="Path 2510" d="M30.315,41.77H17.26a1,1,0,1,1,0-2H30.315a1,1,0,0,1,0,2" fill="#004695"/>
      <path id="Path_2511" data-name="Path 2511" d="M44.039,47.115a1,1,0,0,1-1-1v-3.89a1,1,0,0,1,2,0v3.89a1,1,0,0,1-1,1" fill="#004695"/>
      <path id="Path_2512" data-name="Path 2512" d="M39.564,46.537a1,1,0,0,1-1-1V40.654a1,1,0,0,1,2,0v4.883a1,1,0,0,1-1,1" fill="#004695"/>
      <path id="Path_2513" data-name="Path 2513" d="M44.039,47.115a1,1,0,0,1-1-1v-3.89a1,1,0,0,1,2,0v3.89a1,1,0,0,1-1,1" fill="#004695"/>
      <path id="Path_2514" data-name="Path 2514" d="M48.513,47.688a1,1,0,0,1-1-1V43.4a1,1,0,0,1,2,0v3.287a1,1,0,0,1-1,1" fill="#004695"/>
      <path id="Path_2515" data-name="Path 2515" d="M52.988,48.261a1,1,0,0,1-1-1V45.409a1,1,0,0,1,2,0v1.852a1,1,0,0,1-1,1" fill="#004695"/>
      <path id="Path_2516" data-name="Path 2516" d="M48.513,47.688a1,1,0,0,1-1-1V43.4a1,1,0,0,1,2,0v3.287a1,1,0,0,1-1,1" fill="#004695"/>
      <path id="Path_2517" data-name="Path 2517" d="M52.988,48.261a1,1,0,0,1-1-1V45.409a1,1,0,0,1,2,0v1.852a1,1,0,0,1-1,1" fill="#004695"/>
      <path id="Path_2518" data-name="Path 2518" d="M52.216,62.538H44.878a6.229,6.229,0,0,1-6.073-4.785L36.157,43.412a3.227,3.227,0,0,1,2.407-3.669V29.289a3.422,3.422,0,0,1,1.057-2.463,3.13,3.13,0,0,1,2.323-.89,3.244,3.244,0,0,1,3.1,3.236V39.237a3.328,3.328,0,0,1,3.525.7,3.29,3.29,0,0,1,.525.686,3.343,3.343,0,0,1,3.955.489,3.193,3.193,0,0,1,.813,1.368,3.35,3.35,0,0,1,3.656.635,3.25,3.25,0,0,1,.95,2.3V56.29a6.254,6.254,0,0,1-6.247,6.248M39.357,41.643a1.3,1.3,0,0,0-.2.019,1.23,1.23,0,0,0-1.027,1.411L40.76,57.337a4.224,4.224,0,0,0,4.118,3.2h7.338a4.252,4.252,0,0,0,4.247-4.248V45.41a1.238,1.238,0,0,0-2.475,0h-2V43.4a1.234,1.234,0,0,0-1.234-1.24,1.241,1.241,0,0,0-1.24,1.24h-2V42.226a1.238,1.238,0,0,0-2.475,0h-2V29.172a1.244,1.244,0,0,0-1.183-1.238,1.2,1.2,0,0,0-.853.337,1.418,1.418,0,0,0-.439,1.018V41.747l-1.087-.1c-.039,0-.081-.008-.12-.008" fill="#004695"/>
      <path id="Path_2519" data-name="Path 2519" d="M38.37,50.91H4a4,4,0,0,1-4-4V4A4,4,0,0,1,4,0H44.29a4,4,0,0,1,4,4V40.24a1,1,0,0,1-2,0V4a2,2,0,0,0-2-2H4A2,2,0,0,0,2,4V46.91a2,2,0,0,0,2,2H38.37a1,1,0,0,1,0,2" fill="#004695"/>
    </g>
  </g>
</svg>
