<svg xmlns="http://www.w3.org/2000/svg" xmlns:xlink="http://www.w3.org/1999/xlink" width="49" height="49" viewBox="0 0 49 49">
  <defs>
    <clipPath id="clip-path">
      <rect id="Rectangle_2780" data-name="Rectangle 2780" width="30.004" height="27.62" fill="none"/>
    </clipPath>
  </defs>
  <g id="Group_2822" data-name="Group 2822" transform="translate(-274 -5161)">
    <circle id="Ellipse_263" data-name="Ellipse 263" cx="24.5" cy="24.5" r="24.5" transform="translate(274 5161)" fill="#e9f4ff"/>
    <g id="Group_2745" data-name="Group 2745" transform="translate(283 5172)">
      <g id="Group_2742" data-name="Group 2742" transform="translate(0 0)">
        <g id="Group_2741" data-name="Group 2741" clip-path="url(#clip-path)">
          <path id="Path_2437" data-name="Path 2437" d="M23.371,14.54a7.27,7.27,0,1,1,7.27-7.27,7.278,7.278,0,0,1-7.27,7.27m0-13.53a6.26,6.26,0,1,0,6.26,6.26,6.267,6.267,0,0,0-6.26-6.26" transform="translate(-7.975 0)" fill="#004695"/>
        </g>
      </g>
      <g id="Group_2744" data-name="Group 2744" transform="translate(0 0)">
        <g id="Group_2746" data-name="Group 2746">
          <path id="Path_2438" data-name="Path 2438" d="M29.655,13.347a1.581,1.581,0,0,1-1.085.376,1.808,1.808,0,0,1-1.259-.418,1.479,1.479,0,0,1-.463-1.157h-.226a1.721,1.721,0,0,0,.486,1.3,2.005,2.005,0,0,0,1.374.5v.784h.23v-.787a1.775,1.775,0,0,0,1.163-.455,1.423,1.423,0,0,0,.434-1.079,1.568,1.568,0,0,0-.1-.582,1.322,1.322,0,0,0-.3-.449,1.93,1.93,0,0,0-.507-.354,7.554,7.554,0,0,0-.88-.35,4.587,4.587,0,0,1-.89-.392,1.268,1.268,0,0,1-.453-.434,1.315,1.315,0,0,1-.136-.65,1.2,1.2,0,0,1,.408-.942A1.568,1.568,0,0,1,28.541,7.9a1.434,1.434,0,0,1,1.1.434,1.611,1.611,0,0,1,.4,1.145h.227a1.863,1.863,0,0,0-.419-1.284,1.634,1.634,0,0,0-1.19-.513V6.895h-.231v.784a1.752,1.752,0,0,0-1.168.438,1.416,1.416,0,0,0-.449,1.1,1.526,1.526,0,0,0,.153.712,1.436,1.436,0,0,0,.471.513,4.279,4.279,0,0,0,.991.453,5.537,5.537,0,0,1,1.015.442,1.36,1.36,0,0,1,.488.458,1.237,1.237,0,0,1,.145.629A1.19,1.19,0,0,1,29.655,13.347Z" transform="translate(-13.122 -3.574)" fill="none" stroke="#004695" stroke-width="1"/>
          <path id="Path_2439" data-name="Path 2439" d="M18.919,43.94a1.979,1.979,0,0,1-.6-.093l-4.307-1.369.306-.962,4.308,1.37a1.014,1.014,0,0,0,.652-.014L35.45,35.864a.685.685,0,0,0,.44-.908l-.137-.429a.933.933,0,0,0-1.128-.536l-8.734,2.3-.257-.976,8.736-2.3a1.941,1.941,0,0,1,2.344,1.206l.137.429A1.677,1.677,0,0,1,35.823,36.8L19.647,43.808a2.112,2.112,0,0,1-.728.132" transform="translate(-6.939 -16.32)" fill="#004795"/>
          <path id="Path_2440" data-name="Path 2440" d="M23.685,38.926a2,2,0,0,1-.534-.073l-6.685-1.845a.5.5,0,0,1,.268-.973l6.684,1.846a.921.921,0,0,0,1.131-.522l.439-1.319a.634.634,0,0,0-.028-.482A.85.85,0,0,0,24.4,35.1l-7.5-2.069H13.817a.5.5,0,0,1,0-1.009l3.287.018,7.566,2.087a1.853,1.853,0,0,1,1.207,1.009,1.641,1.641,0,0,1,.07,1.227l-.439,1.317a1.9,1.9,0,0,1-1.823,1.25" transform="translate(-6.594 -15.858)" fill="#004695"/>
          <path id="Path_2441" data-name="Path 2441" d="M5.709,41.905H2.019A2.021,2.021,0,0,1,0,39.886V31.011a2.021,2.021,0,0,1,2.019-2.019h3.69a2.021,2.021,0,0,1,2.019,2.019v8.876a2.021,2.021,0,0,1-2.019,2.019M2.019,30a1.01,1.01,0,0,0-1.009,1.009v8.876A1.011,1.011,0,0,0,2.019,40.9h3.69a1.011,1.011,0,0,0,1.009-1.009V31.011A1.01,1.01,0,0,0,5.709,30Z" transform="translate(0 -14.36)" fill="#004795"/>
        </g>
      </g>
    </g>
  </g>
</svg>
