<svg xmlns="http://www.w3.org/2000/svg" xmlns:xlink="http://www.w3.org/1999/xlink" width="65.685" height="59.46" viewBox="0 0 65.685 59.46">
  <defs>
    <clipPath id="clip-path">
      <rect id="Rectangle_2799" data-name="Rectangle 2799" width="65.685" height="59.46" transform="translate(0 0)" fill="none"/>
    </clipPath>
  </defs>
  <g id="Group_2788" data-name="Group 2788" transform="translate(0 0)" clip-path="url(#clip-path)">
    <path id="Path_2478" data-name="Path 2478" d="M6.44,17.823a1,1,0,0,1-.534-1.846L29.473,1.122l9.766,11.062L57.446,1.934a1,1,0,1,1,.981,1.743L38.812,14.721l-9.712-11L6.972,17.669a1,1,0,0,1-.532.154" fill="#004695"/>
    <path id="Path_2479" data-name="Path 2479" d="M56.655,10.871a.987.987,0,0,1-.282-.041A1,1,0,0,1,55.7,9.589l2.021-6.87-7.3-.726A1,1,0,0,1,49.517.9,1.018,1.018,0,0,1,50.611,0l9.706.964-2.7,9.186a1,1,0,0,1-.959.718" fill="#004695"/>
    <path id="Path_2480" data-name="Path 2480" d="M12.1,49.686a1,1,0,0,1-1-1V44.115a2.324,2.324,0,0,1,2.168-2.209,1,1,0,1,1,.25,1.984.511.511,0,0,0-.418.226v4.57a1,1,0,0,1-1,1" fill="#004695"/>
    <path id="Path_2481" data-name="Path 2481" d="M22.632,49.686a1,1,0,0,1-1-1V44.14c0-.036-.132-.192-.425-.231l-.253-.013-7.544,0a1.024,1.024,0,0,1-1.055-.835.961.961,0,0,1,.784-1.138l.249-.027,8.011.021a2.357,2.357,0,0,1,2.233,2.221v4.546a1,1,0,0,1-1,1" fill="#004695"/>
    <path id="Path_2482" data-name="Path 2482" d="M17.34,40.99A4.463,4.463,0,1,1,21.8,36.527,4.468,4.468,0,0,1,17.34,40.99m0-6.925A2.463,2.463,0,1,0,19.8,36.527a2.464,2.464,0,0,0-2.462-2.462" fill="#004795"/>
    <path id="Path_2483" data-name="Path 2483" d="M47.469,59.46A18.216,18.216,0,1,1,65.685,41.244,18.236,18.236,0,0,1,47.469,59.46m0-34.432A16.216,16.216,0,1,0,63.685,41.244,16.235,16.235,0,0,0,47.469,25.028" fill="#004695"/>
    <path id="Path_2484" data-name="Path 2484" d="M18.216,59.46A18.216,18.216,0,1,1,36.432,41.244,18.237,18.237,0,0,1,18.216,59.46m0-34.432A16.216,16.216,0,1,0,34.432,41.244,16.234,16.234,0,0,0,18.216,25.028" fill="#004695"/>
    <path id="Path_2485" data-name="Path 2485" d="M46.548,34.272a2.513,2.513,0,1,1,2.392-2.51,2.457,2.457,0,0,1-2.392,2.51m0-3.021a.528.528,0,1,0,.392.511.47.47,0,0,0-.392-.511" fill="#004695"/>
    <path id="Path_2486" data-name="Path 2486" d="M47.548,38.117H35.356v-2H45.548V33.271h2Z" fill="#004695"/>
    <path id="Path_2487" data-name="Path 2487" d="M53.852,40.053a2.513,2.513,0,1,1,2.392-2.51,2.457,2.457,0,0,1-2.392,2.51m0-3.021a.528.528,0,1,0,.392.511.47.47,0,0,0-.392-.511" fill="#004695"/>
    <path id="Path_2488" data-name="Path 2488" d="M49.666,51.034a2.513,2.513,0,1,1,2.392-2.511,2.457,2.457,0,0,1-2.392,2.511m0-3.021a.528.528,0,1,0,.392.51.469.469,0,0,0-.392-.51" fill="#004695"/>
    <path id="Path_2489" data-name="Path 2489" d="M54.852,43.9H35.432v-2h17.42V39.052h2Z" fill="#004695"/>
    <rect id="Rectangle_2798" data-name="Rectangle 2798" width="13.817" height="2" transform="translate(34.456 47.664)" fill="#004695"/>
  </g>
</svg>
