<svg id="Group_2707" data-name="Group 2707" xmlns="http://www.w3.org/2000/svg" xmlns:xlink="http://www.w3.org/1999/xlink" width="71.158" height="73.515" viewBox="0 0 71.158 73.515">
  <defs>
    <clipPath id="clip-path">
      <rect id="Rectangle_2757" data-name="Rectangle 2757" width="71.158" height="73.515" fill="none"/>
    </clipPath>
  </defs>
  <g id="Mask_Group_2706" data-name="Mask Group 2706" clip-path="url(#clip-path)">
    <path id="Path_2382" data-name="Path 2382" d="M49.293,55.636a3.685,3.685,0,0,1-2.528.877,4.213,4.213,0,0,1-2.933-.974,3.446,3.446,0,0,1-1.08-2.7h-.527a4.009,4.009,0,0,0,1.132,3.02,4.673,4.673,0,0,0,3.2,1.176v1.826H47.1V57.03a4.135,4.135,0,0,0,2.709-1.06,3.316,3.316,0,0,0,1.01-2.514,3.653,3.653,0,0,0-.229-1.356,3.08,3.08,0,0,0-.7-1.045,4.5,4.5,0,0,0-1.181-.824,17.6,17.6,0,0,0-2.05-.815,10.689,10.689,0,0,1-2.074-.913,2.956,2.956,0,0,1-1.055-1.01,3.063,3.063,0,0,1-.316-1.513,2.8,2.8,0,0,1,.951-2.2,3.655,3.655,0,0,1,2.533-.85,3.34,3.34,0,0,1,2.572,1.011,3.754,3.754,0,0,1,.942,2.668h.528a4.34,4.34,0,0,0-.977-2.992,3.808,3.808,0,0,0-2.772-1.195V40.6h-.537v1.826a4.082,4.082,0,0,0-2.722,1.02A3.3,3.3,0,0,0,42.684,46a3.555,3.555,0,0,0,.356,1.659,3.346,3.346,0,0,0,1.1,1.195,9.972,9.972,0,0,0,2.31,1.055,12.9,12.9,0,0,1,2.366,1.029,3.169,3.169,0,0,1,1.137,1.068,2.882,2.882,0,0,1,.338,1.466A2.772,2.772,0,0,1,49.293,55.636Z" transform="translate(7.43 7.144)" fill="none" stroke="#004695" stroke-width="1.5"/>
  </g>
</svg>
