<svg xmlns="http://www.w3.org/2000/svg" xmlns:xlink="http://www.w3.org/1999/xlink" width="49" height="49" viewBox="0 0 49 49">
  <defs>
    <clipPath id="clip-path">
      <rect id="Rectangle_2796" data-name="Rectangle 2796" width="28.398" height="28.666" fill="none"/>
    </clipPath>
  </defs>
  <g id="Group_2825" data-name="Group 2825" transform="translate(-274 -5491)">
    <circle id="Ellipse_266" data-name="Ellipse 266" cx="24.5" cy="24.5" r="24.5" transform="translate(274 5491)" fill="#e9f4ff"/>
    <g id="Group_2748" data-name="Group 2748" transform="translate(284 5501)">
      <g id="Group_2747" data-name="Group 2747" transform="translate(0 0)" clip-path="url(#clip-path)">
        <path id="Path_2442" data-name="Path 2442" d="M48.212,41.613H42.976a1.889,1.889,0,0,1-1.887-1.887V26.4a1.889,1.889,0,0,1,1.887-1.887h5.236A1.889,1.889,0,0,1,50.1,26.4V39.726a1.889,1.889,0,0,1-1.887,1.887M42.976,25.457a.945.945,0,0,0-.944.944V39.726a.945.945,0,0,0,.944.944h5.236a.945.945,0,0,0,.944-.944V26.4a.945.945,0,0,0-.944-.944Z" transform="translate(-21.701 -12.946)" fill="#004695"/>
        <rect id="Rectangle_2781" data-name="Rectangle 2781" width="1.139" height="1.946" transform="translate(21.827 14.313)" fill="#004695"/>
        <rect id="Rectangle_2782" data-name="Rectangle 2782" width="1.139" height="1.946" transform="translate(24.82 14.313)" fill="#004695"/>
        <rect id="Rectangle_2783" data-name="Rectangle 2783" width="1.139" height="1.946" transform="translate(21.827 17.501)" fill="#004695"/>
        <rect id="Rectangle_2784" data-name="Rectangle 2784" width="1.139" height="1.946" transform="translate(24.82 17.501)" fill="#004695"/>
        <rect id="Rectangle_2785" data-name="Rectangle 2785" width="1.139" height="1.946" transform="translate(21.827 20.678)" fill="#004695"/>
        <rect id="Rectangle_2786" data-name="Rectangle 2786" width="1.139" height="1.946" transform="translate(24.82 20.678)" fill="#004695"/>
        <rect id="Rectangle_2787" data-name="Rectangle 2787" width="1.139" height="1.946" transform="translate(21.827 23.866)" fill="#004695"/>
        <rect id="Rectangle_2788" data-name="Rectangle 2788" width="1.139" height="1.946" transform="translate(24.82 23.866)" fill="#004695"/>
        <rect id="Rectangle_2789" data-name="Rectangle 2789" width="0.944" height="3.185" transform="translate(0.391 18.732)" fill="#004695"/>
        <rect id="Rectangle_2790" data-name="Rectangle 2790" width="0.944" height="0.744" transform="translate(0.391 23.38)" fill="#004695"/>
        <rect id="Rectangle_2791" data-name="Rectangle 2791" width="0.944" height="3.185" transform="translate(9.069 18.732)" fill="#004695"/>
        <rect id="Rectangle_2792" data-name="Rectangle 2792" width="0.944" height="1.065" transform="translate(9.069 23.38)" fill="#004695"/>
        <rect id="Rectangle_2793" data-name="Rectangle 2793" width="0.944" height="2.825" transform="translate(0.39 23.736)" fill="#004695"/>
        <rect id="Rectangle_2794" data-name="Rectangle 2794" width="0.944" height="2.778" transform="translate(9.068 23.736)" fill="#004695"/>
        <path id="Path_2443" data-name="Path 2443" d="M9.238,38.038H1.318A1.243,1.243,0,0,1,.077,36.8v-.241a1.243,1.243,0,0,1,1.241-1.241H9.238a1.243,1.243,0,0,1,1.241,1.241V36.8a1.243,1.243,0,0,1-1.241,1.241M1.318,36.259a.3.3,0,0,0-.3.3V36.8a.3.3,0,0,0,.3.3H9.238a.3.3,0,0,0,.3-.3v-.241a.3.3,0,0,0-.3-.3Z" transform="translate(-0.041 -18.651)" fill="#004695"/>
        <path id="Path_2444" data-name="Path 2444" d="M9.161,47.832H1.241A1.243,1.243,0,0,1,0,46.591v-.241a1.243,1.243,0,0,1,1.241-1.241H9.161A1.243,1.243,0,0,1,10.4,46.349v.241a1.243,1.243,0,0,1-1.241,1.241m-7.919-1.78a.3.3,0,0,0-.3.3v.241a.3.3,0,0,0,.3.3H9.161a.3.3,0,0,0,.3-.3v-.241a.3.3,0,0,0-.3-.3Z" transform="translate(0 -23.824)" fill="#004695"/>
        <path id="Path_2445" data-name="Path 2445" d="M9.238,57.626H1.318A1.243,1.243,0,0,1,.077,56.385v-.241A1.243,1.243,0,0,1,1.318,54.9H9.238a1.243,1.243,0,0,1,1.241,1.241v.241a1.243,1.243,0,0,1-1.241,1.241m-7.919-1.78a.3.3,0,0,0-.3.3v.241a.3.3,0,0,0,.3.3H9.238a.3.3,0,0,0,.3-.3v-.241a.3.3,0,0,0-.3-.3Z" transform="translate(-0.041 -28.996)" fill="#004695"/>
        <rect id="Rectangle_2795" data-name="Rectangle 2795" width="3.384" height="1.632" transform="translate(1.345 15.921)" fill="#004695"/>
        <path id="Path_2446" data-name="Path 2446" d="M18.511,9.57H10.14A1.889,1.889,0,0,1,8.253,7.683v-5.8A1.889,1.889,0,0,1,10.14,0h8.37A1.889,1.889,0,0,1,20.4,1.887v5.8A1.889,1.889,0,0,1,18.511,9.57M10.14.944a.945.945,0,0,0-.944.944v5.8a.945.945,0,0,0,.944.944h8.37a.945.945,0,0,0,.944-.944v-5.8a.945.945,0,0,0-.944-.944Z" transform="translate(-4.359 0)" fill="#004695"/>
        <path id="Path_2447" data-name="Path 2447" d="M19.894,20.149H16.335a.909.909,0,0,1-.908-.909v-.958H20.8v.958a.909.909,0,0,1-.908.909" transform="translate(-8.148 -9.656)" fill="#004695"/>
        <path id="Path_2448" data-name="Path 2448" d="M13.548,10.791a.472.472,0,0,1-.277-.854L16.08,7.9l.735,1.187,2.3-1.432a.472.472,0,0,1,.5.8l-3.1,1.932-.7-1.129L13.825,10.7a.472.472,0,0,1-.277.09" transform="translate(-6.906 -4.007)" fill="#004695"/>
        <path id="Path_2449" data-name="Path 2449" d="M24.753,9.3a.471.471,0,0,1-.472-.472V7.357H22.876a.472.472,0,1,1,0-.944h2.349V8.832a.471.471,0,0,1-.472.472" transform="translate(-11.833 -3.387)" fill="#004695"/>
        <path id="Path_2450" data-name="Path 2450" d="M9.453,19.436a.472.472,0,0,1-.407-.71c.124-.213.256-.422.394-.626a.472.472,0,1,1,.78.53q-.19.28-.36.571a.471.471,0,0,1-.408.234" transform="translate(-4.744 -9.45)" fill="#004695"/>
        <path id="Path_2451" data-name="Path 2451" d="M6.547,27.12l-.051,0a.471.471,0,0,1-.419-.52A11,11,0,0,1,6.4,24.9a.472.472,0,0,1,.91.248A10.1,10.1,0,0,0,7.016,26.7a.472.472,0,0,1-.469.421" transform="translate(-3.208 -12.965)" fill="#004695"/>
        <path id="Path_2452" data-name="Path 2452" d="M6.806,35.507a.472.472,0,0,1-.425-.265.583.583,0,0,1-.058-.188c-.042-.2-.08-.394-.108-.594a.5.5,0,0,1,.394-.56.446.446,0,0,1,.531.368l-.467.072.47-.046c.032.22.067.406.107.588h0a.472.472,0,0,1-.446.624" transform="translate(-3.28 -17.901)" fill="#004695"/>
        <path id="Path_2453" data-name="Path 2453" d="M8.13,40.055a.469.469,0,0,1-.42-.26l.422-.211-.423.21a.6.6,0,0,1-.059-.238.479.479,0,1,1,.48.5" transform="translate(-4.04 -20.642)" fill="#004695"/>
        <path id="Path_2454" data-name="Path 2454" d="M33.159,9.3a.5.5,0,0,1-.1-.011q-.328-.074-.664-.126a.472.472,0,1,1,.145-.933c.244.038.487.084.727.138a.472.472,0,0,1-.1.932" transform="translate(-16.896 -4.344)" fill="#004695"/>
        <path id="Path_2455" data-name="Path 2455" d="M43.2,14.991a.471.471,0,0,1-.4-.215,10.153,10.153,0,0,0-.887-1.17.472.472,0,0,1,.71-.623,11.194,11.194,0,0,1,.969,1.28.472.472,0,0,1-.4.729m-2.835-2.932a.469.469,0,0,1-.269-.085,10.222,10.222,0,0,0-1.262-.751.472.472,0,0,1,.423-.844,11.047,11.047,0,0,1,1.379.822.472.472,0,0,1-.27.858" transform="translate(-20.372 -5.455)" fill="#004695"/>
        <path id="Path_2456" data-name="Path 2456" d="M50.439,24.7a.472.472,0,0,1-.455-.348c-.059-.218-.126-.435-.2-.647a.472.472,0,0,1,.892-.307q.12.348.218.706a.472.472,0,0,1-.456.6" transform="translate(-26.28 -12.19)" fill="#004695"/>
        <path id="Path_2457" data-name="Path 2457" d="M20.346,52.227a.487.487,0,0,1-.166-.03q-.348-.13-.683-.283a.472.472,0,0,1,.39-.859q.307.139.625.258a.472.472,0,0,1-.166.914" transform="translate(-10.151 -26.942)" fill="#004695"/>
        <path id="Path_2458" data-name="Path 2458" d="M27,53.353h-.008a10.986,10.986,0,0,1-1.4-.115.472.472,0,0,1-.4-.535.466.466,0,0,1,.535-.4,10.076,10.076,0,0,0,1.278.1.472.472,0,0,1-.009.944m2.226-.189a.472.472,0,0,1-.088-.935,10.031,10.031,0,0,0,1.24-.322.472.472,0,1,1,.3.9,10.935,10.935,0,0,1-1.358.352.48.48,0,0,1-.089.008" transform="translate(-13.306 -27.401)" fill="#004695"/>
        <path id="Path_2459" data-name="Path 2459" d="M40.3,50.455a.472.472,0,0,1-.239-.879q.292-.171.572-.361a.472.472,0,1,1,.53.78q-.306.207-.624.394a.466.466,0,0,1-.238.065" transform="translate(-21.032 -25.95)" fill="#004695"/>
      </g>
    </g>
  </g>
</svg>
