<svg xmlns="http://www.w3.org/2000/svg" xmlns:xlink="http://www.w3.org/1999/xlink" width="49" height="49" viewBox="0 0 49 49">
  <defs>
    <clipPath id="clip-path">
      <rect id="Rectangle_2778" data-name="Rectangle 2778" width="28.198" height="26" fill="none"/>
    </clipPath>
  </defs>
  <g id="Group_2824" data-name="Group 2824" transform="translate(-274 -5383)">
    <circle id="Ellipse_265" data-name="Ellipse 265" cx="24.5" cy="24.5" r="24.5" transform="translate(274 5383)" fill="#e9f4ff"/>
    <g id="Group_2738" data-name="Group 2738" transform="translate(284 5395)">
      <g id="Group_2737" data-name="Group 2737" transform="translate(0 0)" clip-path="url(#clip-path)">
        <path id="Path_2424" data-name="Path 2424" d="M6.546,43.724c-.218,0-.452,0-.7,0l-.461,0c-1.741-.013-3.112-.014-4.079,0H1.293a1.22,1.22,0,0,1-1.054-.643,1.776,1.776,0,0,1-.017-1.748l2.789-4.946A1.246,1.246,0,0,1,4.084,35.7H9.109a1.247,1.247,0,0,1,1.074.675l2.789,4.946a1.775,1.775,0,0,1-.017,1.747,1.2,1.2,0,0,1-1.066.643c-1.164-.011-2.761-.006-4.08,0l-1.26.01ZM2.779,42.7c.747,0,1.62,0,2.611.011l.463,0c.247,0,.479,0,.692,0l1.258-.01c1.324-.008,2.927-.014,4.1,0h0c.087,0,.155-.093.188-.149a.773.773,0,0,0,.007-.741L9.3,36.87a.275.275,0,0,0-.2-.163H4.084c-.063,0-.14.064-.2.163L1.1,41.816a.777.777,0,0,0,.007.741c.033.055.1.149.188.149h0c.42,0,.916-.006,1.485-.006" transform="translate(0 -17.725)" fill="#004695"/>
        <path id="Path_2425" data-name="Path 2425" d="M36.348,43.429c-.218,0-.453,0-.7,0l-.46,0c-1.741-.013-3.114-.014-4.079,0a1.24,1.24,0,0,1-1.066-.644,1.776,1.776,0,0,1-.017-1.747l2.789-4.946a1.248,1.248,0,0,1,1.074-.675h5.024a1.247,1.247,0,0,1,1.073.675l2.789,4.946a1.775,1.775,0,0,1-.017,1.747,1.209,1.209,0,0,1-1.066.643c-1.164-.011-2.761-.006-4.08,0l-1.261.01ZM32.581,42.4c.747,0,1.62,0,2.611.011l.462,0c.247,0,.479,0,.692,0l1.259-.01c1.323-.009,2.926-.014,4.095,0h0c.087,0,.156-.093.188-.149a.775.775,0,0,0,.007-.741l-2.789-4.946c-.056-.1-.133-.163-.2-.163H33.887c-.063,0-.141.064-.2.164L30.9,41.521a.776.776,0,0,0,.007.741c.033.056.1.152.19.149.42,0,.915-.006,1.484-.006" transform="translate(-14.797 -17.578)" fill="#004695"/>
        <path id="Path_2426" data-name="Path 2426" d="M44.558,50.355l-1.771-.018,0-1.007,1.768-.013Z" transform="translate(-21.244 -24.486)" fill="#004695"/>
        <path id="Path_2427" data-name="Path 2427" d="M39.5,50.359V49.343l.507-.016.463,0c.247,0,.48,0,.692,0l.005,1.007Z" transform="translate(-19.612 -24.491)" fill="#004695"/>
        <path id="Path_2428" data-name="Path 2428" d="M21.164,24.488c-.226,0-.47,0-.73,0l-.433,0c-1.319-.009-2.915-.015-4.079,0h-.012a1.22,1.22,0,0,1-1.054-.643,1.775,1.775,0,0,1-.017-1.747l2.789-4.947a1.247,1.247,0,0,1,1.074-.675h5.024a1.246,1.246,0,0,1,1.073.674l2.789,4.947a1.775,1.775,0,0,1-.016,1.747,1.261,1.261,0,0,1-1.066.644c-1.166-.011-2.762-.006-4.08,0l-1.26.009Zm-3.8-1.025c.875,0,1.817.005,2.648.011l.434,0c.257,0,.5,0,.721,0l1.258-.009c1.324-.009,2.926-.014,4.1,0h0c.091,0,.162-.1.188-.149a.775.775,0,0,0,.006-.741l-2.788-4.946a.276.276,0,0,0-.2-.163H18.7a.277.277,0,0,0-.2.163L15.717,22.58a.775.775,0,0,0,.007.741c.033.056.086.148.189.149.435,0,.929-.006,1.448-.006" transform="translate(-7.258 -8.174)" fill="#004695"/>
        <path id="Path_2429" data-name="Path 2429" d="M29.373,31.414l-.508,0s-.505,0-1.263-.014l0-1.007,1.768-.012Z" transform="translate(-13.704 -15.081)" fill="#004695"/>
        <path id="Path_2430" data-name="Path 2430" d="M24.316,31.418V30.4l.507-.016.435,0c.257,0,.5,0,.721,0l.006,1.007Z" transform="translate(-12.073 -15.087)" fill="#004695"/>
        <path id="Path_2431" data-name="Path 2431" d="M27.3,4.939a.5.5,0,0,1-.5-.5V.5A.5.5,0,0,1,27.8.5V4.435a.5.5,0,0,1-.5.5" transform="translate(-13.302 0)" fill="#004695"/>
        <path id="Path_2432" data-name="Path 2432" d="M45.07,14.153a.5.5,0,0,1-.356-.859l2.78-2.78a.5.5,0,0,1,.712.712l-2.78,2.78a.5.5,0,0,1-.356.148" transform="translate(-22.127 -5.146)" fill="#004695"/>
        <path id="Path_2433" data-name="Path 2433" d="M8.944,14.153a.5.5,0,0,1-.356-.148l-2.78-2.78a.5.5,0,1,1,.712-.712l2.78,2.78a.5.5,0,0,1-.356.859" transform="translate(-2.81 -5.146)" fill="#004695"/>
      </g>
    </g>
  </g>
</svg>
