<svg xmlns="http://www.w3.org/2000/svg" xmlns:xlink="http://www.w3.org/1999/xlink" width="53.758" height="65.461" viewBox="0 0 53.758 65.461">
  <defs>
    <clipPath id="clip-path">
      <rect id="Rectangle_2758" data-name="Rectangle 2758" width="53.758" height="65.461" fill="none"/>
    </clipPath>
  </defs>
  <g id="Group_2710" data-name="Group 2710" transform="translate(0 0)">
    <g id="Group_2709" data-name="Group 2709" transform="translate(0 0)" clip-path="url(#clip-path)">
      <path id="Path_2383" data-name="Path 2383" d="M22.041,8.489,14.966,1.414,7.882,8.5" transform="translate(0.675 0.121)" fill="none" stroke="#004695" stroke-linecap="round" stroke-width="2"/>
      <line id="Line_304" data-name="Line 304" y1="62.732" transform="translate(15.647 1.535)" fill="none" stroke="#004695" stroke-linecap="round" stroke-width="2"/>
      <path id="Path_2384" data-name="Path 2384" d="M23.608,50.245c-.054.043-.119.087-.185.13A13.887,13.887,0,0,1,15.6,52.709c-.2.011-.391.011-.6.011a15.277,15.277,0,0,1-9.337-2.649,8.7,8.7,0,0,1-3.593-7.437H.625a10.852,10.852,0,0,0,1.7,6.123A10.744,10.744,0,0,0,7.4,52.763a19.631,19.631,0,0,0,7.6,1.4c.206,0,.4,0,.6-.011a17.906,17.906,0,0,0,6.253-1.216,12.293,12.293,0,0,0,2.03-1.042m2.975-12.55a9.557,9.557,0,0,0-2.388-2.486c-1.9-1.4-4.853-2.627-8.87-3.713-.141-.033-.271-.076-.413-.109-4.223-1.1-7.263-2.356-9.1-3.778A6.962,6.962,0,0,1,6.5,17.871,13.925,13.925,0,0,1,14.8,15.58c.271,0,.532.011.793.022a11.727,11.727,0,0,1,7.534,2.834,9.225,9.225,0,0,1,3.214,7.209h1.444A10.855,10.855,0,0,0,21.534,15.6,14.634,14.634,0,0,0,15.6,14.158c-.261-.011-.521-.022-.793-.022a15.391,15.391,0,0,0-9.337,2.638,8.17,8.17,0,0,0-3.583,6.894,8.323,8.323,0,0,0,1.183,4.549,10.006,10.006,0,0,0,3.7,3.289,35.8,35.8,0,0,0,7.589,2.812c.423.119.836.228,1.238.347a34.816,34.816,0,0,1,6.318,2.367,9.8,9.8,0,0,1,3.659,3.051,4.633,4.633,0,0,1,.326.554" transform="translate(0.054 1.211)" fill="#004795"/>
      <path id="Path_2385" data-name="Path 2385" d="M23.608,50.245c-.054.043-.119.087-.185.13A13.887,13.887,0,0,1,15.6,52.709c-.2.011-.391.011-.6.011a15.277,15.277,0,0,1-9.337-2.649,8.7,8.7,0,0,1-3.593-7.437H.625a10.852,10.852,0,0,0,1.7,6.123A10.744,10.744,0,0,0,7.4,52.763a19.631,19.631,0,0,0,7.6,1.4c.206,0,.4,0,.6-.011a17.906,17.906,0,0,0,6.253-1.216,12.293,12.293,0,0,0,2.03-1.042m2.975-12.55a9.557,9.557,0,0,0-2.388-2.486c-1.9-1.4-4.853-2.627-8.87-3.713-.141-.033-.271-.076-.413-.109-4.223-1.1-7.263-2.356-9.1-3.778A6.962,6.962,0,0,1,6.5,17.871,13.925,13.925,0,0,1,14.8,15.58c.271,0,.532.011.793.022a11.727,11.727,0,0,1,7.534,2.834,9.225,9.225,0,0,1,3.214,7.209h1.444A10.855,10.855,0,0,0,21.534,15.6,14.634,14.634,0,0,0,15.6,14.158c-.261-.011-.521-.022-.793-.022a15.391,15.391,0,0,0-9.337,2.638,8.17,8.17,0,0,0-3.583,6.894,8.323,8.323,0,0,0,1.183,4.549,10.006,10.006,0,0,0,3.7,3.289,35.8,35.8,0,0,0,7.589,2.812c.423.119.836.228,1.238.347a34.816,34.816,0,0,1,6.318,2.367,9.8,9.8,0,0,1,3.659,3.051,4.633,4.633,0,0,1,.326.554" transform="translate(0.054 1.211)" fill="none" stroke="#004695" stroke-width="1"/>
      <path id="Path_2386" data-name="Path 2386" d="M24.649,38.267a14.554,14.554,0,1,1-2.941,8.773,14.528,14.528,0,0,1,2.941-8.773" transform="translate(1.859 2.783)" fill="none" stroke="#004695" stroke-linecap="round" stroke-width="2"/>
      <line id="Line_305" data-name="Line 305" y2="11.258" transform="translate(38.243 44.672)" fill="none" stroke="#004695" stroke-linecap="round" stroke-width="2"/>
      <line id="Line_306" data-name="Line 306" x2="11.258" transform="translate(32.614 50.301)" fill="none" stroke="#004695" stroke-linecap="round" stroke-width="2"/>
    </g>
  </g>
</svg>
