<svg xmlns="http://www.w3.org/2000/svg" xmlns:xlink="http://www.w3.org/1999/xlink" width="49" height="49" viewBox="0 0 49 49">
  <defs>
    <clipPath id="clip-path">
      <rect id="Rectangle_2779" data-name="Rectangle 2779" width="24.398" height="30" fill="none"/>
    </clipPath>
  </defs>
  <g id="Group_2823" data-name="Group 2823" transform="translate(-274 -5272)">
    <circle id="Ellipse_264" data-name="Ellipse 264" cx="24.5" cy="24.5" r="24.5" transform="translate(274 5272)" fill="#e9f4ff"/>
    <g id="Group_2740" data-name="Group 2740" transform="translate(286 5282)">
      <g id="Group_2739" data-name="Group 2739" transform="translate(0 0)" clip-path="url(#clip-path)">
        <path id="Path_2434" data-name="Path 2434" d="M12.2,30l-.166-.066C9.715,29.026-1.744,23.432.227,2.475l.055-.583.552.2C.91,2.116,8.458,4.744,11.841.454L12.2,0l.358.454c3.383,4.29,10.931,1.662,11.007,1.635l.552-.2.055.583c1.971,20.956-9.488,26.551-11.806,27.459ZM1.084,3.126C-.534,22.505,9.683,27.975,12.2,29.019c2.516-1.044,12.733-6.514,11.115-25.893-1.85.546-7.774,1.92-11.115-1.689C8.858,5.045,2.934,3.672,1.084,3.126" transform="translate(0 0)" fill="#004695"/>
        <path id="Path_2435" data-name="Path 2435" d="M17.147,30.989l-.166-.066c-1.518-.6-9.024-4.258-7.739-17.927l.055-.583.552.2c.048.016,4.823,1.677,6.94-1.006l.358-.454.358.454c2.121,2.69,6.892,1.023,6.94,1.006l.552-.2.055.584c1.286,13.669-6.22,17.332-7.738,17.927ZM10.1,13.639c-.941,12.116,5.352,15.643,7.045,16.366,1.693-.723,7.986-4.251,7.045-16.366-1.372.377-4.914,1.07-7.045-1.068-2.131,2.138-5.674,1.445-7.045,1.068" transform="translate(-4.949 -6.067)" fill="#004695"/>
        <path id="Path_2436" data-name="Path 2436" d="M21.871,31.406l-2.886-2.886a.456.456,0,0,1,.644-.645l2.241,2.241,4.85-4.851a.456.456,0,0,1,.644.645Z" transform="translate(-10.259 -13.678)" fill="#004695"/>
      </g>
    </g>
  </g>
</svg>
