<svg xmlns="http://www.w3.org/2000/svg" xmlns:xlink="http://www.w3.org/1999/xlink" width="49.175" height="57.246" viewBox="0 0 49.175 57.246">
  <defs>
    <clipPath id="clip-path">
      <rect id="Rectangle_2817" data-name="Rectangle 2817" width="49.175" height="57.246" transform="translate(0 0)" fill="none"/>
    </clipPath>
  </defs>
  <g id="Group_2878" data-name="Group 2878" transform="translate(0 0)">
    <g id="Group_2877" data-name="Group 2877" clip-path="url(#clip-path)">
      <path id="Path_2607" data-name="Path 2607" d="M17.3,57.246a3.151,3.151,0,0,1-.928-.139l-6.118-1.869.584-1.912,6.118,1.869a1.242,1.242,0,0,0,.765-.015l22.965-9.556a.621.621,0,0,0,.457-.843l-.194-.586a1.076,1.076,0,0,0-1.275-.533L27.267,46.8l-.49-1.94,12.409-3.138a3.035,3.035,0,0,1,3.66,1.845l.194.585A2.6,2.6,0,0,1,41.4,47.491L18.435,57.046a3.374,3.374,0,0,1-1.137.2" fill="#004795"/>
      <path id="Path_2608" data-name="Path 2608" d="M24.585,51.037a3.275,3.275,0,0,1-.848-.11l-9.494-2.518a1,1,0,0,1,.512-1.934l9.495,2.518a1.05,1.05,0,0,0,1.276-.519l.623-1.8a.5.5,0,0,0-.023-.4.908.908,0,0,0-.613-.476L14.892,42.983H10.544a1,1,0,1,1,0-2l4.735.033,10.747,2.849a2.89,2.89,0,0,1,1.9,1.539,2.482,2.482,0,0,1,.113,1.926l-.622,1.8a2.948,2.948,0,0,1-2.832,1.91" fill="#004695"/>
      <path id="Path_2609" data-name="Path 2609" d="M7.543,57.144H4a4,4,0,0,1-4-4V42.9a4,4,0,0,1,4-4H7.543a4,4,0,0,1,4,4V53.144a4,4,0,0,1-4,4M4,40.9a2,2,0,0,0-2,2V53.144a2,2,0,0,0,2,2H7.543a2,2,0,0,0,2-2V42.9a2,2,0,0,0-2-2Z" fill="#004795"/>
      <path id="Path_2610" data-name="Path 2610" d="M9.018,15.622A2.963,2.963,0,0,1,6.154,13.68L5.959,13.1A2.6,2.6,0,0,1,7.606,9.755L30.667.2a3.3,3.3,0,0,1,2.07-.061l6.144,1.869L38.3,3.921,32.154,2.052a1.238,1.238,0,0,0-.773.015L8.317,11.623a.619.619,0,0,0-.461.84l.2.586a1.089,1.089,0,0,0,1.287.535L21.8,10.446l.489,1.94L9.822,15.524a3.324,3.324,0,0,1-.8.1" fill="#004795"/>
      <path id="Path_2611" data-name="Path 2611" d="M38.59,16.262l-4.754-.033L23.043,13.38a2.9,2.9,0,0,1-1.906-1.537,2.476,2.476,0,0,1-.113-1.929l.625-1.8a3.035,3.035,0,0,1,3.687-1.8l9.537,2.518a1,1,0,0,1-.511,1.934L24.826,8.251a1.068,1.068,0,0,0-1.288.522l-.626,1.8a.492.492,0,0,0,.024.4.92.92,0,0,0,.617.479l10.668,2.815H38.59a1,1,0,1,1,0,2" fill="#004695"/>
      <path id="Path_2612" data-name="Path 2612" d="M45.174,18.344H41.59a4,4,0,0,1-4-4V4.1a4,4,0,0,1,4-4h3.584a4,4,0,0,1,4,4V14.344a4,4,0,0,1-4,4M41.59,2.1a2,2,0,0,0-2,2V14.344a2,2,0,0,0,2,2h3.584a2,2,0,0,0,2-2V4.1a2,2,0,0,0-2-2Z" fill="#004795"/>
      <path id="Path_2613" data-name="Path 2613" d="M25.1,39.723A11.338,11.338,0,1,1,36.436,28.385,11.351,11.351,0,0,1,25.1,39.723m0-20.676a9.338,9.338,0,1,0,9.338,9.338A9.348,9.348,0,0,0,25.1,19.047" fill="#004795"/>
      <path id="Path_2614" data-name="Path 2614" d="M30.383,31.385h-7.4V22.722h2v6.663h5.4Z" fill="#004795"/>
      <rect id="Rectangle_2813" data-name="Rectangle 2813" width="2" height="6" transform="translate(4.697 17.94)" fill="#004795"/>
      <rect id="Rectangle_2814" data-name="Rectangle 2814" width="2" height="6" transform="translate(4.697 29.468)" fill="#004795"/>
      <rect id="Rectangle_2815" data-name="Rectangle 2815" width="2" height="6" transform="translate(42.757 21.888)" fill="#004795"/>
      <rect id="Rectangle_2816" data-name="Rectangle 2816" width="2" height="6" transform="translate(42.757 33.415)" fill="#004795"/>
    </g>
  </g>
</svg>
