<svg xmlns="http://www.w3.org/2000/svg" xmlns:xlink="http://www.w3.org/1999/xlink" width="55.295" height="56.55" viewBox="0 0 55.295 56.55">
  <defs>
    <clipPath id="clip-path">
      <rect id="Rectangle_2812" data-name="Rectangle 2812" width="55.295" height="56.55" transform="translate(0 0)" fill="none"/>
    </clipPath>
  </defs>
  <g id="Group_2876" data-name="Group 2876" transform="translate(0 0)">
    <g id="Group_2875" data-name="Group 2875" clip-path="url(#clip-path)">
      <path id="Path_2603" data-name="Path 2603" d="M42.772,25.048A12.524,12.524,0,1,1,55.295,12.524,12.538,12.538,0,0,1,42.772,25.048M42.772,2A10.524,10.524,0,1,0,53.295,12.524,10.537,10.537,0,0,0,42.772,2" fill="#004695"/>
      <path id="Path_2604" data-name="Path 2604" d="M22.278,56.55H4A4,4,0,0,1,.413,50.785L9.55,32.2a3.977,3.977,0,0,1,3.59-2.234h0A3.974,3.974,0,0,1,16.73,32.2l9.137,18.587a4,4,0,0,1-3.589,5.765M11.345,33.081,2.208,51.668A2,2,0,0,0,4,54.55H22.278a2,2,0,0,0,1.8-2.882L14.935,33.081a1.963,1.963,0,0,0-1.794-1.117h0a1.964,1.964,0,0,0-1.8,1.117" fill="#004695"/>
      <path id="Path_2605" data-name="Path 2605" d="M21.231,24.36H5.079a4,4,0,0,1-4-4V4.207a4,4,0,0,1,4-4H21.231a4,4,0,0,1,4,4V20.36a4,4,0,0,1-4,4M5.079,2.207a2,2,0,0,0-2,2V20.36a2,2,0,0,0,2,2H21.231a2,2,0,0,0,2-2V4.207a2,2,0,0,0-2-2Z" fill="#004695"/>
      <path id="Path_2606" data-name="Path 2606" d="M47.627,56.334H36.963a3.976,3.976,0,0,1-3.829-2.846L29.693,42.064a3.974,3.974,0,0,1,1.364-4.3l8.771-6.877a3.992,3.992,0,0,1,4.936,0l8.772,6.877a3.975,3.975,0,0,1,1.361,4.3L51.458,53.487a3.977,3.977,0,0,1-3.831,2.847M41.062,32.46l-8.771,6.877a2.012,2.012,0,0,0-.682,2.15l3.439,11.424a1.99,1.99,0,0,0,1.915,1.423H47.627a1.989,1.989,0,0,0,1.916-1.424l3.439-11.423a2.011,2.011,0,0,0-.68-2.15L43.53,32.46a2,2,0,0,0-2.468,0" fill="#004695"/>
    </g>
  </g>
</svg>
