<svg xmlns="http://www.w3.org/2000/svg" xmlns:xlink="http://www.w3.org/1999/xlink" width="61.048" height="60.17" viewBox="0 0 61.048 60.17">
  <defs>
    <clipPath id="clip-path">
      <rect id="Rectangle_2811" data-name="Rectangle 2811" width="61.048" height="60.17" transform="translate(0 0)" fill="none"/>
    </clipPath>
  </defs>
  <g id="Group_2870" data-name="Group 2870" transform="translate(0 0)">
    <g id="Group_2869" data-name="Group 2869" clip-path="url(#clip-path)">
      <path id="Path_2584" data-name="Path 2584" d="M6.266,53.773a1,1,0,0,1-1-1V47.138a1,1,0,0,1,2,0v5.635a1,1,0,0,1-1,1" fill="#004695"/>
      <path id="Path_2585" data-name="Path 2585" d="M1,60.17a1,1,0,0,1-1-1V41.682a4.239,4.239,0,0,1,4.013-3.947A1.012,1.012,0,0,1,5.13,38.6a1,1,0,0,1-.867,1.117A2.322,2.322,0,0,0,2,41.682V59.17a1,1,0,0,1-1,1" fill="#004695"/>
      <path id="Path_2586" data-name="Path 2586" d="M6.28,59.9a1,1,0,0,1-1-1V47.1a1,1,0,0,1,2,0V58.9a1,1,0,0,1-1,1" fill="#004695"/>
      <path id="Path_2587" data-name="Path 2587" d="M26.568,59.986a1,1,0,0,1-1-1V41.741A2.347,2.347,0,0,0,23.3,39.766l-.716-.041-18.506.026a1,1,0,1,1-.32-1.975l.382-.049,19.353.05c2.392.315,4.078,1.98,4.078,3.964V58.986a1,1,0,0,1-1,1" fill="#004695"/>
      <path id="Path_2588" data-name="Path 2588" d="M21.288,60.17a1,1,0,0,1-1-1V47.15a1,1,0,0,1,2,0V59.17a1,1,0,0,1-1,1" fill="#004695"/>
      <path id="Path_2589" data-name="Path 2589" d="M13.725,37.212a9.4,9.4,0,1,1,9.4-9.4,9.411,9.411,0,0,1-9.4,9.4m0-16.8a7.4,7.4,0,1,0,7.4,7.4,7.408,7.408,0,0,0-7.4-7.4" fill="#004795"/>
      <path id="Path_2590" data-name="Path 2590" d="M30.37,46.073a1,1,0,0,1-1-1V39.438a1,1,0,0,1,2,0v5.635a1,1,0,0,1-1,1" fill="#004695"/>
      <path id="Path_2591" data-name="Path 2591" d="M25.106,40.364a1,1,0,0,1-1-1V33.982a4.229,4.229,0,0,1,3.732-3.9l.262-.039a1,1,0,1,1,.293,1.978l-.231.034a2.25,2.25,0,0,0-2.056,1.929v5.382a1,1,0,0,1-1,1" fill="#004695"/>
      <path id="Path_2592" data-name="Path 2592" d="M30.385,52.194a1,1,0,0,1-1-1V39.4a1,1,0,0,1,2,0V51.194a1,1,0,0,1-1,1" fill="#004695"/>
      <path id="Path_2593" data-name="Path 2593" d="M50.673,52.286a1,1,0,0,1-1-1V34.041A2.347,2.347,0,0,0,47.4,32.066l-.716-.041-18.507.026a1,1,0,1,1-.318-1.975l.382-.049,19.352.05c2.392.315,4.078,1.98,4.078,3.964V51.286a1,1,0,0,1-1,1" fill="#004695"/>
      <path id="Path_2594" data-name="Path 2594" d="M45.393,52.47a1,1,0,0,1-1-1V39.45a1,1,0,0,1,2,0V51.47a1,1,0,0,1-1,1" fill="#004695"/>
      <path id="Path_2595" data-name="Path 2595" d="M37.83,29.513a9.4,9.4,0,1,1,9.4-9.4,9.412,9.412,0,0,1-9.4,9.4m0-16.8a7.4,7.4,0,1,0,7.4,7.4,7.409,7.409,0,0,0-7.4-7.4" fill="#004795"/>
      <path id="Path_2596" data-name="Path 2596" d="M10.374,39.73a1,1,0,0,1-1-1V35.522a1,1,0,0,1,2,0V38.73a1,1,0,0,1-1,1" fill="#004695"/>
      <path id="Path_2597" data-name="Path 2597" d="M35.938,32.03a1,1,0,0,1-1-1,1.822,1.822,0,0,0-.981-1.522,3.228,3.228,0,0,0-1.287-.457l-.715-.042H22.128a1,1,0,0,1,0-2h9.891l.852.053a5.273,5.273,0,0,1,2.134.741,3.816,3.816,0,0,1,1.933,3.226,1,1,0,0,1-1,1" fill="#004695"/>
      <path id="Path_2598" data-name="Path 2598" d="M23.1,26.5a9.443,9.443,0,0,1-1.476-.115l.317-1.975a7.422,7.422,0,0,0,6.987-2.745L30.5,22.9a9.358,9.358,0,0,1-7.4,3.6" fill="#004795"/>
      <path id="Path_2599" data-name="Path 2599" d="M14.088,19.805a9.4,9.4,0,1,1,18.095-5.123l-1.934.512A7.4,7.4,0,1,0,16,19.225Z" fill="#004795"/>
      <path id="Path_2600" data-name="Path 2600" d="M60.048,41.57a1,1,0,0,1-1-1V23.33a2.352,2.352,0,0,0-2.272-1.978l-.719-.044-9.826,0a1,1,0,0,1,0-2h9.89l.852.053c2.39.319,4.075,1.984,4.075,3.967V40.57a1,1,0,0,1-1,1" fill="#004695"/>
      <path id="Path_2601" data-name="Path 2601" d="M54.767,41.757a1,1,0,0,1-1-1V28.737a1,1,0,0,1,2,0v12.02a1,1,0,0,1-1,1" fill="#004695"/>
      <path id="Path_2602" data-name="Path 2602" d="M47.206,18.8a9.468,9.468,0,0,1-1.48-.114l.308-1.977a7.4,7.4,0,1,0-6.229-7.3,7.289,7.289,0,0,0,.307,2.122l-1.914.582a9.309,9.309,0,0,1-.393-2.7,9.4,9.4,0,1,1,9.4,9.393" fill="#004795"/>
    </g>
  </g>
</svg>
